<?xml version="1.0" encoding="utf-8"?>
<!-- Generator: Adobe Illustrator 25.0.0, SVG Export Plug-In . SVG Version: 6.00 Build 0)  -->
<svg version="1.1" id="Layer_1" xmlns="http://www.w3.org/2000/svg" xmlns:xlink="http://www.w3.org/1999/xlink" x="0px" y="0px"
	 viewBox="0 0 512 382" style="enable-background:new 0 0 512 382;" xml:space="preserve">
<style type="text/css">
	.st0{clip-path:url(#SVGID_2_);}
	.st1{fill:#BBD070;}
	.st2{fill:#97A43C;}
	.st3{fill:#48753A;}
	.st4{fill:#DBD8E3;}
	.st5{fill:#323657;}
	.st6{fill:#EEA987;}
	.st7{fill:#E8734D;}
	.st8{fill:#C4C1CC;}
	.st9{fill:#EFAA88;}
	.st10{fill:#EEA886;}
	.st11{fill:#16202E;}
	.st12{fill:#A77860;}
	.st13{fill:#FFC955;}
	.st14{fill:#96CBFF;}
	.st15{fill:#95CAFF;}
	.st16{fill:#94C9FF;}
	.st17{fill:#93C9FF;}
	.st18{fill:#92C8FF;}
	.st19{fill:#91C7FF;}
	.st20{fill:#90C6FF;}
	.st21{fill:#8FC6FF;}
	.st22{fill:#8EC5FF;}
	.st23{fill:#8DC4FF;}
	.st24{fill:#8CC3FF;}
	.st25{fill:#8BC2FF;}
	.st26{fill:#8AC2FF;}
	.st27{fill:#89C1FF;}
	.st28{fill:#88C0FF;}
	.st29{fill:#87BFFF;}
	.st30{fill:#86BFFF;}
	.st31{fill:#85BEFF;}
	.st32{fill:#84BDFF;}
	.st33{fill:#83BCFF;}
	.st34{fill:#82BBFF;}
	.st35{fill:#81BBFF;}
	.st36{fill:#80BAFF;}
	.st37{fill:#7FB9FF;}
	.st38{fill:#7EB8FF;}
	.st39{fill:#7DB7FF;}
	.st40{fill:#7CB7FF;}
	.st41{fill:#7BB6FF;}
	.st42{fill:#7AB5FF;}
	.st43{fill:#79B4FF;}
	.st44{fill:#78B4FF;}
	.st45{fill:#77B3FF;}
	.st46{fill:#76B2FF;}
	.st47{fill:#74B1FF;}
	.st48{fill:#73B0FF;}
	.st49{fill:#72B0FF;}
	.st50{fill:#71AFFF;}
	.st51{fill:#70AEFF;}
	.st52{fill:#6FADFF;}
	.st53{fill:#6EADFF;}
	.st54{fill:#6DACFF;}
	.st55{fill:#6CABFF;}
	.st56{fill:#6BAAFF;}
	.st57{fill:#6AA9FF;}
	.st58{fill:#69A9FF;}
	.st59{fill:#68A8FF;}
	.st60{fill:#67A7FF;}
	.st61{fill:#66A6FF;}
	.st62{fill:#65A6FF;}
	.st63{fill:#64A5FF;}
	.st64{fill:#63A4FF;}
	.st65{fill:#62A3FF;}
	.st66{fill:#61A2FF;}
	.st67{fill:#60A2FF;}
	.st68{fill:#5FA1FF;}
	.st69{fill:#5EA0FF;}
	.st70{fill:#5D9FFF;}
	.st71{fill:#5C9EFF;}
	.st72{fill:#5B9EFF;}
	.st73{fill:#5A9DFF;}
	.st74{fill:#599CFF;}
	.st75{fill:#589BFF;}
	.st76{fill:#579BFF;}
	.st77{fill:#569AFF;}
	.st78{fill:#5599FF;}
	.st79{fill:#CFA345;}
	.st80{fill:#E3F2FF;}
	.st81{fill:#EBEBEB;}
	.st82{fill:#CF8C6C;}
	.st83{fill:#162D40;}
	.st84{fill:#1D3B54;}
	.st85{fill:#EDDAD3;}
	.st86{fill:#D1C0BA;}
	.st87{fill:#FAE6DE;}
	.st88{fill:#54281A;}
	.st89{fill:#DB9C7C;}
	.st90{fill:#366E9C;}
	.st91{fill:#5C544D;}
	.st92{fill:#3C4145;}
	.st93{fill:#FCCCA2;}
	.st94{fill:#E2D2CA;}
	.st95{fill:#F25F54;}
	.st96{fill:#C98462;}
	.st97{fill:#DE9D7D;}
	.st98{fill:#D6D6D6;}
	.st99{fill:#E8E8E8;}
	.st100{fill:#C2C2C2;}
</style>
<g>
	<g>
		<defs>
			<path id="SVGID_1_" d="M153.4,203c-17.1-14.2-19.5-39.5-5.3-56.6c14.2-17.1,39.5-19.5,56.6-5.3c17.1,14.2,19.5,39.5,5.3,56.6
				C195.8,214.8,170.5,217.2,153.4,203L153.4,203z M249,204.9c3.1-6.6,5.2-13.5,6.3-20.5l14.5-4.3l-1.5-16.3l-1.5-16.3l-15-1.6
				c-2.4-6.7-5.7-13.1-10-18.9l7.1-13.3l-12.6-10.5l-12.6-10.5l-11.7,9.5c-6.6-3.1-13.5-5.2-20.5-6.3L187,81.4l-16.3,1.5l-16.3,1.5
				l-1.6,15c-6.7,2.4-13.1,5.7-18.9,10l-13.3-7.1l-10.5,12.6l-10.5,12.6l9.5,11.7c-3.1,6.6-5.2,13.5-6.3,20.5l-14.5,4.3l1.5,16.3
				l1.5,16.3l15,1.6c2.4,6.7,5.7,13.1,10,18.9l-7.1,13.3l12.6,10.5l12.6,10.5l11.7-9.5c6.6,3.1,13.5,5.2,20.5,6.3l4.3,14.5l16.3-1.5
				l16.3-1.5l1.6-15c6.7-2.4,13.1-5.7,18.9-10l13.3,7.1l10.5-12.6l10.5-12.6L249,204.9L249,204.9z"/>
		</defs>
		<clipPath id="SVGID_2_">
			<use xlink:href="#SVGID_1_"  style="overflow:visible;"/>
		</clipPath>
		<g class="st0">
			<defs>
				<rect id="SVGID_3_" x="88.4" y="81.4" width="181.3" height="181.3"/>
			</defs>
			<clipPath id="SVGID_4_">
				<use xlink:href="#SVGID_3_"  style="overflow:visible;"/>
			</clipPath>
			<g style="clip-path:url(#SVGID_4_);">
				
					<image style="overflow:visible;" width="248" height="247" xlink:href="BFE04B81A4877C81.jpg"  transform="matrix(0.7468 0 0 -0.7468 86.5712 264.644)">
				</image>
			</g>
		</g>
	</g>
	<path class="st1" d="M320.7,71.3c0,0,15.5,61.8-21.8,78.7c-37.3,16.9-30.1-14-30.1-14s-15.3-4.2,26.3-27.8
		C314.7,97,320.7,71.3,320.7,71.3L320.7,71.3z"/>
	<path class="st2" d="M418.3,76.7c0,0,7.6,53.9-62.9,77.2c-70.6,23.3-80.6,52.9-80.6,52.9S272.7,87.3,418.3,76.7L418.3,76.7z"/>
	<path class="st3" d="M274.5,184.8c-20.9-8,28.8-50.8,67-49.7c38.2,1.2,64.1,15.3,89.7,9.3C431.2,144.5,377.5,224.1,274.5,184.8
		L274.5,184.8z"/>
	<path class="st4" d="M175,289.3c0.2-15.2,20.5-43.5,20.5-43.5s0.9-0.4,1-0.4c0,0,1-0.1,1-0.1c0,0,3.1-3,3.2-3
		c0.7,2.7,7.5,40.9,9.1,63.2C190.7,301.7,174.9,296.5,175,289.3L175,289.3z M344.8,220.6c1.2-16.3,2-31.5,2.5-45.6
		c-3.9-2.1-8.6-4.5-12.4-6.3c-11.7-5.6-28-13-38.4-17.8c-6.1-2.8-12.1-4.9-12.1-4.9s-41.7-4-45.1-3.8c-1.1,0.1-6.3,1.9-13.1,4.5
		c-14.8,5.6-43.3,17-47.9,20.3c-6.7,4.8-30.5,121.6-31.1,129.5c-0.6,7.7,32.4,18.3,63,26.3c0,11.8-0.3,28.4-0.5,43.6
		c0,2.6-0.1,5.1-0.1,7.6h133.9c-0.2-2.6-0.3-5.2-0.5-7.6c0-0.3,0-0.6,0-1c-0.5-10.3-2.5-28.6-2-46.5c0,0-0.3-18.9,1.5-27
		C342.6,256.1,344.8,220.6,344.8,220.6L344.8,220.6z"/>
	<path class="st5" d="M347.3,366.4c-0.9-6.3-1.7-12.7-2.5-18.9c0,0,0-0.1,0-0.1c-0.2-2.1-0.5-4.1-0.7-6.1c0-0.1,0-0.2,0-0.3
		c-1-8.5-1.8-16.7-2.4-24.2c-0.4-5.7,0-11.4,0.7-16.9c2.3-38.4,3.5-78.8,3.5-78.8c1.2-16.6,1.9-32,2.4-46.4c0,0-52.4-24.8-57.1-26.2
		c0,0,9.9,23.3,17.4,75.5c2.9,20,8.2,53.8,12,88.2v0c2.1,18.6,6,37.5,9,54.2c0.5,2.6,0.9,5.1,1.3,7.6h17.5
		C348,371.5,347.6,368.9,347.3,366.4L347.3,366.4z"/>
	<path class="st5" d="M197,275.4c-0.5-17.5-0.4-29.6-0.4-29.6c1.7,6,4.1,23.1,6.2,40.1C195.7,282.3,197.1,279,197,275.4L197,275.4z
		 M260,304.8c2.1-19.4,3.9-38.7,3-49.4c-7.2-85.3-27.7-107.8-30.6-111.1c-2.3,0.9-11,4.2-13.6,5.2c-14,5.5-42.5,15.6-46.3,18.4
		c-6.7,4.8-32.9,127.3-33.7,135.2c-0.5,5.4,33.7,16.5,68.7,26.5c-0.3,9.6,0.6,23.1-2.6,37.2c-0.6,2.5-1.4,4.1-1.5,7.4l48.7-0.2
		c0.3-2.5,0.6-5,0.9-7.6c0.9-7.6,1.9-15.4,2.9-23.7c14.6,3.8,24.6,6.2,24.6,6.2s13.7-23.2,17.7-32.6
		C298.9,314.7,281.2,310.5,260,304.8L260,304.8z"/>
	<path class="st6" d="M237.1,143.5c0,0,5.3-10,3.8-38.5c-0.4-7.9,41.4,18.7,41.4,18.7s-0.1,2.7-0.2,6.4c0,1.5-0.1,3.2-0.1,4.9
		c0,0.5,0,0.9,0,1.4c0,0.8,0,1.5,0,2.3c0,1,0.1,1.9,0.1,2.8c0,1,0.1,2,0.2,2.9c0.2,1.7,1.2,4.8,1.5,5.6
		C285.9,154.4,252.8,154.7,237.1,143.5L237.1,143.5z"/>
	<path class="st7" d="M272.2,161.6l7.7,10.4c0,0-4.5,6-12.5,1.6L272.2,161.6L272.2,161.6z"/>
	<path class="st7" d="M277.8,172.4c0,0,28.3,69,22.2,156.6l-8.9,16.2l-10-13.8c0,0-1.6-116.4-9.6-159.3L277.8,172.4L277.8,172.4z"/>
	<path class="st6" d="M280.4,151.9l-8.3,9.7c0,0-13.3-2.6-17.1-9.5C251.1,145.2,280.4,151.9,280.4,151.9L280.4,151.9z"/>
	<path class="st8" d="M282.3,143.5c0,0-1,7.4-10.1,18.1l10,13.5l5.4-28L282.3,143.5L282.3,143.5z"/>
	<path class="st8" d="M239.6,134.6c0,0,19.2,21.7,32.6,27l-6.2,15.4l-30.6-33.7L239.6,134.6L239.6,134.6z"/>
	<path class="st5" d="M436.6,330.7c0,0-25.4-24.7-42.1-28.8c-7.7-1.9-17.9-12.5-27.5-25.1c-3.2-4.1-6.3-8.4-9.3-12.7c0,0,0,0,0,0
		c-11.8-17.1-21.1-33.5-21.1-33.5s-35-41-6.9-59.3c0,0,12-0.3,18.6,3.3c6.8,3.7,21.3,33.9,23.7,39.3c2.5,5.3,29.1,55.1,30.8,56.2
		c1.8,1.1,4.8,5.2,15.4,10.9c13,7,33.5,27.5,33.5,27.5L436.6,330.7L436.6,330.7z"/>
	<path class="st9" d="M314.5,359.2c0,0-3.6-0.1-5.1-1c0,0-2.7-1.7-4.6-2.8c-0.6-0.3-1.2-0.6-1.6-0.8c-1.6-0.6-5.2-1.5-8.5-4.1
		c-3.3-2.5-14.2-12.7-14.2-12.7l7-10.8l3.3-10.7c0,0,25.4,2.5,28.8,4.5c0.3,0.2,0.6,0.4,0.9,0.6c2.7,2,3.9,4.6,5.2,5.8
		c0.5,0.4,4.9,5.2,4.7,7.1c-0.3,2.7-1.7,4.4-3.3,5.2c0,0-0.9,5.2-3.6,7.5c0,0-0.7,4.8-4.8,6.8C318.6,353.8,317.4,358.7,314.5,359.2
		L314.5,359.2z"/>
	<path class="st10" d="M274,31.5c0,0,45.9-11.1,36.3,47.1c-9.7,58.2-20.7,62.9-48.7,51.3c-28-11.6-26-48.8-27.7-67
		C232.2,44.7,259.3,32.4,274,31.5L274,31.5z"/>
	<path class="st10" d="M249.9,71.8c-0.7-5.1-10.8-6.8-11.5,0.8c-0.7,7.7,4.9,21.1,8.7,19.7C250.9,91,250.8,78.8,249.9,71.8
		L249.9,71.8z"/>
	<path class="st11" d="M236.6,92.6c0,0,0.9-18.3,7.6-19c6.7-0.7,7.8,6.7,7.8,6.7l6.8,1.2c0,0-2.4-16,4.3-18.9
		c6.6-2.9,43.3,8.2,48.6,3.4c5.3-4.8,2.3-37.2-7.5-41.5c-9.7-4.3-36.6-13.9-56-0.3c0,0-15.3-1.5-17.4,10.8
		C228.7,47.3,232.3,83.5,236.6,92.6L236.6,92.6z"/>
	<path class="st5" d="M299.4,316.3l-19,32.6c0,0-50.3-12.9-62-16.3l26.8-31.9C245.3,300.8,284.8,309.8,299.4,316.3L299.4,316.3z"/>
	<path class="st12" d="M282.2,141.5L282.2,141.5c-24.6-2.5-34.2-21.5-34.2-21.5c15.5,15.4,34.1,14.9,34.1,14.9c0,0.5,0,0.9,0,1.4
		c0,0.8,0,1.5,0,2.3C282.1,139.7,282.1,140.6,282.2,141.5L282.2,141.5z"/>
	<path class="st10" d="M335.1,289.5c28.6,29.4,66.3,66.4,66.3,66.4l14.8-28c0,0-33.5-39.3-56.2-65.5
		C352.9,265.8,340.2,274,335.1,289.5L335.1,289.5z"/>
	<path class="st10" d="M317.5,329c0,0,7.7,3.7,9.7,5.4c2,1.7,10.1,7.7,12.1,9.2c2,1.4-3,5.5-17.5-0.8
		C307.2,336.5,317.5,329,317.5,329L317.5,329z"/>
	<polygon class="st13" points="318.1,244.9 304.7,369.5 481.1,369.5 494.5,244.9 318.1,244.9 	"/>
	<path class="st13" d="M314.9,362.4h175l13.3-123.2h-175L314.9,362.4L314.9,362.4z M491.2,363.7H313.4l13.5-126h177.8L491.2,363.7
		L491.2,363.7z"/>
	<polygon class="st13" points="290.7,358.3 320.1,358.3 320.1,369.5 290.7,369.5 290.7,358.3 	"/>
	<polygon class="st14" points="7.3,369.2 7.3,376.8 7.3,369.2 	"/>
	<polygon class="st14" points="14.6,369.2 14.6,376.8 7.3,376.8 7.3,369.2 14.6,369.2 	"/>
	<polygon class="st15" points="22,369.2 22,376.8 14.6,376.8 14.6,369.2 22,369.2 	"/>
	<polygon class="st16" points="29.4,369.2 29.4,376.8 22,376.8 22,369.2 29.4,369.2 	"/>
	<polygon class="st17" points="36.8,369.2 36.8,376.8 29.4,376.8 29.4,369.2 36.8,369.2 	"/>
	<polygon class="st18" points="44.1,369.2 44.1,376.8 36.8,376.8 36.8,369.2 44.1,369.2 	"/>
	<polygon class="st19" points="51.5,369.2 51.5,376.8 44.1,376.8 44.1,369.2 51.5,369.2 	"/>
	<polygon class="st20" points="58.9,369.2 58.9,376.8 51.5,376.8 51.5,369.2 58.9,369.2 	"/>
	<polygon class="st21" points="66.3,369.2 66.3,376.8 58.9,376.8 58.9,369.2 66.3,369.2 	"/>
	<polygon class="st22" points="73.6,369.2 73.6,376.8 66.3,376.8 66.3,369.2 73.6,369.2 	"/>
	<polygon class="st23" points="81,369.2 81,376.8 73.6,376.8 73.6,369.2 81,369.2 	"/>
	<polygon class="st24" points="88.4,369.2 88.4,376.8 81,376.8 81,369.2 88.4,369.2 	"/>
	<polygon class="st25" points="95.8,369.2 95.8,376.8 88.4,376.8 88.4,369.2 95.8,369.2 	"/>
	<polygon class="st26" points="103.1,369.2 103.1,376.8 95.8,376.8 95.8,369.2 103.1,369.2 	"/>
	<polygon class="st27" points="110.5,369.2 110.5,376.8 103.1,376.8 103.1,369.2 110.5,369.2 	"/>
	<polygon class="st28" points="117.9,369.2 117.9,376.8 110.5,376.8 110.5,369.2 117.9,369.2 	"/>
	<polygon class="st29" points="125.3,369.2 125.3,376.8 117.9,376.8 117.9,369.2 125.3,369.2 	"/>
	<polygon class="st30" points="132.6,369.2 132.6,376.8 125.3,376.8 125.3,369.2 132.6,369.2 	"/>
	<polygon class="st31" points="140,369.2 140,376.8 132.6,376.8 132.6,369.2 140,369.2 	"/>
	<polygon class="st32" points="147.4,369.2 147.4,376.8 140,376.8 140,369.2 147.4,369.2 	"/>
	<polygon class="st33" points="154.8,369.2 154.8,376.8 147.4,376.8 147.4,369.2 154.8,369.2 	"/>
	<polygon class="st34" points="162.1,369.2 162.1,376.8 154.8,376.8 154.8,369.2 162.1,369.2 	"/>
	<polygon class="st35" points="169.5,369.2 169.5,376.8 162.1,376.8 162.1,369.2 169.5,369.2 	"/>
	<polygon class="st36" points="176.9,369.2 176.9,376.8 169.5,376.8 169.5,369.2 176.9,369.2 	"/>
	<polygon class="st37" points="184.3,369.2 184.3,376.8 176.9,376.8 176.9,369.2 184.3,369.2 	"/>
	<polygon class="st38" points="191.6,369.2 191.6,376.8 184.3,376.8 184.3,369.2 191.6,369.2 	"/>
	<polygon class="st39" points="199,369.2 199,376.8 191.6,376.8 191.6,369.2 199,369.2 	"/>
	<polygon class="st40" points="206.4,369.2 206.4,376.8 199,376.8 199,369.2 206.4,369.2 	"/>
	<polygon class="st41" points="213.8,369.2 213.8,376.8 206.4,376.8 206.4,369.2 213.8,369.2 	"/>
	<polygon class="st42" points="221.1,369.2 221.1,376.8 213.8,376.8 213.8,369.2 221.1,369.2 	"/>
	<polygon class="st43" points="228.5,369.2 228.5,376.8 221.1,376.8 221.1,369.2 228.5,369.2 	"/>
	<polygon class="st44" points="235.9,369.2 235.9,376.8 228.5,376.8 228.5,369.2 235.9,369.2 	"/>
	<polygon class="st45" points="243.3,369.2 243.3,376.8 235.9,376.8 235.9,369.2 243.3,369.2 	"/>
	<polygon class="st46" points="250.6,369.2 250.6,376.8 243.3,376.8 243.3,369.2 250.6,369.2 	"/>
	<polygon class="st47" points="258,369.2 258,376.8 250.6,376.8 250.6,369.2 258,369.2 	"/>
	<polygon class="st48" points="265.4,369.2 265.4,376.8 258,376.8 258,369.2 265.4,369.2 	"/>
	<polygon class="st49" points="272.8,369.2 272.8,376.8 265.4,376.8 265.4,369.2 272.8,369.2 	"/>
	<polygon class="st50" points="280.1,369.2 280.1,376.8 272.8,376.8 272.8,369.2 280.1,369.2 	"/>
	<polygon class="st51" points="287.5,369.2 287.5,376.8 280.1,376.8 280.1,369.2 287.5,369.2 	"/>
	<polygon class="st52" points="294.9,369.2 294.9,376.8 287.5,376.8 287.5,369.2 294.9,369.2 	"/>
	<polygon class="st53" points="302.3,369.2 302.3,376.8 294.9,376.8 294.9,369.2 302.3,369.2 	"/>
	<polygon class="st54" points="309.6,369.2 309.6,376.8 302.3,376.8 302.3,369.2 309.6,369.2 	"/>
	<polygon class="st55" points="317,369.2 317,376.8 309.6,376.8 309.6,369.2 317,369.2 	"/>
	<polygon class="st56" points="324.4,369.2 324.4,376.8 317,376.8 317,369.2 324.4,369.2 	"/>
	<polygon class="st57" points="331.8,369.2 331.8,376.8 324.4,376.8 324.4,369.2 331.8,369.2 	"/>
	<polygon class="st58" points="339.1,369.2 339.1,376.8 331.8,376.8 331.8,369.2 339.1,369.2 	"/>
	<polygon class="st59" points="346.5,369.2 346.5,376.8 339.1,376.8 339.1,369.2 346.5,369.2 	"/>
	<polygon class="st60" points="353.9,369.2 353.9,376.8 346.5,376.8 346.5,369.2 353.9,369.2 	"/>
	<polygon class="st61" points="361.3,369.2 361.3,376.8 353.9,376.8 353.9,369.2 361.3,369.2 	"/>
	<polygon class="st62" points="368.6,369.2 368.6,376.8 361.3,376.8 361.3,369.2 368.6,369.2 	"/>
	<polygon class="st63" points="376,369.2 376,376.8 368.6,376.8 368.6,369.2 376,369.2 	"/>
	<polygon class="st64" points="383.4,369.2 383.4,376.8 376,376.8 376,369.2 383.4,369.2 	"/>
	<polygon class="st65" points="390.8,369.2 390.8,376.8 383.4,376.8 383.4,369.2 390.8,369.2 	"/>
	<polygon class="st66" points="398.1,369.2 398.1,376.8 390.8,376.8 390.8,369.2 398.1,369.2 	"/>
	<polygon class="st67" points="405.5,369.2 405.5,376.8 398.1,376.8 398.1,369.2 405.5,369.2 	"/>
	<polygon class="st68" points="412.9,369.2 412.9,376.8 405.5,376.8 405.5,369.2 412.9,369.2 	"/>
	<polygon class="st69" points="420.3,369.2 420.3,376.8 412.9,376.8 412.9,369.2 420.3,369.2 	"/>
	<polygon class="st70" points="427.6,369.2 427.6,376.8 420.3,376.8 420.3,369.2 427.6,369.2 	"/>
	<polygon class="st71" points="435,369.2 435,376.8 427.6,376.8 427.6,369.2 435,369.2 	"/>
	<polygon class="st72" points="442.4,369.2 442.4,376.8 435,376.8 435,369.2 442.4,369.2 	"/>
	<polygon class="st73" points="449.8,369.2 449.8,376.8 442.4,376.8 442.4,369.2 449.8,369.2 	"/>
	<polygon class="st74" points="457.1,369.2 457.1,376.8 449.8,376.8 449.8,369.2 457.1,369.2 	"/>
	<polygon class="st75" points="464.5,369.2 464.5,376.8 457.1,376.8 457.1,369.2 464.5,369.2 	"/>
	<polygon class="st76" points="471.9,369.2 471.9,376.8 464.5,376.8 464.5,369.2 471.9,369.2 	"/>
	<polygon class="st77" points="479.3,369.2 479.3,376.8 471.9,376.8 471.9,369.2 479.3,369.2 	"/>
	<polygon class="st78" points="486.6,369.2 486.6,376.8 479.3,376.8 479.3,369.2 486.6,369.2 	"/>
	<polygon class="st78" points="486.6,376.8 486.6,369.2 486.6,376.8 	"/>
	<path class="st79" d="M389.8,305.2c-1.4,6.9,1.8,13.5,7.2,14.6c5.4,1.1,10.9-3.6,12.4-10.6c1.4-6.9-1.8-13.5-7.2-14.6
		C396.8,293.5,391.2,298.3,389.8,305.2L389.8,305.2z"/>
	<path class="st13" d="M138.8,332.5H64.4c-5.5,0-10-4.5-10-10V205c0-5.5,4.5-10,10-10h74.4c5.5,0,10,4.5,10,10v117.5
		C148.7,328,144.3,332.5,138.8,332.5L138.8,332.5z"/>
	<polygon class="st80" points="138.7,283.8 133.8,283.8 133.8,321 138.7,321 138.7,283.8 	"/>
	<polygon class="st80" points="129.1,288 124.2,288 124.2,321 129.1,321 129.1,288 	"/>
	<polygon class="st80" points="118.6,293.4 113.7,293.4 113.7,321 118.6,321 118.6,293.4 	"/>
	<polygon class="st80" points="107.8,300.2 102.9,300.2 102.9,321 107.8,321 107.8,300.2 	"/>
	<polygon class="st80" points="73.8,295.8 72.7,295.4 81.9,269.6 101.9,264.3 109.1,235.9 124.5,229.1 128,207.1 129.1,207.2 
		125.5,229.9 110,236.7 102.8,265.2 82.8,270.5 73.8,295.8 	"/>
	<path class="st13" d="M104.7,262.9c1,1.3,0.9,3.2-0.4,4.2c-1.3,1-3.2,0.9-4.2-0.4c-1-1.3-0.9-3.2,0.4-4.2
		C101.7,261.4,103.6,261.6,104.7,262.9L104.7,262.9z"/>
	<path class="st80" d="M100.8,262.9c-1,0.9-1.2,2.4-0.3,3.4c0.9,1,2.4,1.2,3.4,0.3c1-0.9,1.2-2.4,0.3-3.4
		C103.4,262.2,101.9,262,100.8,262.9L100.8,262.9z M104.6,267.5c-1.5,1.2-3.8,1-5-0.5c-1.2-1.5-1-3.8,0.5-5c1.5-1.2,3.8-1,5,0.5
		C106.4,264,106.1,266.3,104.6,267.5L104.6,267.5z"/>
	<path class="st13" d="M112,234.6c1,1.3,0.9,3.2-0.4,4.2c-1.3,1-3.2,0.9-4.2-0.4c-1-1.3-0.9-3.2,0.4-4.2
		C109,233.1,110.9,233.3,112,234.6L112,234.6z"/>
	<path class="st80" d="M108.1,234.6c-1,0.8-1.2,2.4-0.3,3.4c0.9,1,2.4,1.2,3.4,0.3c1-0.9,1.2-2.4,0.3-3.4
		C110.7,233.9,109.1,233.8,108.1,234.6L108.1,234.6z M111.9,239.3c-1.5,1.2-3.8,1-5-0.5c-1.2-1.5-1-3.8,0.5-5c1.5-1.2,3.8-1,5,0.5
		C113.6,235.8,113.4,238,111.9,239.3L111.9,239.3z"/>
	<path class="st13" d="M127.1,227.6c1,1.3,0.9,3.2-0.4,4.2c-1.3,1-3.2,0.9-4.2-0.4c-1-1.3-0.9-3.2,0.4-4.2
		C124.2,226.1,126.1,226.3,127.1,227.6L127.1,227.6z"/>
	<path class="st80" d="M123.3,227.6c-1,0.9-1.2,2.4-0.3,3.4c0.8,1,2.4,1.2,3.4,0.3c1-0.8,1.2-2.4,0.3-3.4
		C125.9,226.9,124.3,226.8,123.3,227.6L123.3,227.6z M127.1,232.3c-1.5,1.2-3.8,1-5-0.5c-1.2-1.5-1-3.8,0.5-5c1.5-1.2,3.8-1,5,0.5
		C128.8,228.8,128.6,231,127.1,232.3L127.1,232.3z"/>
	<path class="st13" d="M84.8,268.4c1,1.3,0.9,3.2-0.4,4.2c-1.3,1-3.2,0.9-4.2-0.4c-1-1.3-0.9-3.2,0.4-4.2
		C81.8,266.9,83.7,267.1,84.8,268.4L84.8,268.4z"/>
	<path class="st80" d="M80.9,268.4c-1,0.8-1.2,2.4-0.3,3.4c0.8,1,2.4,1.2,3.4,0.3c1-0.9,1.2-2.4,0.3-3.4
		C83.5,267.7,82,267.6,80.9,268.4L80.9,268.4z M84.7,273.1c-1.5,1.2-3.8,1-5-0.5c-1.2-1.5-1-3.8,0.5-5c1.5-1.2,3.8-1,5,0.5
		C86.5,269.6,86.2,271.8,84.7,273.1L84.7,273.1z"/>
	<path class="st81" d="M92.3,240.3H66.6c-1.2,0-2.2-1-2.2-2.2v-1.9c0-1.2,1-2.2,2.2-2.2h25.7c1.2,0,2.2,1,2.2,2.2v1.9
		C94.5,239.3,93.5,240.3,92.3,240.3L92.3,240.3z"/>
	<path class="st81" d="M92.3,229.4H66.6c-1.2,0-2.2-1-2.2-2.2v-1.9c0-1.2,1-2.2,2.2-2.2h25.7c1.2,0,2.2,1,2.2,2.2v1.9
		C94.5,228.4,93.5,229.4,92.3,229.4L92.3,229.4z"/>
	<path class="st11" d="M42.9,245.3c0,0-0.9,8.6,0.7,10.7c0,0-4.2-0.9-5.2-2.4C37.5,252.2,42.9,245.3,42.9,245.3L42.9,245.3z"/>
	<path class="st10" d="M69.1,272.7c0,0,1.5-1,1.8-1.2c0.2-0.1,1-0.1,1.9,0c0.9,0.1,2.1,0.7,2.1,0.8c0.1,0.1,0.2,0.2,0.2,0.6
		c-0.1,0.4-0.3,0.7-0.3,0.7s0.2,0.5-0.2,0.9c0,0,0.1,0.5-0.3,0.8c0,0,0.1,0.5-0.2,0.7c0,0-0.8,0-1.1,0.1c-0.3,0.1-1.9-0.1-3.5-0.5
		C69.4,275.6,67.7,275.2,69.1,272.7L69.1,272.7z"/>
	<path class="st82" d="M71.7,273.4c0,0-0.5,0.8-0.7,1c-0.2,0.2,1.2,1.7,1.2,1.7S72.7,274,71.7,273.4L71.7,273.4z"/>
	<path class="st10" d="M68.2,272.8c0,0,1-0.1,1.6-0.4c0.6-0.3-0.1,3-0.1,3s-1.4-1-2.4-1C66.3,274.4,68.2,272.8,68.2,272.8
		L68.2,272.8z"/>
	<path class="st83" d="M28.5,359.6c0,0,3,4.4,4,5.3c0,0,2.1,1.1,2.2,2c0.1,1.6,0.2,2.6-2.5,2.7c-2.8,0.1-4.5,0-5-1.7
		c-0.5-1.7-1.4-3-1.4-3l-0.2,4.3H25c0,0-0.3-4.3-0.3-5c0-0.6-0.4-3,0.9-4.1C26.8,359.2,28.5,359.6,28.5,359.6L28.5,359.6z"/>
	<path class="st83" d="M32.9,365.1c0,0-1.5,0.4-3.3,0c-1.8-0.4-3.5-4.7-4-5l-0.5-1.7h3.4c0,0,0,1.3,0.6,2.3
		C29.8,361.8,32.9,365.1,32.9,365.1L32.9,365.1z"/>
	<path class="st83" d="M48,358c0,0,0.4,1.1,1.3,2.2c0.6,0.8,2.6,4.1,3.4,4.4c0.9,0.2,3.5,0.7,3.7,2.2c0.2,1.5,0.3,2.5-2.2,2.6
		c-2.6,0.1-4.3,0.3-5.5-1.5c-1.2-1.8-3.2-3.1-3.2-3.1v4.7h-1c0,0-0.5-4.9-0.7-5.3c-0.3-0.4-1-4.1,1.4-6.1C47.5,356,48,358,48,358
		L48,358z"/>
	<path class="st83" d="M52.7,364.5c0,0-2.3,0.6-3.2,0c-0.9-0.6-3.9-5.7-4.9-6c0,0,1-2,3.4-0.5C48,358,52,363.7,52.7,364.5
		L52.7,364.5z"/>
	<path class="st84" d="M27.2,286.8c0,0-3.3,4.3-4.2,9.3c-0.9,5.1,0.5,22,0.5,24.5c0,2.5-2.2,10.3-1.7,15c0.5,4.7,2.9,24.3,2.9,24.3
		l5.7-0.1c0,0-1.1-21.2-0.8-23.2c0.3-2,1.2-10.4,1.3-11.2c0.1-0.8,6.5-22.3,6.5-26C37.3,295.9,35.1,280.9,27.2,286.8L27.2,286.8z"/>
	<path class="st84" d="M43.6,288.5c0,0,5.4,20.5,6,23.4c0.6,2.8,1.9,6.6,1.9,7.1c-0.1,0.5-0.7,9.3-0.7,9.3l-1.5,29.9h-5.7
		c0,0-1.8-19-2.1-22.8c-0.3-3.8,2.1-9.8,1.5-11.4c-0.6-1.6-9.4-20.4-9.4-20.4S27,282.5,43.6,288.5L43.6,288.5z"/>
	<path class="st85" d="M42,257.8c0,0,2.2,0.2,3.8,1.9c1.6,1.7,3.2,4.5,3.6,5.5c0.4,0.9,6.4,9.5,6.7,9.7c0.3,0.2,2.9-0.5,5-0.7
		c3.4-0.3,8.5-2,8.5-2l0.8,3.9c0,0-12.6,4-15.5,3.3c-3.5-0.9-11.7-11.3-11.7-11.3S37.1,260.9,42,257.8L42,257.8z"/>
	<path class="st85" d="M38.2,256.2c0,0,2.8,1.3,3.8,1.5c1,0.2,4.7,5.1,5.4,6.9c0.7,1.8,0,4.5-1.4,7.6c-1.4,3.1-0.1,4.2-0.7,7.3
		c-0.6,3.1-0.6,11.7-0.5,13.4c0.1,1.7-17.9,5-21.5,1.9c0,0,2.4-8,5.3-11.1c0.6-0.7,0.6-5,0.1-6.1c-0.4-1.1-5.2-9.2-5.2-9.2
		s-0.4-8.2,1.7-9.8c1.8-1.4,6.8-1.9,7.7-2.2C33.8,256.1,36.4,256,38.2,256.2L38.2,256.2z"/>
	<path class="st86" d="M39.1,262.5l1.7-2l-1.5-5.2C39.3,255.3,38.8,258.2,39.1,262.5L39.1,262.5z"/>
	<path class="st10" d="M28.5,257.8c0,0-3.5-1-5.5,2.9c-2,3.9-1.5,6-2,7.7c-0.5,1.7-2.3,13.4-2.4,13.9c-0.1,0.5-1.9,6.4-1.7,8.2
		c0.2,1.8,1.9,15.6,1.8,16.1c-0.1,0.5,3.2-0.4,3.2-0.4s-0.1-14.1,0-15.2c0.1-1.2,0.2-7.3,1.1-8.8c0.9-1.6,3-11.2,3.5-12.1
		C27,268.9,31.5,259,28.5,257.8L28.5,257.8z"/>
	<path class="st10" d="M39.6,253c0,0-0.6,5.1-0.4,6.8c0,0-2.9,2.9-6.2-3.4c0,0,1.4-2.6,0.3-6.1C32.2,246.8,39.6,253,39.6,253
		L39.6,253z"/>
	<polygon class="st10" points="39.1,259.8 39.1,262.5 36,259.7 39.1,259.8 	"/>
	<polygon class="st86" points="39.1,262.5 37.7,260.8 33.1,256.1 31.3,256.9 39.1,262.5 	"/>
	<polygon class="st87" points="40.8,260.5 42.9,261.1 39.3,255.3 40.8,260.5 	"/>
	<polygon class="st87" points="37.7,260.8 35.8,263.9 31.2,256.8 33.2,255.8 37.7,260.8 	"/>
	<path class="st86" d="M47.7,273.4c0,0,0.7-4.6,0-7.5c0,0-0.4,2.3-1.4,5.8L47.7,273.4L47.7,273.4z"/>
	<path class="st86" d="M26,272.7c0,0,1.9-6.4,2-6.7c0,0-0.1,5.9-0.9,8.8C27.2,274.8,26.5,273.5,26,272.7L26,272.7z"/>
	<polygon class="st88" points="97.8,240.8 67.5,279 68.5,279.8 97.8,240.8 	"/>
	<path class="st89" d="M74.7,272.3c0,0-2.3-0.2-2.4,0.1c-0.1,0.4,0.1,0.5,0.1,0.5l-1,0.3c0,0-0.5,0.6,0.3,1c0,0-0.5,0.5,0.3,0.8
		c0,0-0.2,0.5,0.1,0.7C72.5,276,74,276,74,276s0.3-0.1,0.2-0.7c0,0,0.5-0.3,0.3-0.8c0,0,0.3-0.3,0.2-0.9c0,0,0.7-0.7,0.2-1.3
		C74.9,272.3,74.8,272.3,74.7,272.3L74.7,272.3z"/>
	<path class="st10" d="M71,271.5c0,0,1.3,0.8,1.8,1.6c0.1,0.2,0.2,0.4,0.1,0.5c-0.1,0.2-0.5,0.2-1.1-0.1c-0.6-0.3-1.5-0.5-1.5-0.5
		S69.7,272.6,71,271.5L71,271.5z"/>
	<path class="st10" d="M37.2,235.6c0,0,5.1-0.1,6.1,5.9c0.9,6.1-1.2,11.4-2.1,12.3c-0.9,0.9-6,0.2-7.2-2.9c-1.2-3.2-3-5.5-2.7-8.2
		C31.5,240,30.9,235.5,37.2,235.6L37.2,235.6z"/>
	<path class="st11" d="M43.5,243.9c0,0,1.4-7.6-5.4-8.9c-6.8-1.4-9.2,3.3-9.9,6.1c-0.7,2.8,0.1,10.6,0.1,10.6s4.5,4,7.3,5
		c0,0-2.3-8.3-1.4-14.3c0,0,5.5,0.9,9.2,0C43.4,242.3,43.5,243.5,43.5,243.9L43.5,243.9z"/>
	<path class="st12" d="M39.4,254.2c0,0-1.8,0-4.2-1.6c0,0,1.7,2.1,4.1,2.9C39.3,255.5,39.5,254.4,39.4,254.2L39.4,254.2z"/>
	<polygon class="st90" points="31.7,308 11.9,311.2 9.5,296.6 29.3,293.3 31.7,308 	"/>
	<path class="st10" d="M18,311c0,0-0.3-0.5-0.3-0.8c0,0,0-0.5,0-0.9c0-0.1,0-0.2,0-0.3c-0.1-0.3-0.3-0.9-0.2-1.6c0-0.7,1-3.7,1-3.7
		l1.8,0.1l1.7-0.2c0,0,2,3.8,2,4.5c0,0.1,0,0.1,0,0.2c0,0.6-0.3,1-0.3,1.3c0,0.1-0.3,1.2-0.5,1.3c-0.4,0.2-0.8,0.2-1,0
		c0,0-0.8,0.4-1.4,0.2c0,0-0.7,0.4-1.4,0C19.1,311,18.4,311.3,18,311L18,311z"/>
	<path class="st85" d="M28.5,257.8c0,0-3.5-1-5.5,2.9c-2,3.9-2,5.5-2.3,7.4c-0.3,1.8-2.7,12.4-2.8,12.9c-0.1,0.5-0.9,7.1-1,9.5
		c0,1.8,0.4,13.9,0.3,14.3c-0.1,0.5,5.6-0.8,5.6-0.8s-0.6-11.1-0.5-12.3c0.1-1.2,0.4-7,0.9-8.7c0.7-2,3.3-12.1,3.8-13.1
		C27.4,269,31.5,259,28.5,257.8L28.5,257.8z"/>
	<path class="st91" d="M210.1,362l0.4-3.4c0,0-4.8,0-5.4,0.4c0,0,0.4,2.9,0.5,3.3C205.7,362.7,210.1,362,210.1,362L210.1,362z"/>
	<path class="st92" d="M202,369.2c5.7,0,8.5,0.3,9.1-0.6c0.6-0.9-0.9-6.8-0.9-6.8s-1.4,0.5-4.6,0.2c0,0-1.4,1.7-2.8,2.5
		c-1.4,0.7-3.5,1-4.4,1.8C197.8,366.8,196.3,369.2,202,369.2L202,369.2z"/>
	<path class="st91" d="M178,362l0.4-3.4c0,0-4.8,0-5.4,0.4c0,0,0.4,2.9,0.5,3.3C173.5,362.7,178,362,178,362L178,362z"/>
	<path class="st92" d="M169.8,369.2c5.7-0.1,8.5,0.3,9.1-0.6c0.6-0.9-0.9-6.8-0.9-6.8s-1.3,0.5-4.6,0.2c0,0-1.4,1.7-2.8,2.5
		c-1.4,0.7-6.4,1.4-7.3,2.1C162.8,367.1,161.8,369.4,169.8,369.2L169.8,369.2z"/>
	<path class="st4" d="M203.5,285.2c0,0,2.4,7.1,2.1,13.2c-0.3,6.1,1.2,12.8,1.9,19.2c0.7,7.1,3.6,24,3.7,27.8c0.1,3.8-0.4,16-0.4,16
		l-5.8,0.1c0,0-4.9-29.5-6.1-32.5c-1.3-3-7.5-24.5-7.7-26.9C190.9,299.7,203.5,285.2,203.5,285.2L203.5,285.2z"/>
	<path class="st4" d="M179.2,286.4c0,0-3.2,16.8-3.6,20.5c-0.4,3.7-0.7,18.1-0.9,20.5c-0.2,2.3-1.4,30.6-2.5,34.1h7.4
		c0,0,5.7-20.6,5.7-30.3s4.4-21.1,7.2-27.6c2.8-6.4,9.3-6.6,11.1-18.5C203.5,285.2,181.6,282.7,179.2,286.4L179.2,286.4z"/>
	<path class="st10" d="M194.3,229.2c0,0-5.8-2.2-8.5,2.3c-2.7,4.4-2.4,13.3,0.5,14.4c2.9,1.1,7.4,0.5,8.9-2.3
		c1.5-2.8,2.9-6.8,2.8-9.5C197.8,231.4,195.8,229.9,194.3,229.2L194.3,229.2z"/>
	<path class="st10" d="M187.2,245.6c0,0,0.2,1.5-0.2,2.3c-0.4,0.8,7.3,0.8,7.3,0.8s0.6-4.1,1.8-7.6
		C197.4,237.6,187.2,245.6,187.2,245.6L187.2,245.6z"/>
	<path class="st93" d="M196.2,241.1c0,0-0.5,0.9-2.7,0.5c-2.2-0.3-4.8-3.2-5.7-3.6c-0.9-0.3-0.9-0.9-0.9-0.9l-0.6,0.8l-1,0.1
		c0,0,0.9-2.6-0.4-3.6c-1.3-1.1,1.4-8.4,8.4-5.9c0,0,5,1,5.3,4C198.9,235.8,197.4,239.5,196.2,241.1L196.2,241.1z"/>
	<path class="st94" d="M186.6,247.7c0,0,0-1.4,0.7-1.6c0.7-0.1,7.2-0.8,8-0.5v1.7C195.3,247.4,193.7,248.3,186.6,247.7L186.6,247.7z
		"/>
	<path class="st10" d="M187,236.1c0.1-0.5,1.4-2,1.9-0.4c0.5,1.6-0.8,3.7-1.5,3.5C186.8,239,186.7,237.4,187,236.1L187,236.1z"/>
	<path class="st64" d="M186.6,247.7c0,0-3.6,1.3-7.7,3.1c0,0-4.8,1.8-5.3,7.1c-0.3,2.8-3.3,17.7-3.8,18.9
		c-0.6,1.3-7.2,21.5-7.4,21.9c-0.2,0.4,5.4,2.8,5.8,2.6c0.4-0.2,6.4-18.4,7-19.8c0,0,3.5-10.9,3.6-12.6c0,0,0.1,4.7,0.3,6
		c0.2,1.3-3.1,26.7-3,27.3c0.1,0.7,14.9,1.6,20.8,0.9c5.9-0.7,10.7-2,10.7-2s-4.7-20-4.5-22.2c0.3-4.8,1.9-13.9,1.9-13.9l4.8,9.1
		l-6.2,15.9l1.4,4.8c0,0,11.5-17.4,11.9-18.9c0.4-1.6-0.6-3.6-1.2-4.9c-0.6-1.3-4.6-11.2-5.5-12.6c-0.9-1.4-2.5-7-6.3-8.6
		c-3.2-1.3-8.5-2.4-8.5-2.4L186.6,247.7L186.6,247.7z"/>
	<polygon class="st95" points="178.7,307.9 151.7,300.9 156.5,282.1 183.6,289 178.7,307.9 	"/>
	<path class="st96" d="M160,302.8c0,0-0.8,1.2-1.1,1.6c-0.3,0.4,0.7,0.6,1.1,0.2C160.5,304.3,160,302.8,160,302.8L160,302.8z"/>
	<path class="st97" d="M165.6,307.1c0,0,0.5-0.5,0.6-0.8c0,0,0.1-0.6,0.3-1c0-0.1,0.1-0.2,0.1-0.3c0.1-0.3,0.5-0.9,0.6-1.6
		c0.1-0.8,0.5-4.2,0.5-4.2l-2.1-0.5l-1.7-0.4c0,0-3.6,3.6-3.8,4.3c0,0.1,0,0.1,0,0.2c-0.1,0.6,0.1,1.1,0.1,1.4c0,0.1,0,1.3,0.3,1.5
		c0.4,0.3,0.8,0.4,1.1,0.3c0,0,0.8,0.6,1.4,0.5c0,0,0.7,0.6,1.5,0.3C164.4,306.9,165.2,307.4,165.6,307.1L165.6,307.1z"/>
	<path class="st64" d="M173.8,285.2c0,0-4.8,14.5-5.7,16.1c0,0-3.5-0.7-5.8-2.6l5.3-15.7L173.8,285.2L173.8,285.2z"/>
	<polygon class="st98" points="104.4,52.4 150.2,26.8 134.4,25.8 104.4,52.4 	"/>
	<polygon class="st99" points="104.4,52.4 118.5,29.8 130.3,29.5 104.4,52.4 	"/>
	<polygon class="st100" points="139.6,32.7 140.5,38.5 104.4,52.4 139.6,32.7 	"/>
</g>
</svg>
