<?xml version="1.0" encoding="utf-8"?>
<!-- Generator: Adobe Illustrator 24.1.0, SVG Export Plug-In . SVG Version: 6.00 Build 0)  -->
<svg version="1.1" id="Layer_1" xmlns="http://www.w3.org/2000/svg" xmlns:xlink="http://www.w3.org/1999/xlink" x="0px" y="0px"
	 viewBox="0 0 238.9 340.9" style="enable-background:new 0 0 238.9 340.9;" xml:space="preserve">
<style type="text/css">
	.st0{fill:#E40428;stroke:#000000;stroke-miterlimit:10;}
	.st1{fill:#F8E700;stroke:#000000;stroke-miterlimit:10;}
	.st2{fill:#F9E800;stroke:#000000;stroke-miterlimit:10;}
	.st3{fill:#00793B;stroke:#000000;stroke-miterlimit:10;}
	.st4{fill:#FFFFFF;stroke:#FFFFFF;stroke-width:0.5;stroke-miterlimit:10;}
	.st5{fill:#FFFFFF;stroke:#010202;stroke-miterlimit:10;}
	.st6{fill:#292A60;stroke:#292B60;stroke-width:1.5;stroke-miterlimit:10;}
	.st7{fill:#292B60;stroke:#292B60;stroke-width:2;stroke-miterlimit:10;}
</style>
<g>
	<g>
		<g>
			<path class="st0" d="M208.5,293c0,0,18.9-7.6,25.1-28.6c0,0,8.8,16.8-9.6,39.2c0,0,10.7,0.4,13.8,12.8c0,0-9.7-2.9-14,7.3
				c-4.3,10.2-22.1,19.5-29.4,10.9c-4.7-5.5,12.3-22.1,12.3-22.1L208.5,293z"/>
			<path class="st0" d="M199.7,320.2c-4,5.1-7.9,11.3-5.3,14.3c0.1,0.1,0.2,0.2,0.3,0.4c1.3-3.1,3.5-5.5,7.1-6.3
				c14.5-3.4,16-8.6,16-8.6C213.9,314.1,206,316.7,199.7,320.2z"/>
		</g>
		<g>
			<path class="st0" d="M30.9,293c0,0-18.9-7.6-25.1-28.6c0,0-8.8,16.8,9.6,39.2c0,0-10.7,0.4-13.8,12.8c0,0,9.7-2.9,14,7.3
				c4.3,10.2,22.1,19.5,29.4,10.9c4.7-5.5-12.3-22.1-12.3-22.1L30.9,293z"/>
			<path class="st0" d="M39.7,320.2c4,5.1,7.9,11.3,5.3,14.3c-0.1,0.1-0.2,0.2-0.3,0.4c-1.3-3.1-3.5-5.5-7.1-6.3
				c-14.5-3.4-16-8.6-16-8.6C25.5,314.1,33.4,316.7,39.7,320.2z"/>
		</g>
		<path class="st0" d="M217.8,319.7c0,0-6.8-2.9-23,4.9c-12.7,6.1-32,12.1-59.2,14.1c-5,0.4-10.4,0.6-16,0.7h-0.1
			c-5.6-0.1-10.8-0.3-15.8-0.7c-27.2-2-46.4-8-59.2-14.1c-16.1-7.7-23-4.9-23-4.9s-2-9.3,4.2-21c7.1-13.5,7.1-10.6,34.1,0
			c16.5,6.5,37.9,8.3,52.2,8.7c2.8,0.1,5.4,0.1,7.6,0.1h0.2c2.2,0,4.8,0,7.6-0.1c14.3-0.4,35.7-2.2,52.2-8.7
			c27-10.6,26.9-13.5,34.1,0C219.8,310.4,217.8,319.7,217.8,319.7z"/>
	</g>
	<g>
		<g>
			<polygon class="st1" points="122.3,223.7 122.4,225.5 120,224.6 117.6,225.5 117.7,223.7 88.6,212.7 93.8,202 99.8,194.3 
				140.2,194.3 146.2,202 151.4,212.7 			"/>
			<rect x="99.8" y="191.6" class="st1" width="40.4" height="2.7"/>
		</g>
		<g>
			<path class="st1" d="M130.4,199.3c-1.7-0.6-2.2-1.9-2.3-2.2l0,0c0,0,0-0.1,0-0.1l0,0l0,0c0,0,0,0,0,0.1l0,0
				c-0.1,0.3-0.6,1.6-2.3,2.2c-10.5,3.3-3.1,10.9-3.1,10.9h0.7h9.5h0.7C133.4,210.3,140.9,202.6,130.4,199.3z"/>
			<path class="st1" d="M114.5,199.3c-1.7-0.6-2.2-1.9-2.3-2.2l0,0c0,0,0-0.1,0-0.1l0,0l0,0c0,0,0,0,0,0.1l0,0
				c-0.1,0.3-0.6,1.6-2.3,2.2c-10.5,3.3-3.1,10.9-3.1,10.9h0.7h9.5h0.7C117.5,210.3,125,202.6,114.5,199.3z"/>
			<path class="st1" d="M149.6,210.3c0,0,3.4-3.6-0.8-7.9c-2.4-2.5,1-5.3,1-5.3s-5.8-0.7-8.4,6.6c-2.6,7.3-2.6,6.6-2.6,6.6H149.6z"
				/>
			<path class="st1" d="M90.2,210.3c0,0-3.4-3.6,0.8-7.9c2.4-2.5-1-5.3-1-5.3s5.8-0.7,8.4,6.6c2.6,7.3,2.6,6.6,2.6,6.6H90.2z"/>
			<path class="st1" d="M138.3,199.3c-1.7-0.6-2.2-1.9-2.3-2.2l0,0c0,0,0-0.1,0-0.1l0,0l0,0c0,0,0,0,0,0.1l0,0
				c-0.1,0.3-0.6,1.6-2.3,2.2c-10.5,3.3-3.1,10.9-3.1,10.9h0.7h9.5h0.7C141.4,210.3,148.9,202.6,138.3,199.3z"/>
			<path class="st1" d="M122.4,199.3c-1.7-0.6-2.2-1.9-2.3-2.2l0,0c0,0,0-0.1,0-0.1l0,0l0,0c0,0,0,0,0,0.1l0,0
				c-0.1,0.3-0.6,1.6-2.3,2.2c-10.5,3.3-3.1,10.9-3.1,10.9h0.7h9.5h0.7C125.5,210.3,132.9,202.6,122.4,199.3z"/>
			<path class="st1" d="M106.5,199.3c-1.7-0.6-2.2-1.9-2.3-2.2l0,0c0,0,0-0.1,0-0.1l0,0l0,0c0,0,0,0,0,0.1l0,0
				c-0.1,0.3-0.6,1.6-2.3,2.2c-10.5,3.3-3.1,10.9-3.1,10.9h0.7h9.5h0.7C109.6,210.3,117,202.6,106.5,199.3z"/>
		</g>
		<rect x="103.9" y="184.2" class="st1" width="32.2" height="2.3"/>
		<path class="st1" d="M145.3,183.5c0,0-0.7,3-5.8,3c-3.7,0-14.1,0-19.5,0.1c-5.4,0-15.8-0.1-19.5-0.1c-5.1,0-5.8-3-5.8-3
			c-0.9,8.1,5.1,8.1,5.1,8.1h17.3h5.8h17.3C140.2,191.6,146.2,191.6,145.3,183.5z"/>
		<path class="st1" d="M138.3,177.1c-1.3,4.1-5.3,3.8-5.3,3.8l-13,0.1l-13-0.1c0,0-4,0.3-5.3-3.8c0,0-0.8,5.2,2.2,7.1h10.7h10.8
			h10.7C139,182.3,138.3,177.1,138.3,177.1z"/>
		<rect x="107" y="178.3" class="st1" width="26" height="2.7"/>
		<rect x="109" y="175.3" class="st1" width="22" height="3"/>
		<g>
			<path class="st1" d="M134.3,158h-28.6c-0.1-5.2,0.1-16,3.4-22.7c4.4-9,6.1-16.7,6.5-26.2c0.3-7.6-0.9-14.3-1.4-16.7
				c0.5,0.7,1.1,1.3,1.8,1.7c1.1,0.8,2.5,1.2,3.9,1.2c1.5,0,2.8-0.5,3.9-1.2c0.8-0.5,1.5-1.2,2-2c-0.4,2-1.7,9-1.4,17
				c0.3,9.5,2.1,17.2,6.5,26.2C134.2,142,134.4,152.8,134.3,158z"/>
			<path class="st1" d="M123.9,94.2c-0.4-1.3-1.4-2.3-2.7-2.7c-0.4-0.1-0.8-0.2-1.2-0.2s-0.8,0.1-1.2,0.2c-1.3,0.4-2.3,1.4-2.7,2.7
				c1.1,0.8,2.5,1.2,3.9,1.2C121.4,95.4,122.7,95,123.9,94.2z"/>
			<path class="st1" d="M121.2,91.5c3.4-6.8-1-17.6-1.2-18l0,0l0,0c-0.2,0.5-4.6,11.2-1.2,18c0.4-0.1,0.8-0.2,1.2-0.2
				S120.8,91.4,121.2,91.5z"/>
			<polygon class="st1" points="136.2,158 133.6,175.3 106.4,175.3 103.8,158 			"/>
		</g>
	</g>
	<g>
		<path class="st2" d="M179.9,200.7l-47.7-90.8l-1.7-3.2l1.4,3.5l36.9,95.8c0,0,3,11.3,14.4,17.4c0.1,0,0.1,0.1,0.2,0.1
			c0-0.2,0.1-0.3,0.1-0.5C186.4,210.4,179.9,200.7,179.9,200.7z"/>
		<path class="st2" d="M115.9,21.4l4,41.9l0.1,1.8l0.1-1.9l3.9-42c0,0,1.7-11-3.9-19.8c0,0,0-0.1-0.1-0.1c0,0.1-0.1,0.1-0.1,0.2
			C114.3,8.5,115.9,21.4,115.9,21.4z"/>
		<path class="st2" d="M98.2,44.9l12.6,24.9l0.5,1l-0.4-1.2l-7.2-27.5c0,0-0.9-5.5-6.9-9.4c0,0,0,0-0.1,0c0,0,0,0.1,0,0.1
			C94.9,38.3,98.2,44.9,98.2,44.9z"/>
		<path class="st2" d="M141.8,44.9l-12.6,24.9l-0.5,1l0.4-1.2l7.2-27.5c0,0,0.9-5.5,6.9-9.4c0,0,0,0,0.1,0c0,0,0,0.1,0,0.1
			C145,38.3,141.8,44.9,141.8,44.9z"/>
		<path class="st2" d="M175.9,152l-34.6-40.2l-1.2-1.4l1.1,1.6l28.1,44.5c0,0,3.3,5,9.9,6.8c0,0,0.1,0,0.1,0c0-0.1,0-0.2,0-0.2
			C179.7,156.5,175.9,152,175.9,152z"/>
		<path class="st2" d="M171.6,122.1l-35.3-24.1l-1.2-0.9l1.2,1l31.1,28.8c0,0,3.6,3.2,9.1,3.2c0,0,0.1,0,0.1,0c0-0.1,0-0.1,0-0.2
			C175.5,124.7,171.6,122.1,171.6,122.1z"/>
		<path class="st2" d="M68.1,122.1l35.3-24.1l1.2-0.9l-1.2,1l-31.1,28.8c0,0-3.6,3.2-9.1,3.2c0,0-0.1,0-0.1,0c0-0.1,0-0.1,0-0.2
			C64.2,124.7,68.1,122.1,68.1,122.1z"/>
		<path class="st2" d="M78.3,97.1l24.5-5.5l1-0.3l-1,0.4l-21.5,10.5c0,0-5.3,2.4-10.7,0.8c0,0,0,0-0.1,0c0,0,0.1-0.1,0.1-0.1
			C72.3,98.4,78.3,97.1,78.3,97.1z"/>
		<path class="st2" d="M162,97.1l-24.5-5.5l-1-0.3l1,0.4l21.5,10.5c0,0,5.3,2.4,10.7,0.8c0,0,0,0,0.1,0c0,0-0.1-0.1-0.1-0.1
			C168,98.4,162,97.1,162,97.1z"/>
		<path class="st2" d="M155.6,75.3l-20.5,10.4l-0.8,0.4l0.9-0.3l21.4-5.4c0,0,5.2-1.4,7.9-5.6c0,0,0,0,0,0c0,0-0.1,0-0.1,0
			C160.6,72.7,155.6,75.3,155.6,75.3z"/>
		<path class="st2" d="M147.2,57.7l-13.4,21.5l-0.6,0.8l0.7-0.8L151,62c0,0,4.1-4.3,4.3-9.8c0,0,0,0,0-0.1c0,0-0.1,0-0.1,0
			C150.4,52.4,147.2,57.7,147.2,57.7z"/>
		<path class="st2" d="M92.9,57.7l13.4,21.5l0.6,0.8l-0.7-0.8L89,62c0,0-4.1-4.3-4.3-9.8c0,0,0,0,0-0.1c0,0,0.1,0,0.1,0
			C89.6,52.4,92.9,57.7,92.9,57.7z"/>
		<path class="st2" d="M84.3,75.3l20.5,10.4l0.8,0.4l-0.9-0.3l-21.4-5.4c0,0-5.2-1.4-7.9-5.6c0,0,0,0,0,0c0,0,0.1,0,0.1,0
			C79.3,72.7,84.3,75.3,84.3,75.3z"/>
		<path class="st2" d="M63.6,152l34.6-40.2l1.2-1.4l-1.1,1.6l-28.1,44.5c0,0-3.3,5-9.9,6.8c0,0-0.1,0-0.1,0c0-0.1,0-0.2,0-0.2
			C59.8,156.5,63.6,152,63.6,152z"/>
		<path class="st2" d="M59.8,200.7l47.7-90.8l1.7-3.2l-1.4,3.5L71,206c0,0-3,11.3-14.4,17.4c-0.1,0-0.1,0.1-0.2,0.1
			c0-0.2-0.1-0.3-0.1-0.5C53.3,210.4,59.8,200.7,59.8,200.7z"/>
	</g>
	<g>
		
			<ellipse transform="matrix(0.1581 -0.9874 0.9874 0.1581 -96.6539 420.5315)" class="st3" cx="198.3" cy="266.9" rx="21.4" ry="5.9"/>
		
			<ellipse transform="matrix(0.6839 -0.7295 0.7295 0.6839 -126.5692 244.6309)" class="st3" cx="219" cy="268.4" rx="22.4" ry="5.9"/>
		
			<ellipse transform="matrix(0.4126 -0.9109 0.9109 0.4126 -85.2341 346.6524)" class="st3" cx="226.2" cy="239.4" rx="20.7" ry="5.9"/>
		
			<ellipse transform="matrix(0.1366 -0.9906 0.9906 0.1366 -12.0416 402.8759)" class="st3" cx="225.1" cy="208.3" rx="21.9" ry="4.9"/>
		
			<ellipse transform="matrix(0.9759 -0.2182 0.2182 0.9759 -48.1073 51.3243)" class="st3" cx="208.3" cy="243.4" rx="4.5" ry="19"/>
		
			<ellipse transform="matrix(0.9212 -0.389 0.389 0.9212 -70.3536 99.7849)" class="st3" cx="211.2" cy="223.6" rx="4.5" ry="17.1"/>
		
			<ellipse transform="matrix(0.7925 -0.6098 0.6098 0.7925 -78.8781 167.556)" class="st3" cx="206.8" cy="199.7" rx="4.5" ry="17.1"/>
		
			<ellipse transform="matrix(0.9966 -8.283573e-02 8.283573e-02 0.9966 -14.5888 18.5959)" class="st3" cx="216.8" cy="185.1" rx="4.5" ry="17.1"/>
		
			<ellipse transform="matrix(0.7065 -0.7077 0.7077 0.7065 -68.1871 194.4347)" class="st3" cx="200.3" cy="179.4" rx="3.7" ry="14.1"/>
		
			<ellipse transform="matrix(0.8075 -0.5898 0.5898 0.8075 -59.8869 151.3785)" class="st3" cx="202" cy="167.4" rx="3.7" ry="14.8"/>
	</g>
	<g>
		
			<ellipse transform="matrix(0.9874 -0.1581 0.1581 0.9874 -41.6864 9.8753)" class="st3" cx="41.2" cy="266.9" rx="5.9" ry="21.4"/>
		
			<ellipse transform="matrix(0.7295 -0.6839 0.6839 0.7295 -178.0216 86.5846)" class="st3" cx="20.5" cy="268.4" rx="5.9" ry="22.4"/>
		
			<ellipse transform="matrix(0.9109 -0.4126 0.4126 0.9109 -97.5991 26.8331)" class="st3" cx="13.3" cy="239.4" rx="5.9" ry="20.7"/>
		<ellipse transform="matrix(0.9906 -0.1366 0.1366 0.9906 -28.3197 3.921)" class="st3" cx="14.4" cy="208.3" rx="4.9" ry="21.9"/>
		
			<ellipse transform="matrix(0.2182 -0.9759 0.9759 0.2182 -213.1774 220.7815)" class="st3" cx="31.2" cy="243.4" rx="19" ry="4.5"/>
		
			<ellipse transform="matrix(0.389 -0.9212 0.9212 0.389 -188.7545 162.6799)" class="st3" cx="28.3" cy="223.6" rx="17.1" ry="4.5"/>
		
			<ellipse transform="matrix(0.6098 -0.7925 0.7925 0.6098 -145.5121 103.8291)" class="st3" cx="32.7" cy="199.7" rx="17.1" ry="4.5"/>
		
			<ellipse transform="matrix(8.283573e-02 -0.9966 0.9966 8.283573e-02 -163.6581 192.398)" class="st3" cx="22.7" cy="185.1" rx="17.1" ry="4.5"/>
		
			<ellipse transform="matrix(0.7077 -0.7065 0.7065 0.7077 -115.3266 80.1253)" class="st3" cx="39.2" cy="179.4" rx="14.1" ry="3.7"/>
		
			<ellipse transform="matrix(0.5898 -0.8075 0.8075 0.5898 -119.8341 98.9699)" class="st3" cx="37.5" cy="167.4" rx="14.8" ry="3.7"/>
	</g>
	<g>
		<path class="st4" d="M39.4,305.1l1.2,0.4c0,0.1,0,0.3,0,0.4s0,0.3-0.1,0.5c0,0.2-0.1,0.3-0.1,0.5c0,0.2-0.1,0.3-0.1,0.4l-1.7,4.8
			c-0.1,0.3-0.1,0.6-0.1,0.8c0.1,0.2,0.2,0.4,0.4,0.6c0.2,0.2,0.4,0.3,0.7,0.4c0.3,0.1,0.5,0.2,0.8,0.3c0.2,0.1,0.5,0.1,0.8,0.2
			s0.5,0,0.8,0c0.2-0.1,0.5-0.2,0.7-0.3c0.2-0.2,0.4-0.4,0.5-0.7l1.7-4.7c0-0.1,0.1-0.3,0.1-0.4c0-0.2,0-0.3,0-0.5s0-0.3,0-0.4
			s0-0.3,0-0.4l1.2,0.4c0,0.1,0.1,0.3,0,0.4s0,0.3,0,0.5c0,0.2-0.1,0.3-0.1,0.4c0,0.1-0.1,0.3-0.1,0.4l-1.8,4.9
			c-0.1,0.4-0.4,0.7-0.7,0.9c-0.3,0.2-0.6,0.4-1,0.5c-0.4,0.1-0.8,0.1-1.2,0.1c-0.4,0-0.8-0.1-1.1-0.2c-0.2-0.1-0.4-0.2-0.7-0.3
			c-0.2-0.1-0.5-0.2-0.7-0.3c-0.2-0.1-0.4-0.3-0.6-0.4c-0.2-0.2-0.3-0.4-0.5-0.6c-0.1,0.1-0.2,0.2-0.4,0.2c-0.1,0-0.3,0.1-0.5,0.1
			c-0.2,0-0.3,0-0.5,0s-0.3-0.1-0.4-0.1c-0.2-0.1-0.4-0.2-0.6-0.3s-0.3-0.3-0.3-0.5c-0.1-0.2-0.1-0.4-0.1-0.6c0-0.2,0-0.4,0.1-0.6
			c0.1-0.2,0.2-0.4,0.3-0.5c0.1-0.2,0.3-0.3,0.5-0.4c0.2-0.1,0.4-0.1,0.6-0.2c0.2,0,0.4,0,0.6,0.1c0.1,0,0.2,0.1,0.3,0.1
			c0.1,0.1,0.2,0.1,0.3,0.2l1.6-4.4c0-0.1,0.1-0.3,0.1-0.4c0-0.2,0-0.3,0.1-0.5c0-0.2,0-0.3,0-0.5S39.4,305.3,39.4,305.1z
			 M35.8,312.3c-0.1,0.2-0.1,0.4,0,0.6s0.2,0.3,0.4,0.4s0.4,0.1,0.6,0c0.2-0.1,0.3-0.2,0.4-0.4s0.1-0.4,0-0.6s-0.2-0.3-0.4-0.4
			c-0.2-0.1-0.4-0.1-0.6,0C36,311.9,35.9,312.1,35.8,312.3z"/>
		<path class="st4" d="M46.1,314.1c0.1-0.2,0.2-0.4,0.3-0.5c0.1-0.2,0.3-0.3,0.5-0.4s0.4-0.2,0.6-0.2c0.2,0,0.4,0,0.6,0.1
			c0.2,0.1,0.4,0.2,0.5,0.3s0.3,0.3,0.4,0.5c0.1,0.2,0.1,0.4,0.2,0.6c0,0.2,0,0.4-0.1,0.6c-0.1,0.2-0.2,0.4-0.3,0.5
			s-0.3,0.3-0.4,0.4c0.1,0.1,0.3,0.2,0.5,0.3c0.2,0.1,0.4,0.2,0.5,0.2c0.4,0.1,0.7,0.2,1.1,0.2c0.4,0,0.7,0,1-0.1
			c0.3-0.1,0.6-0.3,0.8-0.5s0.4-0.6,0.6-1l1.1,0.3c-0.2,0.6-0.5,1.1-0.8,1.4c-0.4,0.3-0.8,0.6-1.2,0.7c-0.5,0.2-1,0.2-1.5,0.2
			c-0.5,0-1-0.1-1.6-0.3c-0.4-0.1-0.8-0.3-1.2-0.6c-0.4-0.3-0.8-0.6-1.2-1c-0.1-0.1-0.2-0.2-0.2-0.3s-0.1-0.3-0.1-0.4
			c0-0.2,0-0.3,0-0.4C46,314.4,46,314.2,46.1,314.1z M46.9,314.3c-0.1,0.2,0,0.4,0,0.6c0.1,0.2,0.2,0.3,0.4,0.4c0.2,0.1,0.4,0,0.6,0
			s0.3-0.2,0.4-0.4c0.1-0.2,0-0.4,0-0.6s-0.2-0.3-0.4-0.4c-0.2-0.1-0.4,0-0.6,0S46.9,314.1,46.9,314.3z M47.2,310.4
			c0.1-0.2,0.2-0.4,0.3-0.5c0.1-0.2,0.3-0.3,0.5-0.4s0.4-0.2,0.6-0.2c0.2,0,0.4,0,0.6,0.1c0.2,0.1,0.4,0.2,0.5,0.3s0.3,0.3,0.4,0.5
			s0.1,0.4,0.2,0.6c0,0.2,0,0.4-0.1,0.6c-0.1,0.2-0.2,0.4-0.3,0.5c-0.1,0.1-0.3,0.3-0.4,0.4c0.1,0.1,0.3,0.2,0.5,0.3
			c0.2,0.1,0.4,0.2,0.5,0.2c0.4,0.1,0.7,0.2,1.1,0.2c0.4,0,0.7,0,1-0.1c0.3-0.1,0.6-0.3,0.8-0.5c0.2-0.2,0.4-0.6,0.6-1l1.1,0.3
			c-0.2,0.6-0.5,1.1-0.8,1.4c-0.4,0.3-0.8,0.6-1.2,0.7c-0.5,0.2-1,0.2-1.5,0.2c-0.5,0-1-0.1-1.6-0.3c-0.4-0.1-0.8-0.3-1.2-0.6
			c-0.4-0.3-0.8-0.6-1.2-1c-0.1-0.1-0.2-0.2-0.2-0.3s-0.1-0.3-0.1-0.4c0-0.2,0-0.3,0-0.5C47.2,310.6,47.2,310.5,47.2,310.4z
			 M48,310.6c-0.1,0.2,0,0.4,0,0.6c0.1,0.2,0.2,0.3,0.4,0.4c0.2,0.1,0.4,0,0.6,0s0.3-0.2,0.4-0.4c0.1-0.2,0-0.4,0-0.6
			c-0.1-0.2-0.2-0.3-0.4-0.4c-0.2-0.1-0.4,0-0.6,0S48.1,310.4,48,310.6z"/>
		<path class="st4" d="M64.6,321c0,0.1-0.1,0.2-0.1,0.4c0,0.1-0.1,0.3-0.2,0.4c-0.1,0.1-0.1,0.2-0.2,0.4s-0.1,0.2-0.2,0.3l-1.3-0.3
			c0.1-0.1,0.2-0.2,0.3-0.3c0.1-0.1,0.2-0.2,0.3-0.4c0.1-0.1,0.1-0.3,0.2-0.4s0.1-0.3,0.1-0.4l1.4-5.3c0-0.1,0.1-0.2,0.1-0.4
			s0-0.3,0-0.4c0-0.1-0.1-0.2-0.1-0.3c-0.1-0.1-0.2-0.2-0.3-0.2c-0.1,0-0.2,0-0.3,0.1c-0.1,0.1-0.3,0.1-0.4,0.2s-0.3,0.1-0.5,0.2
			s-0.4,0.1-0.6,0c-0.1,0-0.2-0.1-0.3-0.1c-0.1-0.1-0.2-0.1-0.3-0.2c0,0.3-0.1,0.5-0.1,0.8c-0.1,0.3-0.1,0.5-0.2,0.7l-0.9,3.4
			c-0.1,0.4-0.3,0.8-0.5,1.1c-0.2,0.3-0.5,0.5-0.8,0.7s-0.6,0.2-1,0.3c-0.4,0-0.8,0-1.2-0.1c-0.5-0.1-0.9-0.3-1.2-0.5
			s-0.6-0.4-0.8-0.7c-0.2-0.3-0.3-0.6-0.4-1s0-0.8,0.1-1.3c0.1-0.3,0.2-0.7,0.4-1c0.2-0.3,0.4-0.6,0.6-0.9c0.2-0.3,0.5-0.5,0.7-0.8
			s0.5-0.5,0.7-0.7c-0.2,0-0.3-0.1-0.5-0.2c-0.2-0.1-0.3-0.2-0.4-0.4s-0.2-0.3-0.2-0.5c0-0.2,0-0.4,0-0.6s0.2-0.4,0.3-0.6
			s0.3-0.3,0.4-0.4c0.2-0.1,0.4-0.2,0.6-0.2c0.2,0,0.4,0,0.7,0c0.2,0.1,0.4,0.2,0.6,0.3c0.2,0.1,0.3,0.3,0.4,0.4
			c0.1,0.2,0.2,0.4,0.2,0.6c0,0.2,0,0.4,0,0.7c-0.1,0.2-0.2,0.5-0.4,0.7c-0.2,0.2-0.4,0.5-0.6,0.8c-0.2,0.3-0.5,0.5-0.7,0.8
			c-0.3,0.3-0.5,0.5-0.7,0.8c-0.2,0.3-0.4,0.5-0.6,0.8c-0.2,0.3-0.3,0.5-0.4,0.8c-0.1,0.3-0.1,0.6,0,0.8s0.2,0.4,0.3,0.5
			c0.1,0.2,0.3,0.3,0.5,0.4c0.2,0.1,0.5,0.2,0.7,0.2c0.2,0.1,0.4,0.1,0.7,0.1c0.2,0,0.4-0.1,0.6-0.2c0.2-0.1,0.4-0.2,0.5-0.4
			s0.3-0.4,0.3-0.6l1.1-4.3c0.1-0.3,0.1-0.7,0.1-1c0-0.3-0.1-0.7-0.3-1L62,312c0,0.2,0.1,0.3,0.2,0.5c0.1,0.2,0.1,0.3,0.2,0.4
			c0.1,0.1,0.2,0.2,0.3,0.3c0.1,0.1,0.2,0.1,0.4,0.2c0.1,0,0.2,0,0.4-0.1c0.1-0.1,0.2-0.2,0.4-0.2c0.1-0.1,0.3-0.2,0.4-0.2
			c0.2-0.1,0.4-0.1,0.6,0c0.6,0.2,1,0.4,1.2,0.8c0.2,0.4,0.3,0.9,0.1,1.5L64.6,321z M58.8,312.9c0.1-0.2,0-0.4-0.1-0.5
			c-0.1-0.2-0.3-0.3-0.5-0.3c-0.2-0.1-0.4,0-0.6,0.1c-0.2,0.1-0.3,0.2-0.3,0.4c-0.1,0.2,0,0.4,0.1,0.6c0.1,0.2,0.2,0.3,0.4,0.3
			c0.2,0.1,0.4,0,0.6-0.1S58.8,313.1,58.8,312.9z"/>
		<path class="st4" d="M69.3,315.7c0.1,0,0.2,0,0.3,0c0.1,0,0.2,0,0.3,0c0.2,0,0.4,0.1,0.6,0.2s0.3,0.3,0.4,0.4
			c0.1,0.2,0.2,0.3,0.2,0.5c0,0.2,0,0.4,0,0.6c0,0.2-0.1,0.4-0.2,0.6s-0.3,0.3-0.4,0.4s-0.3,0.2-0.5,0.2c-0.2,0-0.4,0-0.6,0
			c-0.3-0.1-0.6-0.2-0.8-0.3c-0.2-0.1-0.4-0.3-0.5-0.5c-0.1-0.2-0.2-0.4-0.2-0.7c0-0.3,0-0.5,0.1-0.8c0.1-0.3,0.2-0.6,0.5-0.9
			c0.2-0.3,0.5-0.5,0.9-0.7c0.3-0.2,0.7-0.3,1.1-0.4c0.4-0.1,0.8-0.1,1.2,0c0.4,0.1,0.8,0.3,1.2,0.5s0.7,0.5,1,0.8s0.5,0.7,0.6,1.1
			c0.1,0.4,0.1,0.8,0,1.3l-1,4.5c0,0,0,0.1,0,0.2c0,0.1-0.1,0.2-0.1,0.3c0,0.1-0.1,0.2-0.1,0.4c-0.1,0.1-0.1,0.3-0.1,0.4
			c0,0.1-0.1,0.2-0.1,0.3c0,0.1-0.1,0.1-0.1,0.2l-1.3-0.3c0,0,0.1-0.1,0.2-0.3c0.1-0.1,0.2-0.3,0.3-0.5s0.2-0.4,0.3-0.6
			s0.1-0.4,0.2-0.5l1-4.6c0.1-0.2,0-0.5-0.1-0.7c-0.1-0.2-0.3-0.5-0.5-0.7s-0.4-0.4-0.7-0.5c-0.3-0.1-0.5-0.2-0.8-0.3
			c-0.2,0-0.4-0.1-0.5-0.1c-0.2,0-0.4,0-0.5,0c-0.2,0-0.3,0.1-0.5,0.1C69.5,315.6,69.4,315.7,69.3,315.7z M70.2,317.4
			c0-0.2,0-0.4-0.1-0.5c-0.1-0.2-0.3-0.3-0.5-0.3c-0.2,0-0.4,0-0.6,0.1s-0.3,0.3-0.3,0.5c0,0.2,0,0.4,0.1,0.6s0.3,0.3,0.5,0.3
			c0.2,0,0.4,0,0.5-0.1C70.1,317.8,70.2,317.6,70.2,317.4z"/>
		<path class="st4" d="M84,323.2c-0.1,0.6-0.3,1.1-0.7,1.5c-0.3,0.4-0.7,0.6-1.2,0.8c-0.5,0.2-1,0.3-1.5,0.3c-0.5,0-1.1,0-1.6-0.1
			c-0.3,0-0.5-0.1-0.8-0.2c-0.3-0.1-0.6-0.2-0.8-0.4c-0.3-0.1-0.5-0.3-0.8-0.5c-0.2-0.2-0.5-0.4-0.6-0.7c-0.2-0.2-0.3-0.5-0.4-0.8
			c-0.1-0.3-0.1-0.6,0-0.9c0-0.3,0.1-0.5,0.3-0.7s0.3-0.4,0.5-0.5s0.4-0.2,0.6-0.2c0.2,0,0.5,0,0.7,0c0.5,0.1,0.8,0.3,1,0.6
			s0.3,0.7,0.2,1.2c-0.1,0.4-0.2,0.7-0.5,1c-0.2,0.2-0.5,0.3-0.9,0.3c0.1,0.1,0.2,0.2,0.4,0.2c0.2,0.1,0.3,0.1,0.5,0.2
			c0.2,0.1,0.3,0.1,0.5,0.2c0.2,0,0.3,0.1,0.4,0.1c0.4,0.1,0.8,0.1,1.2,0.1s0.8,0,1.1-0.1s0.6-0.3,0.9-0.5c0.3-0.3,0.4-0.6,0.5-1.1
			l0.5-2.6c0.1-0.5,0.1-0.9-0.1-1.2s-0.3-0.6-0.6-0.9c-0.3-0.2-0.6-0.4-1-0.6c-0.4-0.2-0.7-0.3-1.1-0.3c-0.2,0-0.3,0-0.5-0.1
			c-0.2,0-0.4,0-0.6,0c-0.2,0-0.4,0-0.7,0.1c-0.2,0-0.4,0.1-0.6,0.2c-0.2,0.1-0.3,0.2-0.5,0.4c-0.1,0.1-0.2,0.3-0.2,0.5l-1.1-0.2
			c0.1-0.3,0.2-0.6,0.3-0.9c0.2-0.2,0.4-0.4,0.6-0.6c0.2-0.2,0.5-0.3,0.8-0.4c0.3-0.1,0.6-0.2,0.9-0.2c0.3,0,0.6,0,0.9,0
			c0.3,0,0.6,0,0.9,0.1c0.5,0.1,1.1,0.3,1.6,0.5s0.9,0.5,1.3,0.9c0.4,0.3,0.6,0.8,0.8,1.2c0.2,0.5,0.2,1,0.1,1.6L84,323.2z
			 M78,322.5c0-0.2,0-0.4-0.1-0.5s-0.3-0.3-0.5-0.3c-0.2,0-0.4,0-0.6,0.1c-0.2,0.1-0.3,0.3-0.3,0.5c0,0.2,0,0.4,0.1,0.6
			s0.3,0.3,0.5,0.3c0.2,0,0.4,0,0.5-0.1C77.9,322.9,78,322.7,78,322.5z"/>
		<path class="st4" d="M81.7,314.5c0-0.3,0.3-0.5,0.9-0.5c0.8-0.1,1.2-0.4,1.4-0.9c0.1-0.7-0.9-1.3-2.8-1.7c-1.9-0.2-3,0.1-3.1,0.8
			c0,0.5,0.4,0.9,1.1,1.2c0.5,0.2,0.8,0.4,0.7,0.7c0,0.3-0.3,0.4-0.8,0.3c-1.4-0.6-2.1-1.4-2-2.5c0.3-1.4,1.7-1.9,4.3-1.7
			c2.6,0.5,3.8,1.5,3.6,2.9c-0.2,1-1.1,1.6-2.7,1.7C81.9,315,81.7,314.8,81.7,314.5z"/>
		<path class="st4" d="M95.5,326.4c0,0.2-0.1,0.4-0.1,0.5c0,0.1-0.1,0.3-0.1,0.4c0,0.1-0.1,0.2-0.1,0.3c-0.1,0.1-0.1,0.2-0.2,0.3
			l-1.4-0.2c0.1-0.1,0.2-0.2,0.3-0.3c0.1-0.1,0.1-0.2,0.2-0.3c0.1-0.1,0.1-0.2,0.2-0.3c0-0.1,0.1-0.2,0.1-0.4l0.6-5
			c0-0.2,0-0.5,0-0.7s-0.1-0.5-0.2-0.6c-0.1-0.2-0.2-0.4-0.4-0.5s-0.4-0.2-0.7-0.3c-0.3,0-0.5,0-0.7,0.1c-0.2,0.1-0.4,0.2-0.5,0.3
			s-0.2,0.3-0.3,0.5c-0.1,0.2-0.1,0.4-0.2,0.7l-0.5,4c-0.1,0.4-0.2,0.8-0.3,1.1s-0.4,0.6-0.7,0.8c-0.3,0.2-0.6,0.3-0.9,0.4
			c-0.4,0.1-0.7,0.1-1.2,0c-0.5-0.1-0.9-0.2-1.2-0.3c-0.4-0.1-0.7-0.3-0.9-0.6s-0.4-0.5-0.5-0.9c-0.1-0.4-0.1-0.8,0-1.3
			c0-0.2,0.1-0.5,0.3-0.9c0.1-0.3,0.3-0.7,0.6-1c0.2-0.3,0.5-0.6,0.7-0.9s0.5-0.5,0.7-0.8c-0.2,0-0.5-0.1-0.7-0.2
			c-0.2-0.1-0.4-0.2-0.5-0.3c-0.1-0.1-0.2-0.3-0.3-0.5s-0.1-0.4-0.1-0.7c0-0.2,0.1-0.4,0.2-0.6c0.1-0.2,0.2-0.3,0.4-0.4
			c0.2-0.1,0.3-0.2,0.5-0.2c0.2,0,0.4-0.1,0.6,0c0.2,0,0.4,0.1,0.6,0.2c0.2,0.1,0.4,0.2,0.5,0.3s0.2,0.3,0.3,0.5s0.1,0.4,0,0.7
			c0,0.3-0.1,0.6-0.3,0.9c-0.1,0.3-0.3,0.6-0.5,0.9c-0.2,0.3-0.4,0.6-0.7,0.9c-0.2,0.3-0.5,0.6-0.7,0.9c-0.2,0.3-0.4,0.6-0.5,0.9
			c-0.1,0.3-0.2,0.5-0.2,0.7c0,0.3,0,0.6,0.1,0.8c0.1,0.2,0.2,0.4,0.3,0.5s0.3,0.2,0.6,0.3c0.2,0.1,0.5,0.1,0.7,0.1
			c0.2,0,0.4,0,0.7,0c0.2,0,0.4-0.1,0.6-0.2c0.2-0.1,0.3-0.3,0.4-0.4s0.2-0.4,0.2-0.6l0.5-3.9c0.1-0.4,0.1-0.8,0.3-1.1
			c0.1-0.3,0.3-0.6,0.5-0.9c0.2-0.2,0.5-0.4,0.8-0.5c0.3-0.1,0.7-0.1,1.2-0.1c0.5,0.1,0.9,0.2,1.2,0.4c0.3,0.2,0.6,0.4,0.8,0.7
			c0.2,0.3,0.3,0.6,0.4,1c0.1,0.4,0.1,0.8,0,1.2L95.5,326.4z M88.8,319.1c0-0.2,0-0.4-0.1-0.5c-0.1-0.2-0.3-0.2-0.5-0.3
			s-0.4,0-0.5,0.1c-0.2,0.1-0.2,0.3-0.3,0.5c0,0.2,0,0.4,0.1,0.6c0.1,0.2,0.3,0.2,0.5,0.3c0.2,0,0.4,0,0.5-0.1
			C88.7,319.5,88.8,319.3,88.8,319.1z"/>
		<path class="st4" d="M97.9,325c0-0.2,0.1-0.4,0.2-0.6c0.1-0.2,0.2-0.3,0.4-0.5s0.3-0.2,0.5-0.3s0.4-0.1,0.6-0.1
			c0.2,0,0.4,0.1,0.6,0.2c0.2,0.1,0.3,0.2,0.5,0.4s0.2,0.3,0.3,0.5c0.1,0.2,0.1,0.4,0.1,0.6c0,0.2-0.1,0.4-0.2,0.6
			c-0.1,0.2-0.2,0.3-0.3,0.4c0.2,0.1,0.3,0.1,0.5,0.2s0.4,0.1,0.6,0.1c0.4,0,0.8,0,1.1,0c0.4-0.1,0.7-0.2,1-0.3
			c0.3-0.2,0.5-0.4,0.7-0.7c0.2-0.3,0.3-0.7,0.3-1.1l1.1,0.1c-0.1,0.6-0.2,1.1-0.5,1.5s-0.6,0.7-1.1,1c-0.4,0.2-0.9,0.4-1.4,0.5
			c-0.5,0.1-1,0.1-1.6,0.1c-0.4,0-0.9-0.1-1.3-0.3c-0.5-0.2-0.9-0.4-1.4-0.7c-0.1-0.1-0.2-0.2-0.3-0.3c-0.1-0.1-0.2-0.2-0.2-0.4
			c-0.1-0.1-0.1-0.3-0.1-0.4C97.9,325.3,97.9,325.2,97.9,325z M98.2,321.2c0-0.2,0.1-0.4,0.2-0.6c0.1-0.2,0.2-0.3,0.4-0.5
			s0.3-0.2,0.5-0.3s0.4-0.1,0.6-0.1c0.2,0,0.4,0.1,0.6,0.2c0.2,0.1,0.3,0.2,0.5,0.4s0.2,0.3,0.3,0.5c0.1,0.2,0.1,0.4,0.1,0.6
			c0,0.2-0.1,0.4-0.2,0.6s-0.2,0.3-0.3,0.4c0.2,0.1,0.3,0.1,0.5,0.2s0.4,0.1,0.6,0.1c0.4,0,0.8,0,1.1,0c0.4-0.1,0.7-0.2,1-0.3
			c0.3-0.2,0.5-0.4,0.7-0.7c0.2-0.3,0.3-0.7,0.3-1.1l1.1,0.1c-0.1,0.6-0.2,1.1-0.5,1.5s-0.6,0.7-1.1,1c-0.4,0.2-0.9,0.4-1.4,0.5
			c-0.5,0.1-1,0.1-1.6,0.1c-0.4,0-0.9-0.1-1.3-0.3c-0.5-0.2-0.9-0.4-1.4-0.7c-0.1-0.1-0.2-0.2-0.3-0.3c-0.1-0.1-0.2-0.2-0.2-0.4
			c-0.1-0.1-0.1-0.3-0.1-0.4C98.2,321.4,98.2,321.3,98.2,321.2z M98.7,325.1c0,0.2,0,0.4,0.2,0.5s0.3,0.2,0.5,0.3
			c0.2,0,0.4,0,0.5-0.2s0.2-0.3,0.3-0.5c0-0.2,0-0.4-0.2-0.5c-0.1-0.2-0.3-0.2-0.5-0.3c-0.2,0-0.4,0-0.5,0.2S98.7,324.9,98.7,325.1z
			 M99,321.2c0,0.2,0,0.4,0.2,0.5s0.3,0.2,0.5,0.3c0.2,0,0.4,0,0.5-0.2s0.2-0.3,0.3-0.5s0-0.4-0.2-0.5c-0.1-0.2-0.3-0.2-0.5-0.3
			c-0.2,0-0.4,0-0.5,0.2S99,321,99,321.2z"/>
		<path class="st4" d="M116.4,320c0,0.1,0.1,0.2,0.1,0.3s0.1,0.3,0.1,0.4c0,0.1,0,0.3,0.1,0.4c0,0.1,0,0.2,0,0.4l-0.2,5.3
			c0,0.3-0.1,0.6-0.2,0.8s-0.3,0.5-0.5,0.7c-0.2,0.2-0.5,0.4-0.8,0.5s-0.6,0.2-0.9,0.3c-0.3,0.1-0.6,0.1-0.9,0.2c-0.3,0-0.6,0-0.8,0
			c-0.4,0-0.9-0.1-1.4-0.2s-1-0.3-1.5-0.5c-0.2-0.1-0.5-0.3-0.7-0.4c-0.2-0.2-0.4-0.3-0.6-0.6c-0.2-0.2-0.3-0.4-0.4-0.7
			c-0.1-0.2-0.1-0.5-0.1-0.8c0-0.2,0-0.3,0.1-0.5c0.1-0.2,0.1-0.3,0.2-0.4c0.1-0.1,0.2-0.2,0.4-0.3c0.1-0.1,0.3-0.2,0.4-0.2
			c-0.2-0.1-0.3-0.2-0.4-0.4s-0.2-0.3-0.3-0.5c-0.1-0.2-0.2-0.4-0.2-0.6c0-0.2-0.1-0.4-0.1-0.6c0-0.6,0.1-1,0.3-1.4
			c0.2-0.4,0.4-0.7,0.7-1c0.3-0.2,0.6-0.4,0.9-0.5c0.3-0.1,0.6-0.2,0.9-0.2c0.2,0,0.4,0.1,0.6,0.1c0.2,0.1,0.3,0.2,0.5,0.4
			c0.1,0.2,0.2,0.3,0.3,0.5c0.1,0.2,0.1,0.4,0.1,0.6c0,0.2,0,0.3-0.1,0.5c-0.1,0.2-0.2,0.3-0.3,0.5c-0.1,0.1-0.3,0.3-0.5,0.3
			c-0.2,0.1-0.4,0.1-0.6,0.1c-0.4,0-0.7-0.1-0.9-0.3s-0.4-0.5-0.5-0.8c-0.1,0.1-0.1,0.2-0.1,0.3s-0.1,0.2-0.1,0.2c0,0.1,0,0.2,0,0.2
			c0,0.1,0,0.2,0,0.3c0,0.3,0,0.5,0.2,0.7c0.1,0.2,0.3,0.4,0.5,0.5s0.4,0.2,0.7,0.3s0.5,0.1,0.7,0.1c0.1,0,0.3,0,0.4,0
			c0.1,0,0.3,0,0.4,0l0.1,1.1c-0.1,0-0.2,0-0.4,0c-0.2,0-0.4,0-0.6,0c-0.2,0-0.5,0.1-0.7,0.1s-0.5,0.1-0.7,0.2s-0.4,0.2-0.5,0.3
			c-0.1,0.1-0.2,0.2-0.2,0.4c0,0.1,0,0.3,0.1,0.4c0.1,0.1,0.1,0.3,0.3,0.4c0.1,0.1,0.2,0.2,0.4,0.3c0.1,0.1,0.3,0.2,0.4,0.3
			c0.2,0.1,0.4,0.2,0.6,0.3c0.2,0.1,0.4,0.1,0.7,0.2s0.4,0.1,0.6,0.1c0.2,0,0.3,0,0.5,0c0.3,0,0.7,0,1-0.1c0.3-0.1,0.7-0.2,0.9-0.3
			c0.3-0.2,0.5-0.4,0.7-0.6c0.2-0.3,0.3-0.6,0.3-1l0.2-4.1c0-0.2,0-0.3,0-0.5s0-0.4,0-0.6c0-0.2-0.1-0.4-0.1-0.6
			c-0.1-0.2-0.1-0.3-0.2-0.5L116.4,320z M111.6,321.2c0-0.2,0-0.4-0.2-0.5c-0.1-0.1-0.3-0.2-0.5-0.2c-0.2,0-0.4,0-0.6,0.2
			c-0.2,0.1-0.2,0.3-0.2,0.5c0,0.2,0.1,0.4,0.2,0.5c0.1,0.2,0.3,0.2,0.5,0.2c0.2,0,0.4-0.1,0.5-0.2
			C111.5,321.6,111.6,321.4,111.6,321.2z"/>
		<path class="st4" d="M120.3,321.6c0.1,0,0.2-0.1,0.3-0.1c0.1,0,0.2,0,0.3,0c0.2,0,0.5,0,0.6,0.1s0.3,0.2,0.5,0.3
			c0.1,0.1,0.2,0.3,0.3,0.5c0.1,0.2,0.1,0.4,0.1,0.6c0,0.2,0,0.4-0.1,0.6s-0.2,0.4-0.3,0.5s-0.3,0.3-0.5,0.3
			c-0.2,0.1-0.4,0.1-0.6,0.1c-0.3,0-0.6,0-0.8-0.1c-0.2-0.1-0.4-0.2-0.6-0.4c-0.1-0.2-0.3-0.4-0.3-0.6c-0.1-0.2-0.1-0.5-0.1-0.8
			c0-0.3,0.1-0.7,0.3-1c0.2-0.3,0.4-0.6,0.7-0.9s0.6-0.5,1-0.6c0.4-0.2,0.8-0.2,1.1-0.2c0.4,0,0.9,0.1,1.3,0.2
			c0.4,0.1,0.8,0.3,1.1,0.6c0.3,0.3,0.6,0.6,0.8,0.9s0.3,0.8,0.3,1.2l0,4.6c0,0,0,0.1,0,0.2c0,0.1,0,0.2,0,0.3c0,0.1,0,0.3-0.1,0.4
			c0,0.1,0,0.3-0.1,0.4c0,0.1,0,0.2-0.1,0.3c0,0.1,0,0.2,0,0.2l-1.3,0c0,0,0-0.1,0.1-0.3s0.1-0.3,0.1-0.5s0.1-0.4,0.1-0.6
			s0.1-0.4,0.1-0.5l0-4.7c0-0.2-0.1-0.5-0.2-0.7c-0.2-0.2-0.4-0.4-0.6-0.5c-0.2-0.1-0.5-0.3-0.8-0.3c-0.3-0.1-0.6-0.1-0.8-0.1
			c-0.2,0-0.4,0-0.5,0.1c-0.2,0-0.4,0.1-0.5,0.1s-0.3,0.1-0.4,0.2C120.4,321.5,120.3,321.5,120.3,321.6z M121.5,323
			c0-0.2-0.1-0.4-0.2-0.5c-0.1-0.1-0.3-0.2-0.5-0.2c-0.2,0-0.4,0.1-0.5,0.2c-0.1,0.1-0.2,0.3-0.2,0.5c0,0.2,0.1,0.4,0.2,0.5
			c0.1,0.1,0.3,0.2,0.5,0.2c0.2,0,0.4-0.1,0.5-0.2C121.5,323.4,121.5,323.3,121.5,323z"/>
		<path class="st4" d="M133.7,327.7c0,0.2,0,0.4-0.1,0.6s-0.2,0.4-0.3,0.5s-0.3,0.2-0.5,0.3s-0.4,0.1-0.6,0.1c-0.2,0-0.5,0-0.7-0.1
			c-0.2-0.1-0.4-0.2-0.6-0.3c-0.2-0.1-0.3-0.3-0.4-0.6s-0.2-0.5-0.2-0.8l-0.2-5.5c0-0.3,0-0.5,0.1-0.7c0-0.2,0.1-0.3,0.2-0.4
			s0.2-0.2,0.4-0.4c0.2-0.1,0.3-0.2,0.5-0.4c0.1-0.1,0.2-0.1,0.3-0.2c0.1-0.1,0.2-0.1,0.4-0.2c0.1-0.1,0.2-0.2,0.3-0.3
			c0.1-0.1,0.1-0.2,0.1-0.3c0-0.1,0-0.1-0.1-0.2c-0.1,0-0.1,0-0.2,0c-0.1,0-0.3,0-0.4,0.1c-0.1,0.1-0.3,0.2-0.4,0.3
			s-0.3,0.2-0.5,0.3c-0.2,0.1-0.3,0.1-0.5,0.1c-0.2,0-0.3,0-0.5-0.1s-0.2-0.1-0.4-0.2c-0.1-0.1-0.2-0.3-0.3-0.4
			c-0.1-0.2-0.2-0.4-0.3-0.7c-0.1-0.4-0.3-0.7-0.4-1c-0.2-0.3-0.3-0.7-0.5-1c-0.2-0.3-0.4-0.6-0.7-0.9s-0.5-0.6-0.9-1l0.7-0.9
			c0.3,0.2,0.6,0.5,0.9,0.9c0.3,0.3,0.5,0.7,0.7,1s0.4,0.7,0.6,1.1c0.2,0.4,0.3,0.8,0.5,1.1c0,0.1,0.1,0.1,0.1,0.2
			c0,0.1,0.1,0.2,0.1,0.3s0.1,0.2,0.1,0.3c0.1,0.1,0.1,0.1,0.2,0.1c0.1,0,0.3,0,0.4-0.1c0.1-0.1,0.3-0.2,0.4-0.3
			c0.1-0.1,0.3-0.2,0.4-0.3c0.1-0.1,0.3-0.1,0.5-0.1c0.2,0,0.4,0,0.6,0.1s0.3,0.1,0.5,0.2c0.1,0.1,0.2,0.2,0.3,0.4
			c0.1,0.1,0.1,0.3,0.1,0.5c0,0.3,0,0.5-0.1,0.7c-0.1,0.2-0.2,0.4-0.4,0.5c-0.2,0.2-0.4,0.3-0.6,0.4c-0.2,0.1-0.4,0.3-0.6,0.4
			s-0.3,0.3-0.4,0.5c-0.1,0.2-0.2,0.4-0.1,0.6l0.2,4.3c0.1,0,0.3-0.1,0.4-0.1c0.1,0,0.3-0.1,0.4-0.1c0.5,0,0.9,0.1,1.1,0.4
			C133.5,326.8,133.7,327.2,133.7,327.7z M132.9,327.7c0-0.1,0-0.2-0.1-0.3c0-0.1-0.1-0.2-0.2-0.2s-0.2-0.1-0.2-0.1
			c-0.1,0-0.2,0-0.3,0s-0.2,0-0.3,0.1c-0.1,0-0.2,0.1-0.2,0.2c-0.1,0.1-0.1,0.1-0.1,0.2s-0.1,0.2,0,0.3c0,0.1,0,0.2,0.1,0.3
			s0.1,0.2,0.2,0.2s0.1,0.1,0.2,0.2s0.2,0.1,0.3,0c0.2,0,0.4-0.1,0.5-0.2C132.8,328.1,132.9,327.9,132.9,327.7z"/>
		<path class="st4" d="M138,326.5c0.1-0.1,0.1-0.2,0.2-0.3c0.1-0.1,0.2-0.2,0.3-0.2c0.1-0.1,0.2-0.1,0.3-0.2c0.1,0,0.2-0.1,0.3-0.1
			c0.2,0,0.4,0,0.6,0.1c0.2,0.1,0.4,0.1,0.5,0.3c0.2,0.1,0.3,0.3,0.4,0.5c0.1,0.2,0.2,0.4,0.2,0.6c0,0.2,0,0.4-0.1,0.6
			c-0.1,0.2-0.2,0.4-0.3,0.5s-0.3,0.3-0.5,0.4c-0.2,0.1-0.4,0.2-0.6,0.2c-0.3,0-0.6,0-0.9,0c-0.3-0.1-0.6-0.2-0.8-0.4
			c-0.2-0.2-0.4-0.4-0.6-0.7s-0.3-0.7-0.3-1.2c0-0.4,0-0.8,0.2-1.2c0.2-0.3,0.4-0.6,0.7-0.8s0.6-0.4,1-0.5s0.7-0.2,1.1-0.2
			c0.4,0,0.7,0,1,0.1c0.3,0.1,0.5,0.2,0.7,0.4c0.2,0.2,0.4,0.4,0.6,0.7c0.2,0.3,0.3,0.5,0.5,0.8c0.1,0.2,0.2,0.4,0.3,0.6
			c0.1,0.2,0.2,0.4,0.3,0.5c0.1,0.1,0.2,0.2,0.2,0.3s0.2,0.1,0.3,0.1c0.1,0,0.2-0.1,0.3-0.2s0.2-0.3,0.2-0.5c0-0.2,0.1-0.4,0.1-0.7
			c0-0.2,0-0.5,0-0.8c0-0.3,0-0.5,0-0.8c0-0.3,0-0.5,0-0.7c0-0.6-0.1-1-0.2-1.4c-0.1-0.4-0.2-0.7-0.4-1c-0.1-0.3-0.3-0.5-0.5-0.6
			c-0.2-0.2-0.3-0.3-0.5-0.4c-0.1-0.1-0.3-0.1-0.5-0.2s-0.4-0.1-0.6-0.1c-0.2,0-0.4,0-0.6,0c-0.2,0-0.4,0-0.5,0c-0.2,0-0.3,0-0.4,0
			c-0.1,0-0.3,0-0.4,0c-0.1,0-0.2,0-0.4,0.1c-0.1,0-0.2,0.1-0.4,0.1c-0.1,0-0.3,0.1-0.4,0.1c-0.2,0.1-0.3,0.1-0.4,0.2
			s-0.3,0.1-0.3,0.2c-0.1,0.1-0.1,0.2-0.1,0.3c0,0.1,0,0.1,0.1,0.2s0.1,0.1,0.2,0.1s0.1,0.1,0.2,0.1c0.1,0,0.1,0.1,0.1,0.1l-0.6,0.9
			c-0.3-0.1-0.5-0.3-0.7-0.5s-0.3-0.5-0.3-0.8c0-0.3,0-0.6,0.1-0.8c0.1-0.2,0.3-0.4,0.5-0.6c0.2-0.2,0.4-0.3,0.7-0.4
			s0.5-0.2,0.8-0.3c0.1,0,0.2-0.1,0.4-0.1s0.3-0.1,0.5-0.1s0.3-0.1,0.5-0.1s0.3,0,0.4,0c0.2,0,0.5,0,0.7,0c0.3,0,0.6,0,0.8,0
			c0.3,0,0.6,0.1,0.8,0.1c0.3,0.1,0.5,0.2,0.7,0.3c0.4,0.2,0.7,0.5,0.9,0.8c0.2,0.3,0.4,0.6,0.6,1c0.1,0.3,0.3,0.7,0.3,1.1
			c0.1,0.4,0.1,0.7,0.2,1.1c0,0.5,0.1,1,0.1,1.4c0,0.5,0,0.9,0,1.3c0,0.3-0.1,0.6-0.2,0.9c-0.1,0.3-0.2,0.5-0.3,0.7
			c-0.1,0.2-0.3,0.3-0.5,0.5s-0.4,0.2-0.7,0.2c-0.3,0-0.6,0-0.8-0.1s-0.4-0.3-0.5-0.5c-0.1-0.2-0.3-0.4-0.4-0.6
			c-0.1-0.2-0.2-0.5-0.4-0.7c-0.1-0.2-0.3-0.4-0.4-0.6c-0.1-0.2-0.2-0.4-0.4-0.5c-0.1-0.2-0.3-0.3-0.5-0.3c-0.2-0.1-0.5-0.1-0.8-0.1
			c-0.2,0-0.4,0.1-0.7,0.1c-0.2,0.1-0.4,0.2-0.6,0.3c-0.2,0.1-0.3,0.3-0.4,0.5C138,326,138,326.2,138,326.5z M140.1,327.2
			c0-0.2-0.1-0.4-0.3-0.5c-0.2-0.1-0.3-0.2-0.5-0.2c-0.2,0-0.4,0.1-0.5,0.3c-0.1,0.2-0.2,0.3-0.2,0.5c0,0.2,0.1,0.4,0.3,0.5
			s0.3,0.2,0.5,0.2c0.2,0,0.4-0.1,0.5-0.3C140.1,327.6,140.1,327.4,140.1,327.2z"/>
		<path class="st4" d="M152.6,325.8c0,0.2,0,0.4,0,0.6s-0.1,0.4-0.3,0.5c-0.1,0.2-0.3,0.3-0.5,0.4c-0.2,0.1-0.4,0.2-0.6,0.2
			c-0.2,0-0.5,0-0.7,0c-0.2,0-0.4-0.1-0.6-0.3c-0.2-0.1-0.3-0.3-0.5-0.5c-0.1-0.2-0.2-0.5-0.3-0.8l-0.7-5.4c0-0.3,0-0.6,0-0.9
			c0-0.3,0.1-0.6,0.2-0.8c0.1-0.2,0.3-0.4,0.5-0.6c0.2-0.2,0.5-0.3,0.9-0.3c0.2,0,0.4,0,0.6,0s0.4,0,0.6,0.1l-0.2,1.1
			c-0.2-0.1-0.3-0.1-0.5-0.1c-0.1,0-0.3,0-0.5,0c-0.1,0-0.3,0.1-0.4,0.1s-0.2,0.2-0.2,0.3c-0.1,0.1-0.1,0.2-0.1,0.3
			c0,0.1,0,0.2,0,0.4l0.6,4.6c0.1-0.1,0.2-0.1,0.4-0.2c0.1-0.1,0.2-0.1,0.4-0.1c0.5-0.1,0.9,0,1.2,0.3
			C152.4,325,152.6,325.4,152.6,325.8z M151.8,325.9c0-0.1,0-0.2-0.1-0.3c0-0.1-0.1-0.1-0.2-0.2c-0.1-0.1-0.2-0.1-0.3-0.1
			s-0.2,0-0.3,0c-0.1,0-0.2,0-0.3,0.1c-0.1,0-0.1,0.1-0.2,0.2c-0.1,0.1-0.1,0.2-0.1,0.2c0,0.1,0,0.2,0,0.3c0,0.1,0,0.2,0.1,0.3
			c0,0.1,0.1,0.2,0.2,0.2s0.2,0.1,0.2,0.1c0.1,0,0.2,0,0.3,0c0.2,0,0.4-0.1,0.5-0.3S151.9,326.1,151.8,325.9z M156.6,325.3
			c0,0.2,0,0.4,0,0.6c-0.1,0.2-0.1,0.4-0.3,0.5s-0.3,0.3-0.5,0.4s-0.4,0.2-0.6,0.2c-0.2,0-0.5,0-0.7,0c-0.2,0-0.4-0.1-0.6-0.3
			s-0.3-0.3-0.5-0.5s-0.2-0.5-0.3-0.8l-0.7-5.4c0-0.3,0-0.6,0-0.9s0.1-0.6,0.2-0.8s0.3-0.4,0.5-0.6c0.2-0.2,0.5-0.3,0.9-0.3
			c0.2,0,0.4,0,0.6,0c0.2,0,0.4,0,0.6,0.1l-0.2,1.1c-0.2-0.1-0.3-0.1-0.5-0.1c-0.1,0-0.3,0-0.5,0c-0.1,0-0.3,0.1-0.4,0.1
			c-0.1,0.1-0.2,0.2-0.2,0.3c-0.1,0.1-0.1,0.2-0.1,0.3c0,0.1,0,0.2,0,0.4l0.6,4.6c0.1-0.1,0.2-0.1,0.4-0.2s0.2-0.1,0.4-0.1
			c0.5-0.1,0.9,0,1.2,0.3C156.4,324.5,156.5,324.8,156.6,325.3z M155.8,325.4c0-0.1,0-0.2-0.1-0.3c0-0.1-0.1-0.1-0.2-0.2
			c-0.1-0.1-0.2-0.1-0.3-0.1c-0.1,0-0.2,0-0.3,0s-0.2,0-0.3,0.1c-0.1,0.1-0.1,0.1-0.2,0.2c-0.1,0.1-0.1,0.2-0.1,0.2
			c0,0.1,0,0.2,0,0.3s0,0.2,0.1,0.3c0.1,0.1,0.1,0.2,0.2,0.2s0.2,0.1,0.2,0.1c0.1,0,0.2,0,0.3,0c0.2,0,0.4-0.1,0.5-0.3
			S155.8,325.6,155.8,325.4z"/>
		<path class="st4" d="M168.5,323c0,0.1,0,0.2,0.1,0.4c0,0.1,0,0.3,0,0.4c0,0.1,0,0.3,0,0.4c0,0.1,0,0.3-0.1,0.4l-1.3,0.2
			c0.1-0.1,0.1-0.3,0.1-0.4c0-0.1,0.1-0.3,0.1-0.5c0-0.2,0-0.3,0-0.5c0-0.2,0-0.3,0-0.4l-1-5.4c0-0.1-0.1-0.2-0.1-0.4
			c0-0.1-0.1-0.3-0.1-0.4c-0.1-0.1-0.1-0.2-0.2-0.2s-0.2-0.1-0.4,0c-0.1,0-0.2,0.1-0.2,0.2c-0.1,0.1-0.2,0.2-0.3,0.4
			c-0.1,0.1-0.2,0.3-0.4,0.4c-0.1,0.1-0.3,0.2-0.5,0.2c-0.1,0-0.2,0-0.3,0c-0.1,0-0.2,0-0.3-0.1c0.1,0.2,0.2,0.5,0.2,0.8
			s0.1,0.5,0.2,0.7l0.7,3.4c0.1,0.4,0.1,0.8,0,1.2c-0.1,0.4-0.2,0.7-0.4,0.9c-0.2,0.3-0.5,0.5-0.8,0.7c-0.3,0.2-0.7,0.3-1.1,0.4
			c-0.5,0.1-0.9,0.1-1.3,0.1c-0.4,0-0.7-0.1-1-0.3c-0.3-0.2-0.6-0.4-0.8-0.7c-0.2-0.3-0.4-0.7-0.5-1.2c-0.1-0.3-0.1-0.7,0-1
			c0-0.4,0.1-0.7,0.2-1.1s0.2-0.7,0.3-1s0.2-0.7,0.3-1c-0.2,0-0.4,0-0.6,0c-0.2,0-0.4-0.1-0.6-0.2s-0.3-0.2-0.5-0.4
			c-0.1-0.2-0.2-0.4-0.3-0.6c0-0.2,0-0.5,0-0.7c0-0.2,0.1-0.4,0.2-0.6c0.1-0.2,0.3-0.3,0.4-0.4c0.2-0.1,0.4-0.2,0.6-0.2
			c0.2,0,0.5,0,0.7,0c0.2,0,0.4,0.1,0.6,0.2c0.2,0.1,0.3,0.3,0.4,0.4s0.2,0.4,0.3,0.6c0,0.2,0,0.5,0,0.8s-0.1,0.6-0.2,0.9
			c-0.1,0.3-0.2,0.7-0.3,1c-0.1,0.3-0.2,0.7-0.3,1c-0.1,0.3-0.2,0.7-0.2,1c0,0.3,0,0.6,0,0.9c0.1,0.3,0.2,0.5,0.3,0.7
			s0.3,0.3,0.5,0.4c0.2,0.1,0.4,0.1,0.7,0.1c0.2,0,0.5,0,0.8-0.1c0.2,0,0.4-0.1,0.6-0.2c0.2-0.1,0.4-0.3,0.5-0.4
			c0.1-0.2,0.2-0.4,0.3-0.6c0.1-0.2,0.1-0.4,0-0.7l-0.8-4.3c-0.1-0.3-0.2-0.6-0.3-0.9c-0.2-0.3-0.4-0.6-0.8-0.8l0.8-0.9
			c0.1,0.1,0.2,0.2,0.3,0.4s0.2,0.2,0.4,0.3c0.1,0.1,0.3,0.1,0.4,0.2s0.3,0,0.4,0c0.1,0,0.2-0.1,0.3-0.2c0.1-0.1,0.1-0.2,0.2-0.4
			c0.1-0.1,0.2-0.3,0.3-0.4s0.3-0.2,0.5-0.2c0.6-0.1,1.1,0,1.4,0.2c0.4,0.2,0.6,0.7,0.7,1.3L168.5,323z M159.8,318.1
			c0-0.2-0.1-0.4-0.3-0.5c-0.2-0.1-0.3-0.1-0.6-0.1c-0.2,0-0.4,0.1-0.5,0.3c-0.1,0.2-0.1,0.3-0.1,0.5c0,0.2,0.1,0.4,0.3,0.5
			c0.2,0.1,0.3,0.1,0.5,0.1c0.2,0,0.4-0.1,0.5-0.3C159.8,318.5,159.8,318.3,159.8,318.1z"/>
		<path class="st4" d="M162.8,313.9l-0.8-3.5l0.9-0.2l0.8,3.5L162.8,313.9z"/>
		<path class="st4" d="M172.1,325.4c0.2,0.1,0.5,0.1,0.8,0.1s0.6,0,0.8,0s0.4-0.1,0.6-0.1c0.1,0,0.3-0.1,0.5-0.2s0.4-0.2,0.6-0.4
			c0.2-0.2,0.4-0.3,0.5-0.5c0.1-0.2,0.3-0.4,0.4-0.6s0.1-0.5,0.2-0.7c0-0.2,0-0.5-0.1-0.8l-1.5-6.1c-0.1-0.2-0.2-0.4-0.4-0.6
			c-0.2-0.2-0.4-0.3-0.7-0.4c-0.3-0.1-0.6-0.1-0.9-0.2c-0.3,0-0.6,0-0.8,0.1c-0.2,0-0.3,0.1-0.5,0.2s-0.3,0.2-0.5,0.3
			s-0.3,0.2-0.4,0.3c-0.1,0.1-0.2,0.2-0.2,0.3c0.1-0.1,0.2-0.1,0.2-0.2c0.1,0,0.1,0,0.2-0.1l0.1,0c0.2-0.1,0.4-0.1,0.6,0
			s0.4,0.1,0.5,0.2s0.3,0.2,0.4,0.4c0.1,0.2,0.2,0.4,0.2,0.6c0.1,0.2,0.1,0.4,0,0.6c0,0.2-0.1,0.4-0.2,0.6c-0.1,0.2-0.2,0.3-0.4,0.4
			s-0.4,0.2-0.6,0.3c-0.3,0.1-0.6,0.1-0.8,0.1s-0.5-0.1-0.7-0.3c-0.2-0.1-0.3-0.3-0.5-0.5s-0.2-0.5-0.3-0.8c-0.1-0.3-0.1-0.7,0-1
			c0.1-0.4,0.3-0.7,0.5-1c0.2-0.3,0.5-0.6,0.8-0.8c0.3-0.2,0.7-0.4,1.1-0.5c0.4-0.1,0.9-0.1,1.3-0.1c0.4,0,0.9,0.1,1.2,0.3
			c0.4,0.2,0.7,0.4,1,0.7c0.3,0.3,0.5,0.7,0.6,1.1l1.4,5.8c0.1,0.4,0.1,0.9,0.1,1.3c0,0.4-0.1,0.7-0.3,1.1c-0.1,0.3-0.3,0.6-0.5,0.9
			c-0.2,0.3-0.5,0.5-0.7,0.7c-0.2,0.2-0.5,0.3-0.7,0.4c-0.3,0.1-0.5,0.2-0.7,0.2c-0.2,0-0.4,0.1-0.7,0.1c-0.3,0-0.6,0.1-1,0
			s-0.7-0.1-1-0.2L172.1,325.4z M172.1,317.2c0-0.2-0.2-0.3-0.3-0.5c-0.2-0.1-0.3-0.1-0.5-0.1s-0.4,0.2-0.5,0.3s-0.1,0.4-0.1,0.6
			c0.1,0.2,0.2,0.4,0.3,0.5c0.2,0.1,0.4,0.1,0.6,0.1s0.3-0.2,0.5-0.3S172.1,317.4,172.1,317.2z"/>
		<path class="st4" d="M186.5,312.9c0.1,0.4,0.1,0.7,0,1.1c-0.1,0.4-0.3,0.7-0.5,1s-0.5,0.6-0.9,0.9s-0.7,0.6-1.1,0.9
			c-0.4,0.3-0.9,0.6-1.3,0.9c-0.4,0.3-0.8,0.6-1.1,0.8c-0.3,0.2-0.6,0.5-0.8,0.7s-0.3,0.4-0.2,0.6c0.1,0.2,0.2,0.3,0.3,0.4
			c0.2,0.1,0.3,0.1,0.5,0.1c0.2,0,0.4,0,0.6-0.1c0.2,0,0.3-0.1,0.4-0.1c0.2-0.1,0.4-0.2,0.6-0.3c0.2-0.1,0.3-0.2,0.5-0.4
			s0.3-0.3,0.4-0.4c0.1-0.1,0.3-0.3,0.4-0.4c0.1-0.1,0.3-0.2,0.5-0.4c0.2-0.1,0.4-0.2,0.6-0.3c0.2-0.1,0.5-0.1,0.7-0.1
			c0.3,0,0.6,0,0.8,0c0.3,0.1,0.5,0.2,0.7,0.3c0.2,0.2,0.4,0.4,0.4,0.8c0,0.3,0.1,0.6,0.1,0.8c0,0.3,0.1,0.5,0.2,0.7
			c0.1,0.2,0.2,0.4,0.3,0.6c0.1,0.2,0.3,0.4,0.5,0.5l-0.8,0.7c-0.2-0.1-0.4-0.3-0.6-0.6c-0.2-0.2-0.3-0.5-0.4-0.7s-0.2-0.6-0.3-0.9
			c-0.1-0.3-0.1-0.6-0.2-0.9c0-0.2-0.2-0.3-0.4-0.4c-0.2,0-0.6,0-1,0.1c-0.2,0-0.3,0.1-0.4,0.2s-0.2,0.2-0.4,0.3
			c-0.1,0.1-0.2,0.3-0.4,0.4c-0.1,0.1-0.3,0.3-0.4,0.4s-0.3,0.3-0.5,0.4c-0.2,0.1-0.4,0.2-0.7,0.3c-0.2,0-0.4,0.1-0.6,0.1
			c-0.2,0-0.4,0.1-0.6,0.1c-0.2,0-0.4,0-0.7,0c-0.2,0-0.4-0.1-0.6-0.2c-0.2-0.1-0.4-0.2-0.5-0.4c-0.1-0.2-0.3-0.4-0.3-0.6
			c-0.1-0.3-0.1-0.5,0-0.8s0.2-0.5,0.4-0.7c0.2-0.2,0.4-0.5,0.7-0.7c0.3-0.2,0.6-0.5,0.9-0.7s0.6-0.4,1-0.7c0.3-0.2,0.7-0.4,1-0.7
			c0.3-0.2,0.6-0.4,0.9-0.7c0.3-0.2,0.5-0.4,0.7-0.7s0.3-0.5,0.4-0.7c0.1-0.2,0.1-0.5,0-0.7c-0.1-0.2-0.2-0.4-0.3-0.5
			s-0.3-0.2-0.5-0.3c-0.2-0.1-0.4-0.1-0.7-0.1s-0.5,0-0.7,0s-0.5,0.1-0.7,0.1s-0.4,0.1-0.6,0.1c-0.1,0-0.3,0.1-0.5,0.2
			s-0.4,0.1-0.6,0.2c-0.2,0.1-0.4,0.2-0.6,0.3c-0.2,0.1-0.4,0.2-0.6,0.4c0.2,0,0.4,0,0.5,0c0.2,0,0.3,0.1,0.5,0.2
			c0.1,0.1,0.3,0.2,0.4,0.4c0.1,0.1,0.2,0.3,0.2,0.5c0.1,0.5,0.1,0.9-0.1,1.2c-0.2,0.3-0.6,0.6-1.2,0.8c-0.2,0-0.3,0.1-0.5,0
			c-0.2,0-0.4-0.1-0.5-0.2c-0.2-0.1-0.3-0.2-0.5-0.4c-0.1-0.2-0.3-0.4-0.3-0.7c-0.1-0.3-0.1-0.5,0-0.8c0-0.3,0.1-0.5,0.3-0.8
			s0.3-0.5,0.6-0.7c0.2-0.2,0.5-0.4,0.8-0.6c0.3-0.2,0.6-0.4,0.9-0.5s0.7-0.3,1-0.4c0.3-0.1,0.6-0.2,0.9-0.2
			c0.3-0.1,0.6-0.1,0.9-0.1c0.3,0,0.6,0,0.9,0.1s0.6,0.1,0.8,0.3s0.5,0.3,0.7,0.6S186.4,312.5,186.5,312.9z M180.6,314.8
			c0-0.1-0.1-0.2-0.1-0.3c-0.1-0.1-0.1-0.1-0.2-0.2c-0.1,0-0.2-0.1-0.3-0.1c-0.1,0-0.2,0-0.3,0c-0.1,0-0.2,0.1-0.3,0.1
			c-0.1,0.1-0.1,0.1-0.2,0.2c0,0.1-0.1,0.2-0.1,0.3c0,0.1,0,0.2,0,0.3c0,0.1,0.1,0.2,0.1,0.3s0.1,0.1,0.2,0.2c0.1,0,0.2,0.1,0.3,0.1
			c0.1,0,0.2,0,0.3,0c0.2-0.1,0.4-0.2,0.4-0.4C180.7,315.2,180.7,315,180.6,314.8z"/>
		<path class="st4" d="M189.5,310.9c0.1-0.1,0.2-0.1,0.2-0.2c0.1,0,0.1-0.1,0.2-0.1c0.2-0.1,0.4-0.1,0.6-0.1s0.4,0.1,0.6,0.1
			c0.2,0.1,0.3,0.2,0.4,0.4s0.2,0.3,0.3,0.5c0.1,0.2,0.1,0.4,0.1,0.6c0,0.2-0.1,0.4-0.1,0.6s-0.2,0.3-0.4,0.5s-0.3,0.2-0.5,0.3
			c-0.3,0.1-0.6,0.1-0.8,0.1c-0.2,0-0.5-0.1-0.7-0.2c-0.2-0.1-0.4-0.3-0.5-0.5c-0.1-0.2-0.3-0.5-0.4-0.8c-0.1-0.3-0.1-0.7-0.1-1
			c0.1-0.4,0.2-0.7,0.4-1s0.4-0.6,0.7-0.9c0.3-0.3,0.6-0.5,1-0.6c0.4-0.1,0.8-0.2,1.3-0.2c0.4,0,0.9,0.1,1.3,0.2
			c0.4,0.1,0.8,0.3,1.1,0.6c0.3,0.3,0.5,0.6,0.7,1.1l1.5,4.4c0,0,0,0.1,0.1,0.2c0,0.1,0,0.2,0.1,0.3s0,0.3,0.1,0.4s0,0.3,0.1,0.4
			c0,0.1,0,0.2,0,0.3c0,0.1,0,0.2,0,0.2l-1.2,0.4c0,0,0-0.1,0-0.3c0-0.2,0-0.4,0-0.6c0-0.2,0-0.4-0.1-0.6c0-0.2-0.1-0.4-0.1-0.5
			l-1.5-4.4c-0.1-0.2-0.2-0.4-0.4-0.6s-0.5-0.3-0.7-0.3c-0.3-0.1-0.6-0.1-0.9-0.1c-0.3,0-0.6,0.1-0.8,0.1c-0.2,0.1-0.3,0.1-0.5,0.2
			c-0.2,0.1-0.3,0.2-0.4,0.3s-0.2,0.2-0.3,0.3C189.6,310.7,189.5,310.8,189.5,310.9z M191.1,311.8c-0.1-0.2-0.2-0.3-0.4-0.4
			c-0.2-0.1-0.4-0.1-0.6,0c-0.2,0.1-0.3,0.2-0.4,0.4c-0.1,0.2-0.1,0.4,0,0.6c0.1,0.2,0.2,0.3,0.4,0.4c0.2,0.1,0.4,0.1,0.6,0
			c0.2-0.1,0.3-0.2,0.4-0.4C191.2,312.2,191.2,312,191.1,311.8z"/>
		<path class="st4" d="M199.8,313.4c0-0.2,0-0.3,0.1-0.5c0-0.2,0.1-0.3,0.2-0.4c0.1-0.1,0.2-0.2,0.3-0.4c0.1-0.1,0.3-0.2,0.4-0.2
			c0.2-0.1,0.4-0.1,0.6-0.1c0.2,0,0.4,0.1,0.6,0.1s0.3,0.2,0.5,0.3c0.1,0.1,0.2,0.3,0.3,0.5c0.1,0.2,0.1,0.4,0.1,0.6
			c0,0.2-0.1,0.4-0.2,0.6s-0.2,0.3-0.4,0.5c-0.2,0.1-0.3,0.3-0.5,0.3c-0.4,0.2-0.8,0.2-1.1,0.2c-0.4,0-0.7-0.1-1-0.3
			c-0.3-0.2-0.6-0.4-0.8-0.7c-0.2-0.3-0.4-0.6-0.6-1L197,310c-0.1-0.3-0.2-0.7-0.2-1s0.1-0.7,0.2-1c0.1-0.3,0.3-0.6,0.5-0.9
			c0.2-0.3,0.4-0.6,0.7-0.8c0.3-0.2,0.5-0.5,0.8-0.6s0.6-0.3,0.9-0.5c0.3-0.1,0.6-0.2,1-0.3c0.3-0.1,0.7-0.1,1-0.1
			c0.3,0,0.7,0,1,0.1c0.3,0.1,0.6,0.2,0.9,0.3c0.3,0.2,0.5,0.4,0.8,0.6c0.2,0.3,0.4,0.6,0.6,0.9l1.6,4.1c0.1,0.2,0.1,0.3,0.1,0.5
			c0,0.2,0,0.3,0,0.5c0,0.2,0,0.3-0.1,0.5c0,0.1-0.1,0.3-0.1,0.4l-1.2,0.5c0.1-0.2,0.1-0.4,0.2-0.5c0.1-0.2,0.1-0.3,0.1-0.5
			c0-0.2,0-0.3,0-0.5c0-0.2-0.1-0.3-0.1-0.5l-1.4-3.7c-0.2-0.5-0.4-0.8-0.7-1c-0.3-0.2-0.6-0.4-1-0.5c-0.4-0.1-0.7-0.1-1.1,0
			s-0.8,0.2-1.2,0.3c-0.3,0.1-0.7,0.3-1,0.6s-0.6,0.5-0.8,0.9c-0.2,0.3-0.4,0.7-0.4,1c-0.1,0.4,0,0.8,0.1,1.2l1,2.5
			c0,0.1,0.1,0.2,0.1,0.3c0,0.1,0.1,0.2,0.1,0.3c0.1,0.1,0.1,0.2,0.2,0.3C199.6,313.3,199.7,313.4,199.8,313.4z M202,313.1
			c-0.1-0.2-0.2-0.3-0.4-0.4c-0.2-0.1-0.4-0.1-0.6,0c-0.2,0.1-0.3,0.2-0.4,0.4c-0.1,0.2-0.1,0.4,0,0.6c0.1,0.2,0.2,0.3,0.4,0.4
			s0.4,0.1,0.6,0c0.2-0.1,0.3-0.2,0.4-0.4S202.1,313.3,202,313.1z"/>
	</g>
	<g>
		<g>
			<path class="st5" d="M188.8,292.1l-11.3-66.4c-0.9-0.6-1.9-1.1-2.8-1.5l11.1,65.5c0,0-31.2-0.7-51.9,12.3c0.7,0.9,1.4,1.9,1.9,3
				C156.6,291.3,188.8,292.1,188.8,292.1z"/>
			<path class="st5" d="M182.9,286.8c0,0-31.1-0.7-51.9,12.3c1.1,0.9,2.1,1.9,3,3c20.8-13,51.9-12.3,51.9-12.3l-11.1-65.5l-0.1-0.8
				c-0.9-0.6-1.8-1-2.7-1.5l0.2,1.2L182.9,286.8z"/>
			<path class="st5" d="M169.1,222.4l10.4,61.4c0,0-32-0.7-52.7,12.8c1.5,0.6,2.9,1.5,4.1,2.5c20.8-13,51.9-12.3,51.9-12.3
				l-10.8-63.6l-0.2-1.2l-0.3-1.5c-1-0.6-2-1.2-3.1-1.6l0.3,2L169.1,222.4z"/>
			<path class="st5" d="M166,220l0.3,1.9l9.9,58.5c0,0-28.7-0.6-49.4,10.8c-1,0.6-2.1,1.2-3.1,1.8c-1,0.7-2,1.3-3,2.1
				c2.1,0.1,4.2,0.6,6,1.4c20.8-13.5,52.7-12.8,52.7-12.8l-10.4-61.4l-0.3-1.6l-0.3-2l-0.2-1.4c-1-0.6-2-1.1-3-1.6l0.3,1.8L166,220z
				"/>
			<path class="st5" d="M120.8,295.1c1-0.7,2-1.4,3-2.1c1-0.6,2-1.2,3.1-1.8c20.7-11.4,49.4-10.8,49.4-10.8l-9.9-58.5L166,220
				l-0.4-2.3l-0.3-1.8l-0.3-1.7c-15.5-9.6-36.4,0.5-45.3,5.8v75.2C120,295.1,120.4,295.1,120.8,295.1z"/>
		</g>
		<g>
			<path class="st5" d="M50.6,292.1l11.3-66.4c0.9-0.6,1.9-1.1,2.8-1.5l-11.1,65.5c0,0,31.2-0.7,51.9,12.3c-0.7,0.9-1.4,1.9-1.9,3
				C82.9,291.3,50.6,292.1,50.6,292.1z"/>
			<path class="st5" d="M56.6,286.8c0,0,31.1-0.7,51.9,12.3c-1.1,0.9-2.1,1.9-3,3c-20.8-13-51.9-12.3-51.9-12.3l11.1-65.5l0.1-0.8
				c0.9-0.6,1.8-1,2.7-1.5l-0.2,1.2L56.6,286.8z"/>
			<path class="st5" d="M70.3,222.4l-10.4,61.4c0,0,32-0.7,52.7,12.8c-1.5,0.6-2.9,1.5-4.1,2.5c-20.8-13-51.9-12.3-51.9-12.3
				l10.8-63.6l0.2-1.2l0.3-1.5c1-0.6,2-1.2,3.1-1.6l-0.3,2L70.3,222.4z"/>
			<path class="st5" d="M73.5,220l-0.3,1.9l-9.9,58.5c0,0,28.7-0.6,49.4,10.8c1,0.6,2.1,1.2,3.1,1.8c1,0.7,2,1.3,3,2.1
				c-2.1,0.1-4.2,0.6-6,1.4c-20.8-13.5-52.7-12.8-52.7-12.8l10.4-61.4l0.3-1.6l0.3-2l0.2-1.4c1-0.6,2-1.1,3-1.6l-0.3,1.8L73.5,220z"
				/>
			<path class="st5" d="M118.7,295.1c-1-0.7-2-1.4-3-2.1c-1-0.6-2-1.2-3.1-1.8c-20.7-11.4-49.4-10.8-49.4-10.8l9.9-58.5l0.3-1.9
				l0.4-2.3l0.3-1.8l0.3-1.7c15.5-9.6,36.4,0.5,45.3,5.8v75.2C119.5,295.1,119.1,295.1,118.7,295.1z"/>
		</g>
	</g>
	<g>
		<path class="st6" d="M92.7,231.2c0.1-0.3,0.3-0.5,0.5-0.7c0.2-0.2,0.4-0.4,0.7-0.5c0.3-0.1,0.5-0.2,0.8-0.3
			c0.3-0.1,0.6-0.1,0.9-0.1c0.4,0,0.7,0.1,1,0.3c0.3,0.2,0.6,0.4,0.8,0.7c0.2,0.3,0.4,0.6,0.5,0.9s0.2,0.7,0.1,1.1
			c0,0.4-0.1,0.8-0.3,1.1c-0.2,0.3-0.4,0.6-0.7,0.8c-0.3,0.2-0.6,0.4-1,0.5c-0.4,0.1-0.7,0.2-1.1,0.1c-0.8-0.1-1.4-0.2-2-0.6
			c-0.6-0.3-1.1-0.7-1.4-1.3c-0.4-0.5-0.7-1.1-0.8-1.8c-0.2-0.7-0.2-1.4-0.2-2.1c0-0.3,0.1-0.7,0.1-1c0-0.4,0.1-0.7,0.2-1.1
			c0.1-0.3,0.2-0.7,0.4-1c0.2-0.3,0.4-0.6,0.6-0.9c-0.3-0.4-0.5-0.9-0.6-1.4c-0.1-0.6-0.2-1.1-0.2-1.6c0-0.6,0.2-1.2,0.5-1.7
			c0.3-0.5,0.7-0.9,1.2-1.3c0.5-0.4,1-0.6,1.6-0.9c0.6-0.2,1.2-0.4,1.8-0.5c0.6-0.1,1.2-0.2,1.8-0.2c0.6,0,1.2,0,1.7,0
			c0.4,0,0.9,0.1,1.4,0.2s1.1,0.3,1.6,0.5c0.6,0.2,1.1,0.5,1.6,0.8c0.5,0.3,1,0.7,1.4,1c0.4,0.4,0.7,0.8,0.9,1.3
			c0.2,0.5,0.3,1,0.3,1.5l-0.8,10c0,0.3-0.1,0.6-0.1,0.8s-0.1,0.4-0.2,0.6c-0.1,0.2-0.2,0.4-0.3,0.5c-0.1,0.2-0.2,0.3-0.3,0.5
			l-2.3-0.2c0.1-0.2,0.3-0.4,0.4-0.5c0.1-0.2,0.3-0.4,0.4-0.6c0.1-0.2,0.2-0.4,0.3-0.6c0.1-0.2,0.1-0.4,0.1-0.6l0.7-9.2
			c0-0.4,0-0.8-0.2-1.1c-0.2-0.3-0.4-0.7-0.7-1c-0.3-0.3-0.6-0.5-1-0.8c-0.4-0.2-0.8-0.4-1.2-0.6c-0.4-0.2-0.8-0.3-1.2-0.4
			c-0.4-0.1-0.7-0.2-1-0.2c-0.4,0-0.9,0-1.3,0c-0.5,0-0.9,0.1-1.4,0.1c-0.5,0.1-0.9,0.2-1.3,0.4c-0.4,0.2-0.8,0.4-1.2,0.6
			c-0.3,0.3-0.6,0.6-0.9,1c-0.2,0.4-0.4,0.8-0.4,1.4c0,0.2,0,0.3,0.1,0.5c0,0.2,0.1,0.3,0.1,0.4c0.3-0.5,0.7-0.8,1.2-1
			c0.4-0.2,0.9-0.3,1.5-0.3c0.4,0,0.8,0.1,1.1,0.3s0.7,0.4,0.9,0.6c0.3,0.3,0.5,0.6,0.6,0.9s0.2,0.7,0.2,1.2c0,0.4-0.1,0.8-0.3,1.1
			c-0.2,0.3-0.4,0.6-0.7,0.8c-0.3,0.2-0.6,0.3-1,0.4c-0.4,0.1-0.8,0.1-1.2,0.1c-0.3,0-0.6-0.1-0.8-0.1s-0.3-0.2-0.5-0.3
			c-0.1-0.1-0.3-0.2-0.4-0.4c-0.1-0.2-0.3-0.3-0.6-0.5c-0.2,0.3-0.3,0.7-0.4,1.1c-0.1,0.4-0.1,0.8-0.2,1.2c0,0.2,0,0.4,0,0.6
			c0,0.2,0,0.4,0,0.6c0,0.2,0,0.4,0.1,0.5C92.6,231,92.6,231.1,92.7,231.2z M96.6,232.5c0-0.4-0.1-0.7-0.3-1s-0.5-0.4-0.9-0.5
			c-0.4,0-0.7,0.1-1,0.3s-0.4,0.5-0.5,0.9c0,0.4,0.1,0.7,0.3,1c0.2,0.3,0.5,0.4,0.9,0.5c0.4,0,0.7-0.1,1-0.3
			C96.4,233.2,96.5,232.9,96.6,232.5z M97.1,225.8c0-0.4-0.1-0.7-0.2-0.9c-0.2-0.3-0.5-0.4-0.8-0.4c-0.5,0-0.8,0.1-1.1,0.3
			c-0.3,0.2-0.5,0.5-0.8,0.9c0.2,0.3,0.5,0.6,0.7,0.8c0.2,0.2,0.5,0.3,0.9,0.3c0.2,0,0.3,0,0.5,0s0.3-0.1,0.4-0.1
			c0.1-0.1,0.3-0.2,0.3-0.3C97,226.2,97.1,226,97.1,225.8z"/>
		<path class="st6" d="M104.8,250.9c-0.1,1.1-0.4,2-0.9,2.8c-0.5,0.7-1.2,1.3-2,1.7c-0.8,0.4-1.7,0.7-2.7,0.8
			c-1,0.1-1.9,0.2-2.9,0.1c-0.5,0-1-0.1-1.5-0.2c-0.5-0.1-1.1-0.3-1.6-0.5s-1-0.5-1.5-0.8c-0.5-0.3-0.9-0.7-1.3-1.1
			c-0.4-0.4-0.6-0.9-0.8-1.4c-0.2-0.5-0.3-1-0.2-1.6c0-0.5,0.2-0.9,0.3-1.3c0.2-0.4,0.4-0.7,0.8-0.9c0.3-0.2,0.7-0.4,1.1-0.5
			c0.4-0.1,0.8-0.2,1.3-0.1c0.8,0.1,1.5,0.4,1.9,1c0.4,0.6,0.6,1.3,0.5,2.1c-0.1,0.8-0.3,1.4-0.7,1.8c-0.4,0.5-0.9,0.7-1.7,0.7
			c0.2,0.1,0.5,0.3,0.7,0.4c0.3,0.1,0.6,0.2,0.9,0.3c0.3,0.1,0.6,0.1,0.9,0.2c0.3,0,0.6,0.1,0.8,0.1c0.7,0.1,1.4,0.1,2.1,0
			c0.7-0.1,1.4-0.2,2-0.5c0.6-0.3,1.1-0.6,1.5-1.2c0.4-0.5,0.7-1.2,0.7-2.1l0.4-4.8c0.1-0.8-0.1-1.6-0.4-2.2
			c-0.3-0.6-0.7-1.1-1.3-1.5c-0.5-0.4-1.2-0.7-1.9-0.9c-0.7-0.2-1.4-0.3-2.1-0.4c-0.3,0-0.6,0-1,0c-0.4,0-0.8,0-1.2,0.1
			c-0.4,0.1-0.8,0.1-1.2,0.3c-0.4,0.1-0.7,0.3-1,0.5c-0.3,0.2-0.6,0.4-0.8,0.7s-0.3,0.6-0.4,1l-2-0.2c0-0.6,0.2-1.2,0.5-1.6
			c0.3-0.5,0.6-0.9,1-1.2c0.4-0.3,0.9-0.6,1.4-0.8c0.5-0.2,1-0.4,1.6-0.5c0.6-0.1,1.1-0.2,1.7-0.2c0.6,0,1.1,0,1.6,0
			c1,0.1,2,0.3,2.9,0.6s1.8,0.8,2.5,1.3c0.7,0.6,1.3,1.3,1.6,2.1c0.4,0.8,0.5,1.8,0.5,3L104.8,250.9z M93.9,250.7
			c0-0.4-0.1-0.7-0.3-1c-0.2-0.3-0.5-0.4-0.9-0.5c-0.4,0-0.7,0.1-1,0.3c-0.3,0.2-0.4,0.5-0.5,0.9c0,0.4,0.1,0.7,0.3,1
			c0.2,0.3,0.5,0.4,0.9,0.5c0.4,0,0.7-0.1,1-0.3C93.7,251.4,93.8,251.1,93.9,250.7z"/>
		<path class="st6" d="M104.1,260.5c-0.2,0.4-0.4,0.9-0.7,1.4c-0.2,0.5-0.5,0.9-0.8,1.2c0.3,0.4,0.5,0.9,0.7,1.4
			c0.2,0.5,0.3,1,0.4,1.5c0.1,0.5,0.1,1.1,0.1,1.6c0,0.5,0,1.1-0.1,1.6c-0.1,0.9-0.2,1.8-0.3,2.6c-0.1,0.8-0.3,1.6-0.5,2.3
			c-0.2,0.5-0.3,1-0.6,1.5c-0.2,0.4-0.5,0.8-0.8,1.1c-0.3,0.3-0.6,0.5-1,0.7c-0.4,0.2-0.8,0.2-1.3,0.2c-0.6,0-1.1-0.2-1.4-0.5
			c-0.3-0.3-0.6-0.6-0.8-1c-0.2-0.4-0.4-0.8-0.5-1.3c-0.1-0.5-0.3-0.9-0.5-1.4c-0.2-0.4-0.4-0.9-0.5-1.3c-0.1-0.4-0.3-0.8-0.5-1.1
			c-0.2-0.3-0.5-0.6-0.8-0.8c-0.3-0.2-0.8-0.3-1.3-0.4c-0.4,0-0.8,0-1.2,0.1c-0.4,0.1-0.8,0.2-1.1,0.4c-0.3,0.2-0.6,0.4-0.8,0.8
			c-0.2,0.3-0.3,0.7-0.4,1.1c0.1-0.2,0.3-0.3,0.5-0.4c0.2-0.1,0.4-0.2,0.6-0.3c0.2-0.1,0.4-0.2,0.7-0.2c0.2,0,0.4-0.1,0.6,0
			c0.4,0,0.7,0.1,1.1,0.3c0.3,0.2,0.6,0.4,0.9,0.6c0.2,0.3,0.4,0.6,0.6,0.9c0.1,0.4,0.2,0.7,0.1,1.1c0,0.4-0.1,0.8-0.3,1.1
			c-0.2,0.3-0.4,0.6-0.7,0.9c-0.3,0.2-0.6,0.4-0.9,0.5c-0.4,0.1-0.7,0.2-1.1,0.1c-0.6,0-1.1-0.2-1.7-0.4c-0.5-0.2-1-0.5-1.3-0.9
			c-0.4-0.4-0.7-0.9-0.8-1.5c-0.2-0.6-0.3-1.3-0.2-2.2c0.1-0.8,0.3-1.5,0.7-2c0.4-0.5,0.9-1,1.4-1.3c0.6-0.3,1.2-0.5,1.9-0.6
			c0.7-0.1,1.4-0.1,2.1-0.1s1.3,0.2,1.8,0.5c0.5,0.3,0.9,0.6,1.2,1c0.3,0.4,0.6,0.9,0.8,1.4c0.2,0.5,0.4,1,0.6,1.6
			c0.2,0.4,0.3,0.8,0.4,1.2c0.1,0.4,0.2,0.7,0.3,1c0.1,0.3,0.2,0.5,0.4,0.7c0.1,0.2,0.3,0.2,0.4,0.3c0.2,0,0.5-0.1,0.7-0.3
			c0.2-0.2,0.4-0.5,0.5-0.8c0.1-0.3,0.3-0.7,0.4-1.2c0.1-0.4,0.2-0.9,0.3-1.4c0.1-0.5,0.1-0.9,0.2-1.4c0-0.5,0.1-0.9,0.1-1.2
			c0-0.5,0.1-1,0.1-1.5c0-0.5,0-0.9,0-1.3c0-0.4-0.1-0.8-0.2-1.1c-0.1-0.3-0.2-0.6-0.4-0.9c-0.9,0.7-1.9,1.3-3,1.6
			c-1.1,0.3-2.2,0.4-3.2,0.4c-0.7-0.1-1.4-0.1-2-0.2c-0.7-0.1-1.3-0.2-1.9-0.4c-1-0.3-1.7-0.7-2.2-1.3c-0.5-0.6-0.7-1.2-0.6-1.9
			c0-0.5,0.2-1,0.5-1.4c0.3-0.4,0.7-0.7,1.1-0.9c0.4-0.2,0.9-0.4,1.4-0.5c0.5-0.1,1-0.2,1.5-0.3c0.2,0,0.5,0,0.7,0s0.6,0,0.9,0
			c0.3,0,0.6,0,0.9,0c0.3,0,0.5,0,0.7,0c0.4,0,0.8,0.1,1.3,0.2c0.5,0.1,1,0.2,1.5,0.3c0.5,0.1,1,0.3,1.4,0.5
			c0.5,0.2,0.8,0.4,1.1,0.7c0.2-0.3,0.4-0.6,0.6-0.8c0.1-0.3,0.3-0.6,0.5-1L104.1,260.5z M99.9,263c-0.2-0.2-0.6-0.3-0.9-0.5
			c-0.4-0.1-0.7-0.3-1.1-0.4c-0.4-0.1-0.8-0.2-1.1-0.2c-0.4-0.1-0.7-0.1-1-0.1c-0.3,0-0.6,0-0.8-0.1c-0.2,0-0.5,0-0.7,0
			c-0.2,0-0.5,0-0.7,0c-0.2,0-0.5,0-0.7,0.1c-0.2,0-0.5,0.1-0.8,0.1c-0.3,0.1-0.6,0.1-0.9,0.2c-0.3,0.1-0.5,0.2-0.7,0.3
			c-0.2,0.1-0.3,0.3-0.3,0.5c0,0.2,0,0.3,0.1,0.4c0.1,0.1,0.2,0.2,0.4,0.3c0.2,0.1,0.3,0.2,0.5,0.3c0.2,0.1,0.4,0.1,0.5,0.2
			c0.2,0.1,0.5,0.1,1.1,0.2c0.6,0.1,1.3,0.2,2.2,0.2c0.4,0,0.9,0,1.3,0c0.4,0,0.9-0.1,1.3-0.2c0.4-0.1,0.8-0.3,1.2-0.5
			C99.2,263.6,99.6,263.3,99.9,263z M93,274.3c0-0.4-0.1-0.7-0.3-1c-0.2-0.3-0.5-0.4-0.9-0.5c-0.4,0-0.7,0.1-1,0.3
			c-0.3,0.2-0.4,0.5-0.5,0.9c0,0.4,0.1,0.7,0.3,1c0.2,0.3,0.5,0.4,0.9,0.5c0.4,0,0.7-0.1,1-0.3S93,274.7,93,274.3z"/>
	</g>
	<g>
		<path class="st7" d="M148.5,220.8l-9.2,1.2l0.7,5.1l8-1.1l0.2,1.5l-8,1.1l1,7.3l-1.9,0.3l-2-15.4l11.1-1.5L148.5,220.8z"/>
		<path class="st7" d="M153.7,255.5l-12.3,1.6l-2-15.4l11.9-1.6l0.2,1.5l-10,1.3l0.7,5.3l9.3-1.2l0.2,1.5l-9.3,1.2l0.7,5.6l10.4-1.4
			L153.7,255.5z"/>
		<path class="st7" d="M156.4,276.3l-2,0.3l-10.8-11.4l1.7,12.6l-1.9,0.3l-2-15.4l2-0.3l10.8,11.4l-1.7-12.6l1.9-0.3L156.4,276.3z"
			/>
	</g>
</g>
</svg>
