<?xml version="1.0" encoding="utf-8"?>
<!-- Generator: Adobe Illustrator 25.0.0, SVG Export Plug-In . SVG Version: 6.00 Build 0)  -->
<svg version="1.1" id="Layer_1" xmlns="http://www.w3.org/2000/svg" xmlns:xlink="http://www.w3.org/1999/xlink" x="0px" y="0px"
	 viewBox="0 0 1411 340.9" style="enable-background:new 0 0 1411 340.9;" xml:space="preserve">
<style type="text/css">
	.st0{fill:#E40428;stroke:#000000;stroke-miterlimit:10;}
	.st1{fill:#F8E700;stroke:#000000;stroke-miterlimit:10;}
	.st2{fill:#F9E800;stroke:#000000;stroke-miterlimit:10;}
	.st3{fill:#00793B;stroke:#000000;stroke-width:1;stroke-miterlimit:9.9998;}
	.st4{fill:#00793B;stroke:#000000;stroke-width:0.9999;stroke-miterlimit:9.9994;}
	.st5{fill:#00793B;stroke:#000000;stroke-width:1;stroke-miterlimit:9.9999;}
	.st6{fill:#00793B;stroke:#000000;stroke-width:1;stroke-miterlimit:9.9997;}
	.st7{fill:#00793B;stroke:#000000;stroke-width:1;stroke-miterlimit:10;}
	.st8{fill:#00793B;stroke:#000000;stroke-width:1;stroke-miterlimit:9.9996;}
	.st9{fill:#00793B;stroke:#000000;stroke-width:1;stroke-miterlimit:10.0004;}
	.st10{fill:#FFFFFF;stroke:#FFFFFF;stroke-width:0.5;stroke-miterlimit:10;}
	.st11{fill:#FFFFFF;stroke:#010202;stroke-miterlimit:10;}
	.st12{fill:#292A60;stroke:#292B60;stroke-width:1.5;stroke-miterlimit:10;}
	.st13{fill:#292B60;stroke:#292B60;stroke-width:2;stroke-miterlimit:10;}
</style>
<g>
	<g>
		<g>
			<path class="st0" d="M208.5,293c0,0,18.9-7.6,25.1-28.6c0,0,8.8,16.8-9.6,39.2c0,0,10.7,0.4,13.8,12.8c0,0-9.7-2.9-14,7.3
				c-4.3,10.2-22.1,19.5-29.4,10.9c-4.7-5.5,12.3-22.1,12.3-22.1L208.5,293z"/>
			<path class="st0" d="M199.7,320.2c-4,5.1-7.9,11.3-5.3,14.3c0.1,0.1,0.2,0.2,0.3,0.4c1.3-3.1,3.5-5.5,7.1-6.3
				c14.5-3.4,16-8.6,16-8.6C213.9,314.1,206,316.7,199.7,320.2z"/>
		</g>
		<g>
			<path class="st0" d="M30.9,293c0,0-18.9-7.6-25.1-28.6c0,0-8.8,16.8,9.6,39.2c0,0-10.7,0.4-13.8,12.8c0,0,9.7-2.9,14,7.3
				c4.3,10.2,22.1,19.5,29.4,10.9c4.7-5.5-12.3-22.1-12.3-22.1L30.9,293z"/>
			<path class="st0" d="M39.7,320.2c4,5.1,7.9,11.3,5.3,14.3c-0.1,0.1-0.2,0.2-0.3,0.4c-1.3-3.1-3.5-5.5-7.1-6.3
				c-14.5-3.4-16-8.6-16-8.6C25.5,314.1,33.4,316.7,39.7,320.2z"/>
		</g>
		<path class="st0" d="M217.8,319.7c0,0-6.8-2.9-23,4.9c-12.7,6.1-32,12.1-59.2,14.1c-5,0.4-10.4,0.6-16,0.7h-0.1
			c-5.6-0.1-10.8-0.3-15.8-0.7c-27.2-2-46.4-8-59.2-14.1c-16.1-7.7-23-4.9-23-4.9s-2-9.3,4.2-21c7.1-13.5,7.1-10.6,34.1,0
			c16.5,6.5,37.9,8.3,52.2,8.7c2.8,0.1,5.4,0.1,7.6,0.1h0.2c2.2,0,4.8,0,7.6-0.1c14.3-0.4,35.7-2.2,52.2-8.7
			c27-10.6,26.9-13.5,34.1,0C219.8,310.4,217.8,319.7,217.8,319.7z"/>
	</g>
	<g>
		<g>
			<polygon class="st1" points="122.3,223.7 122.4,225.5 120,224.6 117.6,225.5 117.7,223.7 88.6,212.7 93.8,202 99.8,194.3 
				140.2,194.3 146.2,202 151.4,212.7 			"/>
			<rect x="99.8" y="191.6" class="st1" width="40.4" height="2.7"/>
		</g>
		<g>
			<path class="st1" d="M130.4,199.3c-1.7-0.6-2.2-1.9-2.3-2.2l0,0V197l0,0l0,0c0,0,0,0,0,0.1l0,0c-0.1,0.3-0.6,1.6-2.3,2.2
				c-10.5,3.3-3.1,10.9-3.1,10.9h0.7h9.5h0.7C133.4,210.3,140.9,202.6,130.4,199.3z"/>
			<path class="st1" d="M114.5,199.3c-1.7-0.6-2.2-1.9-2.3-2.2l0,0V197l0,0l0,0c0,0,0,0,0,0.1l0,0c-0.1,0.3-0.6,1.6-2.3,2.2
				c-10.5,3.3-3.1,10.9-3.1,10.9h0.7h9.5h0.7C117.5,210.3,125,202.6,114.5,199.3z"/>
			<path class="st1" d="M149.6,210.3c0,0,3.4-3.6-0.8-7.9c-2.4-2.5,1-5.3,1-5.3s-5.8-0.7-8.4,6.6c-2.6,7.3-2.6,6.6-2.6,6.6
				L149.6,210.3L149.6,210.3z"/>
			<path class="st1" d="M90.2,210.3c0,0-3.4-3.6,0.8-7.9c2.4-2.5-1-5.3-1-5.3s5.8-0.7,8.4,6.6s2.6,6.6,2.6,6.6L90.2,210.3
				L90.2,210.3z"/>
			<path class="st1" d="M138.3,199.3c-1.7-0.6-2.2-1.9-2.3-2.2l0,0V197l0,0l0,0c0,0,0,0,0,0.1l0,0c-0.1,0.3-0.6,1.6-2.3,2.2
				c-10.5,3.3-3.1,10.9-3.1,10.9h0.7h9.5h0.7C141.4,210.3,148.9,202.6,138.3,199.3z"/>
			<path class="st1" d="M122.4,199.3c-1.7-0.6-2.2-1.9-2.3-2.2l0,0V197l0,0l0,0c0,0,0,0,0,0.1l0,0c-0.1,0.3-0.6,1.6-2.3,2.2
				c-10.5,3.3-3.1,10.9-3.1,10.9h0.7h9.5h0.7C125.5,210.3,132.9,202.6,122.4,199.3z"/>
			<path class="st1" d="M106.5,199.3c-1.7-0.6-2.2-1.9-2.3-2.2l0,0V197l0,0l0,0c0,0,0,0,0,0.1l0,0c-0.1,0.3-0.6,1.6-2.3,2.2
				c-10.5,3.3-3.1,10.9-3.1,10.9h0.7h9.5h0.7C109.6,210.3,117,202.6,106.5,199.3z"/>
		</g>
		<rect x="103.9" y="184.2" class="st1" width="32.2" height="2.3"/>
		<path class="st1" d="M145.3,183.5c0,0-0.7,3-5.8,3c-3.7,0-14.1,0-19.5,0.1c-5.4,0-15.8-0.1-19.5-0.1c-5.1,0-5.8-3-5.8-3
			c-0.9,8.1,5.1,8.1,5.1,8.1h17.3h5.8h17.3C140.2,191.6,146.2,191.6,145.3,183.5z"/>
		<path class="st1" d="M138.3,177.1c-1.3,4.1-5.3,3.8-5.3,3.8l-13,0.1l-13-0.1c0,0-4,0.3-5.3-3.8c0,0-0.8,5.2,2.2,7.1h10.7h10.8
			h10.7C139,182.3,138.3,177.1,138.3,177.1z"/>
		<rect x="107" y="178.3" class="st1" width="26" height="2.7"/>
		<rect x="109" y="175.3" class="st1" width="22" height="3"/>
		<g>
			<path class="st1" d="M134.3,158h-28.6c-0.1-5.2,0.1-16,3.4-22.7c4.4-9,6.1-16.7,6.5-26.2c0.3-7.6-0.9-14.3-1.4-16.7
				c0.5,0.7,1.1,1.3,1.8,1.7c1.1,0.8,2.5,1.2,3.9,1.2c1.5,0,2.8-0.5,3.9-1.2c0.8-0.5,1.5-1.2,2-2c-0.4,2-1.7,9-1.4,17
				c0.3,9.5,2.1,17.2,6.5,26.2C134.2,142,134.4,152.8,134.3,158z"/>
			<path class="st1" d="M123.9,94.2c-0.4-1.3-1.4-2.3-2.7-2.7c-0.4-0.1-0.8-0.2-1.2-0.2s-0.8,0.1-1.2,0.2c-1.3,0.4-2.3,1.4-2.7,2.7
				c1.1,0.8,2.5,1.2,3.9,1.2C121.4,95.4,122.7,95,123.9,94.2z"/>
			<path class="st1" d="M121.2,91.5c3.4-6.8-1-17.6-1.2-18l0,0l0,0c-0.2,0.5-4.6,11.2-1.2,18c0.4-0.1,0.8-0.2,1.2-0.2
				S120.8,91.4,121.2,91.5z"/>
			<polygon class="st1" points="136.2,158 133.6,175.3 106.4,175.3 103.8,158 			"/>
		</g>
	</g>
	<g>
		<path class="st2" d="M179.9,200.7l-47.7-90.8l-1.7-3.2l1.4,3.5l36.9,95.8c0,0,3,11.3,14.4,17.4c0.1,0,0.1,0.1,0.2,0.1
			c0-0.2,0.1-0.3,0.1-0.5C186.4,210.4,179.9,200.7,179.9,200.7z"/>
		<path class="st2" d="M115.9,21.4l4,41.9l0.1,1.8l0.1-1.9l3.9-42c0,0,1.7-11-3.9-19.8c0,0,0-0.1-0.1-0.1c0,0.1-0.1,0.1-0.1,0.2
			C114.3,8.5,115.9,21.4,115.9,21.4z"/>
		<path class="st2" d="M98.2,44.9l12.6,24.9l0.5,1l-0.4-1.2l-7.2-27.5c0,0-0.9-5.5-6.9-9.4c0,0,0,0-0.1,0v0.1
			C94.9,38.3,98.2,44.9,98.2,44.9z"/>
		<path class="st2" d="M141.8,44.9l-12.6,24.9l-0.5,1l0.4-1.2l7.2-27.5c0,0,0.9-5.5,6.9-9.4c0,0,0,0,0.1,0v0.1
			C145,38.3,141.8,44.9,141.8,44.9z"/>
		<path class="st2" d="M175.9,152l-34.6-40.2l-1.2-1.4l1.1,1.6l28.1,44.5c0,0,3.3,5,9.9,6.8h0.1c0-0.1,0-0.2,0-0.2
			C179.7,156.5,175.9,152,175.9,152z"/>
		<path class="st2" d="M171.6,122.1L136.3,98l-1.2-0.9l1.2,1l31.1,28.8c0,0,3.6,3.2,9.1,3.2h0.1c0-0.1,0-0.1,0-0.2
			C175.5,124.7,171.6,122.1,171.6,122.1z"/>
		<path class="st2" d="M68.1,122.1L103.4,98l1.2-0.9l-1.2,1l-31.1,28.8c0,0-3.6,3.2-9.1,3.2h-0.1c0-0.1,0-0.1,0-0.2
			C64.2,124.7,68.1,122.1,68.1,122.1z"/>
		<path class="st2" d="M78.3,97.1l24.5-5.5l1-0.3l-1,0.4l-21.5,10.5c0,0-5.3,2.4-10.7,0.8c0,0,0,0-0.1,0l0.1-0.1
			C72.3,98.4,78.3,97.1,78.3,97.1z"/>
		<path class="st2" d="M162,97.1l-24.5-5.5l-1-0.3l1,0.4l21.5,10.5c0,0,5.3,2.4,10.7,0.8c0,0,0,0,0.1,0l-0.1-0.1
			C168,98.4,162,97.1,162,97.1z"/>
		<path class="st2" d="M155.6,75.3l-20.5,10.4l-0.8,0.4l0.9-0.3l21.4-5.4c0,0,5.2-1.4,7.9-5.6l0,0h-0.1
			C160.6,72.7,155.6,75.3,155.6,75.3z"/>
		<path class="st2" d="M147.2,57.7l-13.4,21.5l-0.6,0.8l0.7-0.8L151,62c0,0,4.1-4.3,4.3-9.8c0,0,0,0,0-0.1h-0.1
			C150.4,52.4,147.2,57.7,147.2,57.7z"/>
		<path class="st2" d="M92.9,57.7l13.4,21.5l0.6,0.8l-0.7-0.8L89,62c0,0-4.1-4.3-4.3-9.8c0,0,0,0,0-0.1h0.1
			C89.6,52.4,92.9,57.7,92.9,57.7z"/>
		<path class="st2" d="M84.3,75.3l20.5,10.4l0.8,0.4l-0.9-0.3l-21.4-5.4c0,0-5.2-1.4-7.9-5.6l0,0h0.1C79.3,72.7,84.3,75.3,84.3,75.3
			z"/>
		<path class="st2" d="M63.6,152l34.6-40.2l1.2-1.4l-1.1,1.6l-28.1,44.5c0,0-3.3,5-9.9,6.8h-0.1c0-0.1,0-0.2,0-0.2
			C59.8,156.5,63.6,152,63.6,152z"/>
		<path class="st2" d="M59.8,200.7l47.7-90.8l1.7-3.2l-1.4,3.5L71,206c0,0-3,11.3-14.4,17.4c-0.1,0-0.1,0.1-0.2,0.1
			c0-0.2-0.1-0.3-0.1-0.5C53.3,210.4,59.8,200.7,59.8,200.7z"/>
	</g>
	<g>
		
			<ellipse transform="matrix(0.1581 -0.9874 0.9874 0.1581 -96.6769 420.4659)" class="st3" cx="198.2" cy="266.9" rx="21.4" ry="5.9"/>
		
			<ellipse transform="matrix(0.6839 -0.7295 0.7295 0.6839 -126.6114 244.6116)" class="st4" cx="219" cy="268.4" rx="22.4" ry="5.9"/>
		
			<ellipse transform="matrix(0.4126 -0.9109 0.9109 0.4126 -85.2081 346.6291)" class="st5" cx="226.2" cy="239.4" rx="20.7" ry="5.9"/>
		
			<ellipse transform="matrix(0.1366 -0.9906 0.9906 0.1366 -12.086 402.8242)" class="st6" cx="225" cy="208.3" rx="21.9" ry="4.9"/>
		
			<ellipse transform="matrix(0.9759 -0.2182 0.2182 0.9759 -48.0929 51.3126)" class="st7" cx="208.3" cy="243.4" rx="4.5" ry="19"/>
		
			<ellipse transform="matrix(0.9212 -0.389 0.389 0.9212 -70.3521 99.7667)" class="st6" cx="211.2" cy="223.6" rx="4.5" ry="17.1"/>
		
			<ellipse transform="matrix(0.7925 -0.6098 0.6098 0.7925 -78.8882 167.538)" class="st8" cx="206.8" cy="199.7" rx="4.5" ry="17.1"/>
		
			<ellipse transform="matrix(0.9966 -8.283269e-02 8.283269e-02 0.9966 -14.5879 18.5948)" class="st9" cx="216.8" cy="185.1" rx="4.5" ry="17.1"/>
		<ellipse transform="matrix(0.7065 -0.7077 0.7077 0.7065 -68.2 194.405)" class="st5" cx="200.3" cy="179.4" rx="3.7" ry="14.1"/>
		<ellipse transform="matrix(0.8075 -0.5898 0.5898 0.8075 -59.874 151.343)" class="st8" cx="202" cy="167.4" rx="3.7" ry="14.8"/>
	</g>
	<g>
		
			<ellipse transform="matrix(0.9874 -0.1581 0.1581 0.9874 -41.6796 9.8694)" class="st3" cx="41.2" cy="266.9" rx="5.9" ry="21.4"/>
		
			<ellipse transform="matrix(0.7295 -0.6839 0.6839 0.7295 -178.001 86.5964)" class="st4" cx="20.5" cy="268.4" rx="5.9" ry="22.4"/>
		
			<ellipse transform="matrix(0.9109 -0.4126 0.4126 0.9109 -97.5995 26.8139)" class="st5" cx="13.3" cy="239.4" rx="5.9" ry="20.7"/>
		<ellipse transform="matrix(0.9906 -0.1366 0.1366 0.9906 -28.319 3.9195)" class="st6" cx="14.4" cy="208.3" rx="4.9" ry="21.9"/>
		
			<ellipse transform="matrix(0.2182 -0.9759 0.9759 0.2182 -213.2129 220.7373)" class="st7" cx="31.2" cy="243.4" rx="19" ry="4.5"/>
		
			<ellipse transform="matrix(0.389 -0.9212 0.9212 0.389 -188.7277 162.6212)" class="st6" cx="28.2" cy="223.6" rx="17.1" ry="4.5"/>
		
			<ellipse transform="matrix(0.6098 -0.7925 0.7925 0.6098 -145.5074 103.8227)" class="st8" cx="32.7" cy="199.7" rx="17.1" ry="4.5"/>
		
			<ellipse transform="matrix(8.283270e-02 -0.9966 0.9966 8.283270e-02 -163.6587 192.39)" class="st9" cx="22.7" cy="185.1" rx="17.1" ry="4.5"/>
		
			<ellipse transform="matrix(0.7077 -0.7065 0.7065 0.7077 -115.2949 80.1028)" class="st5" cx="39.2" cy="179.4" rx="14.1" ry="3.7"/>
		
			<ellipse transform="matrix(0.5898 -0.8075 0.8075 0.5898 -119.8332 98.9215)" class="st8" cx="37.5" cy="167.4" rx="14.8" ry="3.7"/>
	</g>
	<g>
		<path class="st10" d="M39.4,305.1l1.2,0.4c0,0.1,0,0.3,0,0.4s0,0.3-0.1,0.5c0,0.2-0.1,0.3-0.1,0.5s-0.1,0.3-0.1,0.4l-1.7,4.8
			c-0.1,0.3-0.1,0.6-0.1,0.8c0.1,0.2,0.2,0.4,0.4,0.6s0.4,0.3,0.7,0.4s0.5,0.2,0.8,0.3c0.2,0.1,0.5,0.1,0.8,0.2s0.5,0,0.8,0
			c0.2-0.1,0.5-0.2,0.7-0.3c0.2-0.2,0.4-0.4,0.5-0.7l1.7-4.7c0-0.1,0.1-0.3,0.1-0.4c0-0.2,0-0.3,0-0.5s0-0.3,0-0.4s0-0.3,0-0.4
			l1.2,0.4c0,0.1,0.1,0.3,0,0.4s0,0.3,0,0.5s-0.1,0.3-0.1,0.4S46,309,46,309.1l-1.8,4.9c-0.1,0.4-0.4,0.7-0.7,0.9
			c-0.3,0.2-0.6,0.4-1,0.5s-0.8,0.1-1.2,0.1s-0.8-0.1-1.1-0.2c-0.2-0.1-0.4-0.2-0.7-0.3c-0.2-0.1-0.5-0.2-0.7-0.3
			c-0.2-0.1-0.4-0.3-0.6-0.4c-0.2-0.2-0.3-0.4-0.5-0.6c-0.1,0.1-0.2,0.2-0.4,0.2c-0.1,0-0.3,0.1-0.5,0.1s-0.3,0-0.5,0
			s-0.3-0.1-0.4-0.1c-0.2-0.1-0.4-0.2-0.6-0.3s-0.3-0.3-0.3-0.5c-0.1-0.2-0.1-0.4-0.1-0.6s0-0.4,0.1-0.6s0.2-0.4,0.3-0.5
			c0.1-0.2,0.3-0.3,0.5-0.4s0.4-0.1,0.6-0.2c0.2,0,0.4,0,0.6,0.1c0.1,0,0.2,0.1,0.3,0.1c0.1,0.1,0.2,0.1,0.3,0.2l1.6-4.4
			c0-0.1,0.1-0.3,0.1-0.4c0-0.2,0-0.3,0.1-0.5c0-0.2,0-0.3,0-0.5S39.4,305.3,39.4,305.1z M35.8,312.3c-0.1,0.2-0.1,0.4,0,0.6
			s0.2,0.3,0.4,0.4s0.4,0.1,0.6,0c0.2-0.1,0.3-0.2,0.4-0.4s0.1-0.4,0-0.6s-0.2-0.3-0.4-0.4s-0.4-0.1-0.6,0
			C36,311.9,35.9,312.1,35.8,312.3z"/>
		<path class="st10" d="M46.1,314.1c0.1-0.2,0.2-0.4,0.3-0.5c0.1-0.2,0.3-0.3,0.5-0.4s0.4-0.2,0.6-0.2c0.2,0,0.4,0,0.6,0.1
			c0.2,0.1,0.4,0.2,0.5,0.3s0.3,0.3,0.4,0.5c0.1,0.2,0.1,0.4,0.2,0.6c0,0.2,0,0.4-0.1,0.6s-0.2,0.4-0.3,0.5s-0.3,0.3-0.4,0.4
			c0.1,0.1,0.3,0.2,0.5,0.3c0.2,0.1,0.4,0.2,0.5,0.2c0.4,0.1,0.7,0.2,1.1,0.2c0.4,0,0.7,0,1-0.1s0.6-0.3,0.8-0.5s0.4-0.6,0.6-1
			l1.1,0.3c-0.2,0.6-0.5,1.1-0.8,1.4c-0.4,0.3-0.8,0.6-1.2,0.7c-0.5,0.2-1,0.2-1.5,0.2s-1-0.1-1.6-0.3c-0.4-0.1-0.8-0.3-1.2-0.6
			c-0.4-0.3-0.8-0.6-1.2-1c-0.1-0.1-0.2-0.2-0.2-0.3s-0.1-0.3-0.1-0.4c0-0.2,0-0.3,0-0.4C46,314.4,46,314.2,46.1,314.1z M46.9,314.3
			c-0.1,0.2,0,0.4,0,0.6c0.1,0.2,0.2,0.3,0.4,0.4s0.4,0,0.6,0s0.3-0.2,0.4-0.4c0.1-0.2,0-0.4,0-0.6s-0.2-0.3-0.4-0.4s-0.4,0-0.6,0
			S46.9,314.1,46.9,314.3z M47.2,310.4c0.1-0.2,0.2-0.4,0.3-0.5c0.1-0.2,0.3-0.3,0.5-0.4s0.4-0.2,0.6-0.2c0.2,0,0.4,0,0.6,0.1
			c0.2,0.1,0.4,0.2,0.5,0.3s0.3,0.3,0.4,0.5s0.1,0.4,0.2,0.6c0,0.2,0,0.4-0.1,0.6s-0.2,0.4-0.3,0.5s-0.3,0.3-0.4,0.4
			c0.1,0.1,0.3,0.2,0.5,0.3c0.2,0.1,0.4,0.2,0.5,0.2c0.4,0.1,0.7,0.2,1.1,0.2c0.4,0,0.7,0,1-0.1s0.6-0.3,0.8-0.5s0.4-0.6,0.6-1
			l1.1,0.3c-0.2,0.6-0.5,1.1-0.8,1.4c-0.4,0.3-0.8,0.6-1.2,0.7c-0.5,0.2-1,0.2-1.5,0.2s-1-0.1-1.6-0.3c-0.4-0.1-0.8-0.3-1.2-0.6
			c-0.4-0.3-0.8-0.6-1.2-1c-0.1-0.1-0.2-0.2-0.2-0.3s-0.1-0.3-0.1-0.4c0-0.2,0-0.3,0-0.5C47.2,310.6,47.2,310.5,47.2,310.4z
			 M48,310.6c-0.1,0.2,0,0.4,0,0.6c0.1,0.2,0.2,0.3,0.4,0.4s0.4,0,0.6,0s0.3-0.2,0.4-0.4c0.1-0.2,0-0.4,0-0.6
			c-0.1-0.2-0.2-0.3-0.4-0.4s-0.4,0-0.6,0S48.1,310.4,48,310.6z"/>
		<path class="st10" d="M64.6,321c0,0.1-0.1,0.2-0.1,0.4c0,0.1-0.1,0.3-0.2,0.4s-0.1,0.2-0.2,0.4s-0.1,0.2-0.2,0.3l-1.3-0.3
			c0.1-0.1,0.2-0.2,0.3-0.3c0.1-0.1,0.2-0.2,0.3-0.4c0.1-0.1,0.1-0.3,0.2-0.4s0.1-0.3,0.1-0.4l1.4-5.3c0-0.1,0.1-0.2,0.1-0.4
			s0-0.3,0-0.4s-0.1-0.2-0.1-0.3c-0.1-0.1-0.2-0.2-0.3-0.2c-0.1,0-0.2,0-0.3,0.1c-0.1,0.1-0.3,0.1-0.4,0.2s-0.3,0.1-0.5,0.2
			s-0.4,0.1-0.6,0c-0.1,0-0.2-0.1-0.3-0.1c-0.1-0.1-0.2-0.1-0.3-0.2c0,0.3-0.1,0.5-0.1,0.8c-0.1,0.3-0.1,0.5-0.2,0.7l-0.9,3.4
			c-0.1,0.4-0.3,0.8-0.5,1.1c-0.2,0.3-0.5,0.5-0.8,0.7s-0.6,0.2-1,0.3c-0.4,0-0.8,0-1.2-0.1c-0.5-0.1-0.9-0.3-1.2-0.5
			s-0.6-0.4-0.8-0.7c-0.2-0.3-0.3-0.6-0.4-1s0-0.8,0.1-1.3c0.1-0.3,0.2-0.7,0.4-1s0.4-0.6,0.6-0.9c0.2-0.3,0.5-0.5,0.7-0.8
			s0.5-0.5,0.7-0.7c-0.2,0-0.3-0.1-0.5-0.2s-0.3-0.2-0.4-0.4s-0.2-0.3-0.2-0.5s0-0.4,0-0.6s0.2-0.4,0.3-0.6s0.3-0.3,0.4-0.4
			c0.2-0.1,0.4-0.2,0.6-0.2c0.2,0,0.4,0,0.7,0c0.2,0.1,0.4,0.2,0.6,0.3c0.2,0.1,0.3,0.3,0.4,0.4c0.1,0.2,0.2,0.4,0.2,0.6
			s0,0.4,0,0.7c-0.1,0.2-0.2,0.5-0.4,0.7s-0.4,0.5-0.6,0.8c-0.2,0.3-0.5,0.5-0.7,0.8c-0.3,0.3-0.5,0.5-0.7,0.8s-0.4,0.5-0.6,0.8
			c-0.2,0.3-0.3,0.5-0.4,0.8c-0.1,0.3-0.1,0.6,0,0.8s0.2,0.4,0.3,0.5c0.1,0.2,0.3,0.3,0.5,0.4s0.5,0.2,0.7,0.2
			c0.2,0.1,0.4,0.1,0.7,0.1c0.2,0,0.4-0.1,0.6-0.2c0.2-0.1,0.4-0.2,0.5-0.4s0.3-0.4,0.3-0.6l1.1-4.3c0.1-0.3,0.1-0.7,0.1-1
			s-0.1-0.7-0.3-1L62,312c0,0.2,0.1,0.3,0.2,0.5c0.1,0.2,0.1,0.3,0.2,0.4c0.1,0.1,0.2,0.2,0.3,0.3c0.1,0.1,0.2,0.1,0.4,0.2
			c0.1,0,0.2,0,0.4-0.1c0.1-0.1,0.2-0.2,0.4-0.2c0.1-0.1,0.3-0.2,0.4-0.2c0.2-0.1,0.4-0.1,0.6,0c0.6,0.2,1,0.4,1.2,0.8
			s0.3,0.9,0.1,1.5L64.6,321z M58.8,312.9c0.1-0.2,0-0.4-0.1-0.5c-0.1-0.2-0.3-0.3-0.5-0.3c-0.2-0.1-0.4,0-0.6,0.1
			c-0.2,0.1-0.3,0.2-0.3,0.4c-0.1,0.2,0,0.4,0.1,0.6s0.2,0.3,0.4,0.3c0.2,0.1,0.4,0,0.6-0.1S58.8,313.1,58.8,312.9z"/>
		<path class="st10" d="M69.3,315.7c0.1,0,0.2,0,0.3,0c0.1,0,0.2,0,0.3,0c0.2,0,0.4,0.1,0.6,0.2s0.3,0.3,0.4,0.4
			c0.1,0.2,0.2,0.3,0.2,0.5s0,0.4,0,0.6s-0.1,0.4-0.2,0.6s-0.3,0.3-0.4,0.4s-0.3,0.2-0.5,0.2s-0.4,0-0.6,0c-0.3-0.1-0.6-0.2-0.8-0.3
			c-0.2-0.1-0.4-0.3-0.5-0.5s-0.2-0.4-0.2-0.7c0-0.3,0-0.5,0.1-0.8s0.2-0.6,0.5-0.9c0.2-0.3,0.5-0.5,0.9-0.7
			c0.3-0.2,0.7-0.3,1.1-0.4s0.8-0.1,1.2,0c0.4,0.1,0.8,0.3,1.2,0.5s0.7,0.5,1,0.8s0.5,0.7,0.6,1.1s0.1,0.8,0,1.3l-1,4.5
			c0,0,0,0.1,0,0.2s-0.1,0.2-0.1,0.3c0,0.1-0.1,0.2-0.1,0.4c-0.1,0.1-0.1,0.3-0.1,0.4s-0.1,0.2-0.1,0.3c0,0.1-0.1,0.1-0.1,0.2
			l-1.3-0.3c0,0,0.1-0.1,0.2-0.3c0.1-0.1,0.2-0.3,0.3-0.5s0.2-0.4,0.3-0.6s0.1-0.4,0.2-0.5l1-4.6c0.1-0.2,0-0.5-0.1-0.7
			s-0.3-0.5-0.5-0.7s-0.4-0.4-0.7-0.5c-0.3-0.1-0.5-0.2-0.8-0.3c-0.2,0-0.4-0.1-0.5-0.1c-0.2,0-0.4,0-0.5,0c-0.2,0-0.3,0.1-0.5,0.1
			C69.5,315.6,69.4,315.7,69.3,315.7z M70.2,317.4c0-0.2,0-0.4-0.1-0.5c-0.1-0.2-0.3-0.3-0.5-0.3s-0.4,0-0.6,0.1s-0.3,0.3-0.3,0.5
			s0,0.4,0.1,0.6s0.3,0.3,0.5,0.3s0.4,0,0.5-0.1C70.1,317.8,70.2,317.6,70.2,317.4z"/>
		<path class="st10" d="M84,323.2c-0.1,0.6-0.3,1.1-0.7,1.5c-0.3,0.4-0.7,0.6-1.2,0.8c-0.5,0.2-1,0.3-1.5,0.3s-1.1,0-1.6-0.1
			c-0.3,0-0.5-0.1-0.8-0.2s-0.6-0.2-0.8-0.4c-0.3-0.1-0.5-0.3-0.8-0.5c-0.2-0.2-0.5-0.4-0.6-0.7c-0.2-0.2-0.3-0.5-0.4-0.8
			s-0.1-0.6,0-0.9c0-0.3,0.1-0.5,0.3-0.7s0.3-0.4,0.5-0.5s0.4-0.2,0.6-0.2s0.5,0,0.7,0c0.5,0.1,0.8,0.3,1,0.6s0.3,0.7,0.2,1.2
			c-0.1,0.4-0.2,0.7-0.5,1c-0.2,0.2-0.5,0.3-0.9,0.3c0.1,0.1,0.2,0.2,0.4,0.2c0.2,0.1,0.3,0.1,0.5,0.2s0.3,0.1,0.5,0.2
			c0.2,0,0.3,0.1,0.4,0.1c0.4,0.1,0.8,0.1,1.2,0.1s0.8,0,1.1-0.1s0.6-0.3,0.9-0.5c0.3-0.3,0.4-0.6,0.5-1.1l0.5-2.6
			c0.1-0.5,0.1-0.9-0.1-1.2s-0.3-0.6-0.6-0.9c-0.3-0.2-0.6-0.4-1-0.6s-0.7-0.3-1.1-0.3c-0.2,0-0.3,0-0.5-0.1c-0.2,0-0.4,0-0.6,0
			s-0.4,0-0.7,0.1c-0.2,0-0.4,0.1-0.6,0.2s-0.3,0.2-0.5,0.4c-0.1,0.1-0.2,0.3-0.2,0.5l-1.1-0.2c0.1-0.3,0.2-0.6,0.3-0.9
			c0.2-0.2,0.4-0.4,0.6-0.6s0.5-0.3,0.8-0.4s0.6-0.2,0.9-0.2s0.6,0,0.9,0s0.6,0,0.9,0.1c0.5,0.1,1.1,0.3,1.6,0.5s0.9,0.5,1.3,0.9
			c0.4,0.3,0.6,0.8,0.8,1.2c0.2,0.5,0.2,1,0.1,1.6L84,323.2z M78,322.5c0-0.2,0-0.4-0.1-0.5s-0.3-0.3-0.5-0.3s-0.4,0-0.6,0.1
			s-0.3,0.3-0.3,0.5s0,0.4,0.1,0.6s0.3,0.3,0.5,0.3s0.4,0,0.5-0.1C77.9,322.9,78,322.7,78,322.5z"/>
		<path class="st10" d="M81.7,314.5c0-0.3,0.3-0.5,0.9-0.5c0.8-0.1,1.2-0.4,1.4-0.9c0.1-0.7-0.9-1.3-2.8-1.7c-1.9-0.2-3,0.1-3.1,0.8
			c0,0.5,0.4,0.9,1.1,1.2c0.5,0.2,0.8,0.4,0.7,0.7c0,0.3-0.3,0.4-0.8,0.3c-1.4-0.6-2.1-1.4-2-2.5c0.3-1.4,1.7-1.9,4.3-1.7
			c2.6,0.5,3.8,1.5,3.6,2.9c-0.2,1-1.1,1.6-2.7,1.7C81.9,315,81.7,314.8,81.7,314.5z"/>
		<path class="st10" d="M95.5,326.4c0,0.2-0.1,0.4-0.1,0.5s-0.1,0.3-0.1,0.4s-0.1,0.2-0.1,0.3c-0.1,0.1-0.1,0.2-0.2,0.3l-1.4-0.2
			c0.1-0.1,0.2-0.2,0.3-0.3c0.1-0.1,0.1-0.2,0.2-0.3c0.1-0.1,0.1-0.2,0.2-0.3c0-0.1,0.1-0.2,0.1-0.4l0.6-5c0-0.2,0-0.5,0-0.7
			s-0.1-0.5-0.2-0.6c-0.1-0.2-0.2-0.4-0.4-0.5s-0.4-0.2-0.7-0.3c-0.3,0-0.5,0-0.7,0.1s-0.4,0.2-0.5,0.3s-0.2,0.3-0.3,0.5
			c-0.1,0.2-0.1,0.4-0.2,0.7l-0.5,4c-0.1,0.4-0.2,0.8-0.3,1.1s-0.4,0.6-0.7,0.8c-0.3,0.2-0.6,0.3-0.9,0.4c-0.4,0.1-0.7,0.1-1.2,0
			s-0.9-0.2-1.2-0.3c-0.4-0.1-0.7-0.3-0.9-0.6s-0.4-0.5-0.5-0.9s-0.1-0.8,0-1.3c0-0.2,0.1-0.5,0.3-0.9c0.1-0.3,0.3-0.7,0.6-1
			c0.2-0.3,0.5-0.6,0.7-0.9s0.5-0.5,0.7-0.8c-0.2,0-0.5-0.1-0.7-0.2s-0.4-0.2-0.5-0.3c-0.1-0.1-0.2-0.3-0.3-0.5s-0.1-0.4-0.1-0.7
			c0-0.2,0.1-0.4,0.2-0.6s0.2-0.3,0.4-0.4c0.2-0.1,0.3-0.2,0.5-0.2s0.4-0.1,0.6,0c0.2,0,0.4,0.1,0.6,0.2s0.4,0.2,0.5,0.3
			s0.2,0.3,0.3,0.5s0.1,0.4,0,0.7c0,0.3-0.1,0.6-0.3,0.9c-0.1,0.3-0.3,0.6-0.5,0.9s-0.4,0.6-0.7,0.9c-0.2,0.3-0.5,0.6-0.7,0.9
			s-0.4,0.6-0.5,0.9s-0.2,0.5-0.2,0.7c0,0.3,0,0.6,0.1,0.8c0.1,0.2,0.2,0.4,0.3,0.5s0.3,0.2,0.6,0.3c0.2,0.1,0.5,0.1,0.7,0.1
			s0.4,0,0.7,0c0.2,0,0.4-0.1,0.6-0.2s0.3-0.3,0.4-0.4s0.2-0.4,0.2-0.6l0.5-3.9c0.1-0.4,0.1-0.8,0.3-1.1c0.1-0.3,0.3-0.6,0.5-0.9
			c0.2-0.2,0.5-0.4,0.8-0.5s0.7-0.1,1.2-0.1c0.5,0.1,0.9,0.2,1.2,0.4c0.3,0.2,0.6,0.4,0.8,0.7c0.2,0.3,0.3,0.6,0.4,1s0.1,0.8,0,1.2
			L95.5,326.4z M88.8,319.1c0-0.2,0-0.4-0.1-0.5c-0.1-0.2-0.3-0.2-0.5-0.3s-0.4,0-0.5,0.1c-0.2,0.1-0.2,0.3-0.3,0.5
			c0,0.2,0,0.4,0.1,0.6s0.3,0.2,0.5,0.3c0.2,0,0.4,0,0.5-0.1C88.7,319.5,88.8,319.3,88.8,319.1z"/>
		<path class="st10" d="M97.9,325c0-0.2,0.1-0.4,0.2-0.6s0.2-0.3,0.4-0.5s0.3-0.2,0.5-0.3s0.4-0.1,0.6-0.1s0.4,0.1,0.6,0.2
			s0.3,0.2,0.5,0.4s0.2,0.3,0.3,0.5c0.1,0.2,0.1,0.4,0.1,0.6s-0.1,0.4-0.2,0.6s-0.2,0.3-0.3,0.4c0.2,0.1,0.3,0.1,0.5,0.2
			s0.4,0.1,0.6,0.1c0.4,0,0.8,0,1.1,0c0.4-0.1,0.7-0.2,1-0.3c0.3-0.2,0.5-0.4,0.7-0.7c0.2-0.3,0.3-0.7,0.3-1.1l1.1,0.1
			c-0.1,0.6-0.2,1.1-0.5,1.5s-0.6,0.7-1.1,1c-0.4,0.2-0.9,0.4-1.4,0.5s-1,0.1-1.6,0.1c-0.4,0-0.9-0.1-1.3-0.3
			c-0.5-0.2-0.9-0.4-1.4-0.7c-0.1-0.1-0.2-0.2-0.3-0.3c-0.1-0.1-0.2-0.2-0.2-0.4c-0.1-0.1-0.1-0.3-0.1-0.4
			C97.9,325.3,97.9,325.2,97.9,325z M98.2,321.2c0-0.2,0.1-0.4,0.2-0.6s0.2-0.3,0.4-0.5s0.3-0.2,0.5-0.3s0.4-0.1,0.6-0.1
			s0.4,0.1,0.6,0.2s0.3,0.2,0.5,0.4s0.2,0.3,0.3,0.5c0.1,0.2,0.1,0.4,0.1,0.6s-0.1,0.4-0.2,0.6s-0.2,0.3-0.3,0.4
			c0.2,0.1,0.3,0.1,0.5,0.2s0.4,0.1,0.6,0.1c0.4,0,0.8,0,1.1,0c0.4-0.1,0.7-0.2,1-0.3c0.3-0.2,0.5-0.4,0.7-0.7
			c0.2-0.3,0.3-0.7,0.3-1.1l1.1,0.1c-0.1,0.6-0.2,1.1-0.5,1.5s-0.6,0.7-1.1,1c-0.4,0.2-0.9,0.4-1.4,0.5s-1,0.1-1.6,0.1
			c-0.4,0-0.9-0.1-1.3-0.3c-0.5-0.2-0.9-0.4-1.4-0.7c-0.1-0.1-0.2-0.2-0.3-0.3c-0.1-0.1-0.2-0.2-0.2-0.4c-0.1-0.1-0.1-0.3-0.1-0.4
			C98.2,321.4,98.2,321.3,98.2,321.2z M98.7,325.1c0,0.2,0,0.4,0.2,0.5s0.3,0.2,0.5,0.3c0.2,0,0.4,0,0.5-0.2s0.2-0.3,0.3-0.5
			c0-0.2,0-0.4-0.2-0.5c-0.1-0.2-0.3-0.2-0.5-0.3c-0.2,0-0.4,0-0.5,0.2S98.7,324.9,98.7,325.1z M99,321.2c0,0.2,0,0.4,0.2,0.5
			s0.3,0.2,0.5,0.3c0.2,0,0.4,0,0.5-0.2s0.2-0.3,0.3-0.5s0-0.4-0.2-0.5c-0.1-0.2-0.3-0.2-0.5-0.3c-0.2,0-0.4,0-0.5,0.2
			S99,321,99,321.2z"/>
		<path class="st10" d="M116.4,320c0,0.1,0.1,0.2,0.1,0.3s0.1,0.3,0.1,0.4s0,0.3,0.1,0.4c0,0.1,0,0.2,0,0.4l-0.2,5.3
			c0,0.3-0.1,0.6-0.2,0.8s-0.3,0.5-0.5,0.7s-0.5,0.4-0.8,0.5s-0.6,0.2-0.9,0.3c-0.3,0.1-0.6,0.1-0.9,0.2c-0.3,0-0.6,0-0.8,0
			c-0.4,0-0.9-0.1-1.4-0.2s-1-0.3-1.5-0.5c-0.2-0.1-0.5-0.3-0.7-0.4c-0.2-0.2-0.4-0.3-0.6-0.6c-0.2-0.2-0.3-0.4-0.4-0.7
			c-0.1-0.2-0.1-0.5-0.1-0.8c0-0.2,0-0.3,0.1-0.5s0.1-0.3,0.2-0.4s0.2-0.2,0.4-0.3c0.1-0.1,0.3-0.2,0.4-0.2
			c-0.2-0.1-0.3-0.2-0.4-0.4s-0.2-0.3-0.3-0.5c-0.1-0.2-0.2-0.4-0.2-0.6s-0.1-0.4-0.1-0.6c0-0.6,0.1-1,0.3-1.4
			c0.2-0.4,0.4-0.7,0.7-1c0.3-0.2,0.6-0.4,0.9-0.5s0.6-0.2,0.9-0.2c0.2,0,0.4,0.1,0.6,0.1c0.2,0.1,0.3,0.2,0.5,0.4
			c0.1,0.2,0.2,0.3,0.3,0.5c0.1,0.2,0.1,0.4,0.1,0.6s0,0.3-0.1,0.5s-0.2,0.3-0.3,0.5c-0.1,0.1-0.3,0.3-0.5,0.3
			c-0.2,0.1-0.4,0.1-0.6,0.1c-0.4,0-0.7-0.1-0.9-0.3s-0.4-0.5-0.5-0.8c-0.1,0.1-0.1,0.2-0.1,0.3s-0.1,0.2-0.1,0.2c0,0.1,0,0.2,0,0.2
			c0,0.1,0,0.2,0,0.3c0,0.3,0,0.5,0.2,0.7c0.1,0.2,0.3,0.4,0.5,0.5s0.4,0.2,0.7,0.3s0.5,0.1,0.7,0.1c0.1,0,0.3,0,0.4,0s0.3,0,0.4,0
			l0.1,1.1c-0.1,0-0.2,0-0.4,0c-0.2,0-0.4,0-0.6,0s-0.5,0.1-0.7,0.1s-0.5,0.1-0.7,0.2s-0.4,0.2-0.5,0.3c-0.1,0.1-0.2,0.2-0.2,0.4
			c0,0.1,0,0.3,0.1,0.4s0.1,0.3,0.3,0.4c0.1,0.1,0.2,0.2,0.4,0.3c0.1,0.1,0.3,0.2,0.4,0.3c0.2,0.1,0.4,0.2,0.6,0.3
			c0.2,0.1,0.4,0.1,0.7,0.2s0.4,0.1,0.6,0.1s0.3,0,0.5,0c0.3,0,0.7,0,1-0.1s0.7-0.2,0.9-0.3c0.3-0.2,0.5-0.4,0.7-0.6
			c0.2-0.3,0.3-0.6,0.3-1l0.2-4.1c0-0.2,0-0.3,0-0.5s0-0.4,0-0.6s-0.1-0.4-0.1-0.6c-0.1-0.2-0.1-0.3-0.2-0.5L116.4,320z
			 M111.6,321.2c0-0.2,0-0.4-0.2-0.5c-0.1-0.1-0.3-0.2-0.5-0.2s-0.4,0-0.6,0.2c-0.2,0.1-0.2,0.3-0.2,0.5s0.1,0.4,0.2,0.5
			c0.1,0.2,0.3,0.2,0.5,0.2s0.4-0.1,0.5-0.2C111.5,321.6,111.6,321.4,111.6,321.2z"/>
		<path class="st10" d="M120.3,321.6c0.1,0,0.2-0.1,0.3-0.1c0.1,0,0.2,0,0.3,0c0.2,0,0.5,0,0.6,0.1s0.3,0.2,0.5,0.3
			c0.1,0.1,0.2,0.3,0.3,0.5c0.1,0.2,0.1,0.4,0.1,0.6s0,0.4-0.1,0.6s-0.2,0.4-0.3,0.5s-0.3,0.3-0.5,0.3c-0.2,0.1-0.4,0.1-0.6,0.1
			c-0.3,0-0.6,0-0.8-0.1c-0.2-0.1-0.4-0.2-0.6-0.4c-0.1-0.2-0.3-0.4-0.3-0.6c-0.1-0.2-0.1-0.5-0.1-0.8s0.1-0.7,0.3-1
			c0.2-0.3,0.4-0.6,0.7-0.9s0.6-0.5,1-0.6c0.4-0.2,0.8-0.2,1.1-0.2c0.4,0,0.9,0.1,1.3,0.2s0.8,0.3,1.1,0.6c0.3,0.3,0.6,0.6,0.8,0.9
			s0.3,0.8,0.3,1.2v4.6c0,0,0,0.1,0,0.2s0,0.2,0,0.3c0,0.1,0,0.3-0.1,0.4c0,0.1,0,0.3-0.1,0.4c0,0.1,0,0.2-0.1,0.3
			c0,0.1,0,0.2,0,0.2h-1.3c0,0,0-0.1,0.1-0.3s0.1-0.3,0.1-0.5s0.1-0.4,0.1-0.6s0.1-0.4,0.1-0.5v-4.7c0-0.2-0.1-0.5-0.2-0.7
			c-0.2-0.2-0.4-0.4-0.6-0.5s-0.5-0.3-0.8-0.3c-0.3-0.1-0.6-0.1-0.8-0.1c-0.2,0-0.4,0-0.5,0.1c-0.2,0-0.4,0.1-0.5,0.1
			s-0.3,0.1-0.4,0.2C120.4,321.5,120.3,321.5,120.3,321.6z M121.5,323c0-0.2-0.1-0.4-0.2-0.5s-0.3-0.2-0.5-0.2s-0.4,0.1-0.5,0.2
			s-0.2,0.3-0.2,0.5s0.1,0.4,0.2,0.5s0.3,0.2,0.5,0.2s0.4-0.1,0.5-0.2C121.5,323.4,121.5,323.3,121.5,323z"/>
		<path class="st10" d="M133.7,327.7c0,0.2,0,0.4-0.1,0.6s-0.2,0.4-0.3,0.5s-0.3,0.2-0.5,0.3s-0.4,0.1-0.6,0.1c-0.2,0-0.5,0-0.7-0.1
			s-0.4-0.2-0.6-0.3c-0.2-0.1-0.3-0.3-0.4-0.6s-0.2-0.5-0.2-0.8l-0.2-5.5c0-0.3,0-0.5,0.1-0.7c0-0.2,0.1-0.3,0.2-0.4
			s0.2-0.2,0.4-0.4c0.2-0.1,0.3-0.2,0.5-0.4c0.1-0.1,0.2-0.1,0.3-0.2s0.2-0.1,0.4-0.2c0.1-0.1,0.2-0.2,0.3-0.3
			c0.1-0.1,0.1-0.2,0.1-0.3c0-0.1,0-0.1-0.1-0.2c-0.1,0-0.1,0-0.2,0c-0.1,0-0.3,0-0.4,0.1c-0.1,0.1-0.3,0.2-0.4,0.3
			s-0.3,0.2-0.5,0.3c-0.2,0.1-0.3,0.1-0.5,0.1s-0.3,0-0.5-0.1s-0.2-0.1-0.4-0.2c-0.1-0.1-0.2-0.3-0.3-0.4c-0.1-0.2-0.2-0.4-0.3-0.7
			c-0.1-0.4-0.3-0.7-0.4-1c-0.2-0.3-0.3-0.7-0.5-1s-0.4-0.6-0.7-0.9s-0.5-0.6-0.9-1l0.7-0.9c0.3,0.2,0.6,0.5,0.9,0.9
			c0.3,0.3,0.5,0.7,0.7,1s0.4,0.7,0.6,1.1c0.2,0.4,0.3,0.8,0.5,1.1c0,0.1,0.1,0.1,0.1,0.2s0.1,0.2,0.1,0.3s0.1,0.2,0.1,0.3
			c0.1,0.1,0.1,0.1,0.2,0.1c0.1,0,0.3,0,0.4-0.1c0.1-0.1,0.3-0.2,0.4-0.3c0.1-0.1,0.3-0.2,0.4-0.3c0.1-0.1,0.3-0.1,0.5-0.1
			s0.4,0,0.6,0.1s0.3,0.1,0.5,0.2c0.1,0.1,0.2,0.2,0.3,0.4c0.1,0.1,0.1,0.3,0.1,0.5c0,0.3,0,0.5-0.1,0.7s-0.2,0.4-0.4,0.5
			c-0.2,0.2-0.4,0.3-0.6,0.4c-0.2,0.1-0.4,0.3-0.6,0.4s-0.3,0.3-0.4,0.5c-0.1,0.2-0.2,0.4-0.1,0.6l0.2,4.3c0.1,0,0.3-0.1,0.4-0.1
			c0.1,0,0.3-0.1,0.4-0.1c0.5,0,0.9,0.1,1.1,0.4C133.5,326.8,133.7,327.2,133.7,327.7z M132.9,327.7c0-0.1,0-0.2-0.1-0.3
			c0-0.1-0.1-0.2-0.2-0.2s-0.2-0.1-0.2-0.1c-0.1,0-0.2,0-0.3,0s-0.2,0-0.3,0.1c-0.1,0-0.2,0.1-0.2,0.2c-0.1,0.1-0.1,0.1-0.1,0.2
			s-0.1,0.2,0,0.3c0,0.1,0,0.2,0.1,0.3s0.1,0.2,0.2,0.2s0.1,0.1,0.2,0.2s0.2,0.1,0.3,0c0.2,0,0.4-0.1,0.5-0.2
			C132.8,328.1,132.9,327.9,132.9,327.7z"/>
		<path class="st10" d="M138,326.5c0.1-0.1,0.1-0.2,0.2-0.3c0.1-0.1,0.2-0.2,0.3-0.2c0.1-0.1,0.2-0.1,0.3-0.2c0.1,0,0.2-0.1,0.3-0.1
			c0.2,0,0.4,0,0.6,0.1c0.2,0.1,0.4,0.1,0.5,0.3c0.2,0.1,0.3,0.3,0.4,0.5c0.1,0.2,0.2,0.4,0.2,0.6s0,0.4-0.1,0.6s-0.2,0.4-0.3,0.5
			s-0.3,0.3-0.5,0.4s-0.4,0.2-0.6,0.2c-0.3,0-0.6,0-0.9,0c-0.3-0.1-0.6-0.2-0.8-0.4c-0.2-0.2-0.4-0.4-0.6-0.7s-0.3-0.7-0.3-1.2
			c0-0.4,0-0.8,0.2-1.2c0.2-0.3,0.4-0.6,0.7-0.8s0.6-0.4,1-0.5s0.7-0.2,1.1-0.2c0.4,0,0.7,0,1,0.1s0.5,0.2,0.7,0.4
			c0.2,0.2,0.4,0.4,0.6,0.7c0.2,0.3,0.3,0.5,0.5,0.8c0.1,0.2,0.2,0.4,0.3,0.6s0.2,0.4,0.3,0.5s0.2,0.2,0.2,0.3s0.2,0.1,0.3,0.1
			s0.2-0.1,0.3-0.2s0.2-0.3,0.2-0.5s0.1-0.4,0.1-0.7c0-0.2,0-0.5,0-0.8s0-0.5,0-0.8s0-0.5,0-0.7c0-0.6-0.1-1-0.2-1.4
			c-0.1-0.4-0.2-0.7-0.4-1c-0.1-0.3-0.3-0.5-0.5-0.6c-0.2-0.2-0.3-0.3-0.5-0.4c-0.1-0.1-0.3-0.1-0.5-0.2s-0.4-0.1-0.6-0.1
			c-0.2,0-0.4,0-0.6,0c-0.2,0-0.4,0-0.5,0c-0.2,0-0.3,0-0.4,0c-0.1,0-0.3,0-0.4,0c-0.1,0-0.2,0-0.4,0.1c-0.1,0-0.2,0.1-0.4,0.1
			c-0.1,0-0.3,0.1-0.4,0.1c-0.2,0.1-0.3,0.1-0.4,0.2s-0.3,0.1-0.3,0.2c-0.1,0.1-0.1,0.2-0.1,0.3c0,0.1,0,0.1,0.1,0.2
			s0.1,0.1,0.2,0.1s0.1,0.1,0.2,0.1c0.1,0,0.1,0.1,0.1,0.1l-0.6,0.9c-0.3-0.1-0.5-0.3-0.7-0.5s-0.3-0.5-0.3-0.8s0-0.6,0.1-0.8
			c0.1-0.2,0.3-0.4,0.5-0.6s0.4-0.3,0.7-0.4s0.5-0.2,0.8-0.3c0.1,0,0.2-0.1,0.4-0.1s0.3-0.1,0.5-0.1s0.3-0.1,0.5-0.1s0.3,0,0.4,0
			c0.2,0,0.5,0,0.7,0c0.3,0,0.6,0,0.8,0c0.3,0,0.6,0.1,0.8,0.1c0.3,0.1,0.5,0.2,0.7,0.3c0.4,0.2,0.7,0.5,0.9,0.8s0.4,0.6,0.6,1
			c0.1,0.3,0.3,0.7,0.3,1.1c0.1,0.4,0.1,0.7,0.2,1.1c0,0.5,0.1,1,0.1,1.4c0,0.5,0,0.9,0,1.3c0,0.3-0.1,0.6-0.2,0.9
			c-0.1,0.3-0.2,0.5-0.3,0.7s-0.3,0.3-0.5,0.5s-0.4,0.2-0.7,0.2s-0.6,0-0.8-0.1s-0.4-0.3-0.5-0.5s-0.3-0.4-0.4-0.6
			c-0.1-0.2-0.2-0.5-0.4-0.7c-0.1-0.2-0.3-0.4-0.4-0.6c-0.1-0.2-0.2-0.4-0.4-0.5c-0.1-0.2-0.3-0.3-0.5-0.3c-0.2-0.1-0.5-0.1-0.8-0.1
			c-0.2,0-0.4,0.1-0.7,0.1c-0.2,0.1-0.4,0.2-0.6,0.3c-0.2,0.1-0.3,0.3-0.4,0.5C138,326,138,326.2,138,326.5z M140.1,327.2
			c0-0.2-0.1-0.4-0.3-0.5s-0.3-0.2-0.5-0.2s-0.4,0.1-0.5,0.3c-0.1,0.2-0.2,0.3-0.2,0.5s0.1,0.4,0.3,0.5s0.3,0.2,0.5,0.2
			s0.4-0.1,0.5-0.3C140.1,327.6,140.1,327.4,140.1,327.2z"/>
		<path class="st10" d="M152.6,325.8c0,0.2,0,0.4,0,0.6s-0.1,0.4-0.3,0.5c-0.1,0.2-0.3,0.3-0.5,0.4s-0.4,0.2-0.6,0.2
			c-0.2,0-0.5,0-0.7,0s-0.4-0.1-0.6-0.3c-0.2-0.1-0.3-0.3-0.5-0.5c-0.1-0.2-0.2-0.5-0.3-0.8l-0.7-5.4c0-0.3,0-0.6,0-0.9
			s0.1-0.6,0.2-0.8c0.1-0.2,0.3-0.4,0.5-0.6s0.5-0.3,0.9-0.3c0.2,0,0.4,0,0.6,0s0.4,0,0.6,0.1l-0.2,1.1c-0.2-0.1-0.3-0.1-0.5-0.1
			c-0.1,0-0.3,0-0.5,0c-0.1,0-0.3,0.1-0.4,0.1s-0.2,0.2-0.2,0.3c-0.1,0.1-0.1,0.2-0.1,0.3c0,0.1,0,0.2,0,0.4l0.6,4.6
			c0.1-0.1,0.2-0.1,0.4-0.2c0.1-0.1,0.2-0.1,0.4-0.1c0.5-0.1,0.9,0,1.2,0.3C152.4,325,152.6,325.4,152.6,325.8z M151.8,325.9
			c0-0.1,0-0.2-0.1-0.3c0-0.1-0.1-0.1-0.2-0.2c-0.1-0.1-0.2-0.1-0.3-0.1s-0.2,0-0.3,0s-0.2,0-0.3,0.1c-0.1,0-0.1,0.1-0.2,0.2
			c-0.1,0.1-0.1,0.2-0.1,0.2c0,0.1,0,0.2,0,0.3c0,0.1,0,0.2,0.1,0.3c0,0.1,0.1,0.2,0.2,0.2s0.2,0.1,0.2,0.1c0.1,0,0.2,0,0.3,0
			c0.2,0,0.4-0.1,0.5-0.3S151.9,326.1,151.8,325.9z M156.6,325.3c0,0.2,0,0.4,0,0.6c-0.1,0.2-0.1,0.4-0.3,0.5s-0.3,0.3-0.5,0.4
			s-0.4,0.2-0.6,0.2c-0.2,0-0.5,0-0.7,0s-0.4-0.1-0.6-0.3s-0.3-0.3-0.5-0.5s-0.2-0.5-0.3-0.8l-0.7-5.4c0-0.3,0-0.6,0-0.9
			s0.1-0.6,0.2-0.8s0.3-0.4,0.5-0.6s0.5-0.3,0.9-0.3c0.2,0,0.4,0,0.6,0c0.2,0,0.4,0,0.6,0.1l-0.2,1.1c-0.2-0.1-0.3-0.1-0.5-0.1
			c-0.1,0-0.3,0-0.5,0c-0.1,0-0.3,0.1-0.4,0.1c-0.1,0.1-0.2,0.2-0.2,0.3c-0.1,0.1-0.1,0.2-0.1,0.3c0,0.1,0,0.2,0,0.4l0.6,4.6
			c0.1-0.1,0.2-0.1,0.4-0.2s0.2-0.1,0.4-0.1c0.5-0.1,0.9,0,1.2,0.3C156.4,324.5,156.5,324.8,156.6,325.3z M155.8,325.4
			c0-0.1,0-0.2-0.1-0.3c0-0.1-0.1-0.1-0.2-0.2c-0.1-0.1-0.2-0.1-0.3-0.1s-0.2,0-0.3,0s-0.2,0-0.3,0.1s-0.1,0.1-0.2,0.2
			c-0.1,0.1-0.1,0.2-0.1,0.2c0,0.1,0,0.2,0,0.3s0,0.2,0.1,0.3c0.1,0.1,0.1,0.2,0.2,0.2s0.2,0.1,0.2,0.1c0.1,0,0.2,0,0.3,0
			c0.2,0,0.4-0.1,0.5-0.3S155.8,325.6,155.8,325.4z"/>
		<path class="st10" d="M168.5,323c0,0.1,0,0.2,0.1,0.4c0,0.1,0,0.3,0,0.4s0,0.3,0,0.4s0,0.3-0.1,0.4l-1.3,0.2
			c0.1-0.1,0.1-0.3,0.1-0.4s0.1-0.3,0.1-0.5s0-0.3,0-0.5s0-0.3,0-0.4l-1-5.4c0-0.1-0.1-0.2-0.1-0.4c0-0.1-0.1-0.3-0.1-0.4
			c-0.1-0.1-0.1-0.2-0.2-0.2s-0.2-0.1-0.4,0c-0.1,0-0.2,0.1-0.2,0.2c-0.1,0.1-0.2,0.2-0.3,0.4c-0.1,0.1-0.2,0.3-0.4,0.4
			c-0.1,0.1-0.3,0.2-0.5,0.2c-0.1,0-0.2,0-0.3,0s-0.2,0-0.3-0.1c0.1,0.2,0.2,0.5,0.2,0.8s0.1,0.5,0.2,0.7l0.7,3.4
			c0.1,0.4,0.1,0.8,0,1.2c-0.1,0.4-0.2,0.7-0.4,0.9c-0.2,0.3-0.5,0.5-0.8,0.7s-0.7,0.3-1.1,0.4c-0.5,0.1-0.9,0.1-1.3,0.1
			c-0.4,0-0.7-0.1-1-0.3c-0.3-0.2-0.6-0.4-0.8-0.7c-0.2-0.3-0.4-0.7-0.5-1.2c-0.1-0.3-0.1-0.7,0-1c0-0.4,0.1-0.7,0.2-1.1
			s0.2-0.7,0.3-1s0.2-0.7,0.3-1c-0.2,0-0.4,0-0.6,0c-0.2,0-0.4-0.1-0.6-0.2s-0.3-0.2-0.5-0.4c-0.1-0.2-0.2-0.4-0.3-0.6
			c0-0.2,0-0.5,0-0.7s0.1-0.4,0.2-0.6c0.1-0.2,0.3-0.3,0.4-0.4c0.2-0.1,0.4-0.2,0.6-0.2c0.2,0,0.5,0,0.7,0s0.4,0.1,0.6,0.2
			c0.2,0.1,0.3,0.3,0.4,0.4s0.2,0.4,0.3,0.6c0,0.2,0,0.5,0,0.8s-0.1,0.6-0.2,0.9c-0.1,0.3-0.2,0.7-0.3,1s-0.2,0.7-0.3,1
			s-0.2,0.7-0.2,1s0,0.6,0,0.9c0.1,0.3,0.2,0.5,0.3,0.7s0.3,0.3,0.5,0.4s0.4,0.1,0.7,0.1c0.2,0,0.5,0,0.8-0.1c0.2,0,0.4-0.1,0.6-0.2
			c0.2-0.1,0.4-0.3,0.5-0.4c0.1-0.2,0.2-0.4,0.3-0.6s0.1-0.4,0-0.7l-0.8-4.3c-0.1-0.3-0.2-0.6-0.3-0.9c-0.2-0.3-0.4-0.6-0.8-0.8
			l0.8-0.9c0.1,0.1,0.2,0.2,0.3,0.4s0.2,0.2,0.4,0.3c0.1,0.1,0.3,0.1,0.4,0.2s0.3,0,0.4,0c0.1,0,0.2-0.1,0.3-0.2s0.1-0.2,0.2-0.4
			c0.1-0.1,0.2-0.3,0.3-0.4s0.3-0.2,0.5-0.2c0.6-0.1,1.1,0,1.4,0.2c0.4,0.2,0.6,0.7,0.7,1.3L168.5,323z M159.8,318.1
			c0-0.2-0.1-0.4-0.3-0.5s-0.3-0.1-0.6-0.1c-0.2,0-0.4,0.1-0.5,0.3c-0.1,0.2-0.1,0.3-0.1,0.5s0.1,0.4,0.3,0.5s0.3,0.1,0.5,0.1
			s0.4-0.1,0.5-0.3C159.8,318.5,159.8,318.3,159.8,318.1z"/>
		<path class="st10" d="M162.8,313.9l-0.8-3.5l0.9-0.2l0.8,3.5L162.8,313.9z"/>
		<path class="st10" d="M172.1,325.4c0.2,0.1,0.5,0.1,0.8,0.1s0.6,0,0.8,0s0.4-0.1,0.6-0.1c0.1,0,0.3-0.1,0.5-0.2s0.4-0.2,0.6-0.4
			c0.2-0.2,0.4-0.3,0.5-0.5s0.3-0.4,0.4-0.6s0.1-0.5,0.2-0.7c0-0.2,0-0.5-0.1-0.8l-1.5-6.1c-0.1-0.2-0.2-0.4-0.4-0.6
			s-0.4-0.3-0.7-0.4s-0.6-0.1-0.9-0.2c-0.3,0-0.6,0-0.8,0.1c-0.2,0-0.3,0.1-0.5,0.2s-0.3,0.2-0.5,0.3s-0.3,0.2-0.4,0.3
			c-0.1,0.1-0.2,0.2-0.2,0.3c0.1-0.1,0.2-0.1,0.2-0.2c0.1,0,0.1,0,0.2-0.1h0.1c0.2-0.1,0.4-0.1,0.6,0s0.4,0.1,0.5,0.2
			s0.3,0.2,0.4,0.4c0.1,0.2,0.2,0.4,0.2,0.6c0.1,0.2,0.1,0.4,0,0.6c0,0.2-0.1,0.4-0.2,0.6c-0.1,0.2-0.2,0.3-0.4,0.4
			s-0.4,0.2-0.6,0.3c-0.3,0.1-0.6,0.1-0.8,0.1s-0.5-0.1-0.7-0.3c-0.2-0.1-0.3-0.3-0.5-0.5s-0.2-0.5-0.3-0.8s-0.1-0.7,0-1
			c0.1-0.4,0.3-0.7,0.5-1s0.5-0.6,0.8-0.8c0.3-0.2,0.7-0.4,1.1-0.5c0.4-0.1,0.9-0.1,1.3-0.1c0.4,0,0.9,0.1,1.2,0.3
			c0.4,0.2,0.7,0.4,1,0.7c0.3,0.3,0.5,0.7,0.6,1.1l1.4,5.8c0.1,0.4,0.1,0.9,0.1,1.3s-0.1,0.7-0.3,1.1c-0.1,0.3-0.3,0.6-0.5,0.9
			s-0.5,0.5-0.7,0.7s-0.5,0.3-0.7,0.4c-0.3,0.1-0.5,0.2-0.7,0.2s-0.4,0.1-0.7,0.1s-0.6,0.1-1,0s-0.7-0.1-1-0.2L172.1,325.4z
			 M172.1,317.2c0-0.2-0.2-0.3-0.3-0.5c-0.2-0.1-0.3-0.1-0.5-0.1s-0.4,0.2-0.5,0.3s-0.1,0.4-0.1,0.6c0.1,0.2,0.2,0.4,0.3,0.5
			c0.2,0.1,0.4,0.1,0.6,0.1s0.3-0.2,0.5-0.3S172.1,317.4,172.1,317.2z"/>
		<path class="st10" d="M186.5,312.9c0.1,0.4,0.1,0.7,0,1.1s-0.3,0.7-0.5,1s-0.5,0.6-0.9,0.9s-0.7,0.6-1.1,0.9
			c-0.4,0.3-0.9,0.6-1.3,0.9c-0.4,0.3-0.8,0.6-1.1,0.8c-0.3,0.2-0.6,0.5-0.8,0.7s-0.3,0.4-0.2,0.6s0.2,0.3,0.3,0.4
			c0.2,0.1,0.3,0.1,0.5,0.1s0.4,0,0.6-0.1c0.2,0,0.3-0.1,0.4-0.1c0.2-0.1,0.4-0.2,0.6-0.3c0.2-0.1,0.3-0.2,0.5-0.4s0.3-0.3,0.4-0.4
			c0.1-0.1,0.3-0.3,0.4-0.4c0.1-0.1,0.3-0.2,0.5-0.4c0.2-0.1,0.4-0.2,0.6-0.3c0.2-0.1,0.5-0.1,0.7-0.1c0.3,0,0.6,0,0.8,0
			c0.3,0.1,0.5,0.2,0.7,0.3c0.2,0.2,0.4,0.4,0.4,0.8c0,0.3,0.1,0.6,0.1,0.8c0,0.3,0.1,0.5,0.2,0.7c0.1,0.2,0.2,0.4,0.3,0.6
			s0.3,0.4,0.5,0.5l-0.8,0.7c-0.2-0.1-0.4-0.3-0.6-0.6c-0.2-0.2-0.3-0.5-0.4-0.7s-0.2-0.6-0.3-0.9s-0.1-0.6-0.2-0.9
			c0-0.2-0.2-0.3-0.4-0.4c-0.2,0-0.6,0-1,0.1c-0.2,0-0.3,0.1-0.4,0.2s-0.2,0.2-0.4,0.3c-0.1,0.1-0.2,0.3-0.4,0.4
			c-0.1,0.1-0.3,0.3-0.4,0.4s-0.3,0.3-0.5,0.4s-0.4,0.2-0.7,0.3c-0.2,0-0.4,0.1-0.6,0.1c-0.2,0-0.4,0.1-0.6,0.1c-0.2,0-0.4,0-0.7,0
			c-0.2,0-0.4-0.1-0.6-0.2c-0.2-0.1-0.4-0.2-0.5-0.4c-0.1-0.2-0.3-0.4-0.3-0.6c-0.1-0.3-0.1-0.5,0-0.8s0.2-0.5,0.4-0.7
			s0.4-0.5,0.7-0.7s0.6-0.5,0.9-0.7s0.6-0.4,1-0.7c0.3-0.2,0.7-0.4,1-0.7c0.3-0.2,0.6-0.4,0.9-0.7c0.3-0.2,0.5-0.4,0.7-0.7
			s0.3-0.5,0.4-0.7c0.1-0.2,0.1-0.5,0-0.7s-0.2-0.4-0.3-0.5s-0.3-0.2-0.5-0.3c-0.2-0.1-0.4-0.1-0.7-0.1s-0.5,0-0.7,0
			s-0.5,0.1-0.7,0.1s-0.4,0.1-0.6,0.1c-0.1,0-0.3,0.1-0.5,0.2s-0.4,0.1-0.6,0.2c-0.2,0.1-0.4,0.2-0.6,0.3c-0.2,0.1-0.4,0.2-0.6,0.4
			c0.2,0,0.4,0,0.5,0c0.2,0,0.3,0.1,0.5,0.2c0.1,0.1,0.3,0.2,0.4,0.4c0.1,0.1,0.2,0.3,0.2,0.5c0.1,0.5,0.1,0.9-0.1,1.2
			c-0.2,0.3-0.6,0.6-1.2,0.8c-0.2,0-0.3,0.1-0.5,0c-0.2,0-0.4-0.1-0.5-0.2c-0.2-0.1-0.3-0.2-0.5-0.4c-0.1-0.2-0.3-0.4-0.3-0.7
			c-0.1-0.3-0.1-0.5,0-0.8c0-0.3,0.1-0.5,0.3-0.8s0.3-0.5,0.6-0.7c0.2-0.2,0.5-0.4,0.8-0.6s0.6-0.4,0.9-0.5s0.7-0.3,1-0.4
			s0.6-0.2,0.9-0.2c0.3-0.1,0.6-0.1,0.9-0.1c0.3,0,0.6,0,0.9,0.1s0.6,0.1,0.8,0.3s0.5,0.3,0.7,0.6S186.4,312.5,186.5,312.9z
			 M180.6,314.8c0-0.1-0.1-0.2-0.1-0.3c-0.1-0.1-0.1-0.1-0.2-0.2c-0.1,0-0.2-0.1-0.3-0.1s-0.2,0-0.3,0s-0.2,0.1-0.3,0.1
			c-0.1,0.1-0.1,0.1-0.2,0.2c0,0.1-0.1,0.2-0.1,0.3c0,0.1,0,0.2,0,0.3c0,0.1,0.1,0.2,0.1,0.3s0.1,0.1,0.2,0.2c0.1,0,0.2,0.1,0.3,0.1
			s0.2,0,0.3,0c0.2-0.1,0.4-0.2,0.4-0.4C180.7,315.2,180.7,315,180.6,314.8z"/>
		<path class="st10" d="M189.5,310.9c0.1-0.1,0.2-0.1,0.2-0.2c0.1,0,0.1-0.1,0.2-0.1c0.2-0.1,0.4-0.1,0.6-0.1s0.4,0.1,0.6,0.1
			c0.2,0.1,0.3,0.2,0.4,0.4s0.2,0.3,0.3,0.5s0.1,0.4,0.1,0.6s-0.1,0.4-0.1,0.6s-0.2,0.3-0.4,0.5s-0.3,0.2-0.5,0.3
			c-0.3,0.1-0.6,0.1-0.8,0.1s-0.5-0.1-0.7-0.2s-0.4-0.3-0.5-0.5s-0.3-0.5-0.4-0.8c-0.1-0.3-0.1-0.7-0.1-1c0.1-0.4,0.2-0.7,0.4-1
			s0.4-0.6,0.7-0.9s0.6-0.5,1-0.6s0.8-0.2,1.3-0.2c0.4,0,0.9,0.1,1.3,0.2c0.4,0.1,0.8,0.3,1.1,0.6c0.3,0.3,0.5,0.6,0.7,1.1l1.5,4.4
			c0,0,0,0.1,0.1,0.2c0,0.1,0,0.2,0.1,0.3s0,0.3,0.1,0.4s0,0.3,0.1,0.4c0,0.1,0,0.2,0,0.3c0,0.1,0,0.2,0,0.2l-1.2,0.4
			c0,0,0-0.1,0-0.3c0-0.2,0-0.4,0-0.6s0-0.4-0.1-0.6c0-0.2-0.1-0.4-0.1-0.5l-1.5-4.4c-0.1-0.2-0.2-0.4-0.4-0.6s-0.5-0.3-0.7-0.3
			c-0.3-0.1-0.6-0.1-0.9-0.1c-0.3,0-0.6,0.1-0.8,0.1c-0.2,0.1-0.3,0.1-0.5,0.2s-0.3,0.2-0.4,0.3s-0.2,0.2-0.3,0.3
			C189.6,310.7,189.5,310.8,189.5,310.9z M191.1,311.8c-0.1-0.2-0.2-0.3-0.4-0.4s-0.4-0.1-0.6,0c-0.2,0.1-0.3,0.2-0.4,0.4
			c-0.1,0.2-0.1,0.4,0,0.6s0.2,0.3,0.4,0.4s0.4,0.1,0.6,0c0.2-0.1,0.3-0.2,0.4-0.4S191.2,312,191.1,311.8z"/>
		<path class="st10" d="M199.8,313.4c0-0.2,0-0.3,0.1-0.5c0-0.2,0.1-0.3,0.2-0.4c0.1-0.1,0.2-0.2,0.3-0.4c0.1-0.1,0.3-0.2,0.4-0.2
			c0.2-0.1,0.4-0.1,0.6-0.1c0.2,0,0.4,0.1,0.6,0.1s0.3,0.2,0.5,0.3c0.1,0.1,0.2,0.3,0.3,0.5s0.1,0.4,0.1,0.6s-0.1,0.4-0.2,0.6
			s-0.2,0.3-0.4,0.5c-0.2,0.1-0.3,0.3-0.5,0.3c-0.4,0.2-0.8,0.2-1.1,0.2c-0.4,0-0.7-0.1-1-0.3c-0.3-0.2-0.6-0.4-0.8-0.7
			c-0.2-0.3-0.4-0.6-0.6-1L197,310c-0.1-0.3-0.2-0.7-0.2-1s0.1-0.7,0.2-1c0.1-0.3,0.3-0.6,0.5-0.9s0.4-0.6,0.7-0.8
			c0.3-0.2,0.5-0.5,0.8-0.6s0.6-0.3,0.9-0.5c0.3-0.1,0.6-0.2,1-0.3c0.3-0.1,0.7-0.1,1-0.1s0.7,0,1,0.1s0.6,0.2,0.9,0.3
			c0.3,0.2,0.5,0.4,0.8,0.6c0.2,0.3,0.4,0.6,0.6,0.9l1.6,4.1c0.1,0.2,0.1,0.3,0.1,0.5s0,0.3,0,0.5s0,0.3-0.1,0.5
			c0,0.1-0.1,0.3-0.1,0.4l-1.2,0.5c0.1-0.2,0.1-0.4,0.2-0.5c0.1-0.2,0.1-0.3,0.1-0.5s0-0.3,0-0.5s-0.1-0.3-0.1-0.5l-1.4-3.7
			c-0.2-0.5-0.4-0.8-0.7-1s-0.6-0.4-1-0.5s-0.7-0.1-1.1,0s-0.8,0.2-1.2,0.3c-0.3,0.1-0.7,0.3-1,0.6s-0.6,0.5-0.8,0.9
			c-0.2,0.3-0.4,0.7-0.4,1c-0.1,0.4,0,0.8,0.1,1.2l1,2.5c0,0.1,0.1,0.2,0.1,0.3c0,0.1,0.1,0.2,0.1,0.3c0.1,0.1,0.1,0.2,0.2,0.3
			C199.6,313.3,199.7,313.4,199.8,313.4z M202,313.1c-0.1-0.2-0.2-0.3-0.4-0.4s-0.4-0.1-0.6,0c-0.2,0.1-0.3,0.2-0.4,0.4
			c-0.1,0.2-0.1,0.4,0,0.6s0.2,0.3,0.4,0.4s0.4,0.1,0.6,0c0.2-0.1,0.3-0.2,0.4-0.4S202.1,313.3,202,313.1z"/>
	</g>
	<g>
		<g>
			<path class="st11" d="M188.8,292.1l-11.3-66.4c-0.9-0.6-1.9-1.1-2.8-1.5l11.1,65.5c0,0-31.2-0.7-51.9,12.3c0.7,0.9,1.4,1.9,1.9,3
				C156.6,291.3,188.8,292.1,188.8,292.1z"/>
			<path class="st11" d="M182.9,286.8c0,0-31.1-0.7-51.9,12.3c1.1,0.9,2.1,1.9,3,3c20.8-13,51.9-12.3,51.9-12.3l-11.1-65.5l-0.1-0.8
				c-0.9-0.6-1.8-1-2.7-1.5l0.2,1.2L182.9,286.8z"/>
			<path class="st11" d="M169.1,222.4l10.4,61.4c0,0-32-0.7-52.7,12.8c1.5,0.6,2.9,1.5,4.1,2.5c20.8-13,51.9-12.3,51.9-12.3
				L172,223.2l-0.2-1.2l-0.3-1.5c-1-0.6-2-1.2-3.1-1.6l0.3,2L169.1,222.4z"/>
			<path class="st11" d="M166,220l0.3,1.9l9.9,58.5c0,0-28.7-0.6-49.4,10.8c-1,0.6-2.1,1.2-3.1,1.8c-1,0.7-2,1.3-3,2.1
				c2.1,0.1,4.2,0.6,6,1.4c20.8-13.5,52.7-12.8,52.7-12.8L169,222.3l-0.3-1.6l-0.3-2l-0.2-1.4c-1-0.6-2-1.1-3-1.6l0.3,1.8L166,220z"
				/>
			<path class="st11" d="M120.8,295.1c1-0.7,2-1.4,3-2.1c1-0.6,2-1.2,3.1-1.8c20.7-11.4,49.4-10.8,49.4-10.8l-9.9-58.5L166,220
				l-0.4-2.3l-0.3-1.8l-0.3-1.7c-15.5-9.6-36.4,0.5-45.3,5.8v75.2C120,295.1,120.4,295.1,120.8,295.1z"/>
		</g>
		<g>
			<path class="st11" d="M50.6,292.1l11.3-66.4c0.9-0.6,1.9-1.1,2.8-1.5l-11.1,65.5c0,0,31.2-0.7,51.9,12.3c-0.7,0.9-1.4,1.9-1.9,3
				C82.9,291.3,50.6,292.1,50.6,292.1z"/>
			<path class="st11" d="M56.6,286.8c0,0,31.1-0.7,51.9,12.3c-1.1,0.9-2.1,1.9-3,3c-20.8-13-51.9-12.3-51.9-12.3l11.1-65.5l0.1-0.8
				c0.9-0.6,1.8-1,2.7-1.5l-0.2,1.2L56.6,286.8z"/>
			<path class="st11" d="M70.3,222.4l-10.4,61.4c0,0,32-0.7,52.7,12.8c-1.5,0.6-2.9,1.5-4.1,2.5c-20.8-13-51.9-12.3-51.9-12.3
				l10.8-63.6l0.2-1.2l0.3-1.5c1-0.6,2-1.2,3.1-1.6l-0.3,2L70.3,222.4z"/>
			<path class="st11" d="M73.5,220l-0.3,1.9l-9.9,58.5c0,0,28.7-0.6,49.4,10.8c1,0.6,2.1,1.2,3.1,1.8c1,0.7,2,1.3,3,2.1
				c-2.1,0.1-4.2,0.6-6,1.4C92,283,60.1,283.7,60.1,283.7l10.4-61.4l0.3-1.6l0.3-2l0.2-1.4c1-0.6,2-1.1,3-1.6l-0.3,1.8L73.5,220z"/>
			<path class="st11" d="M118.7,295.1c-1-0.7-2-1.4-3-2.1c-1-0.6-2-1.2-3.1-1.8c-20.7-11.4-49.4-10.8-49.4-10.8l9.9-58.5l0.3-1.9
				l0.4-2.3l0.3-1.8l0.3-1.7c15.5-9.6,36.4,0.5,45.3,5.8v75.2C119.5,295.1,119.1,295.1,118.7,295.1z"/>
		</g>
	</g>
	<g>
		<path class="st12" d="M92.7,231.2c0.1-0.3,0.3-0.5,0.5-0.7s0.4-0.4,0.7-0.5c0.3-0.1,0.5-0.2,0.8-0.3s0.6-0.1,0.9-0.1
			c0.4,0,0.7,0.1,1,0.3s0.6,0.4,0.8,0.7c0.2,0.3,0.4,0.6,0.5,0.9s0.2,0.7,0.1,1.1c0,0.4-0.1,0.8-0.3,1.1c-0.2,0.3-0.4,0.6-0.7,0.8
			c-0.3,0.2-0.6,0.4-1,0.5s-0.7,0.2-1.1,0.1c-0.8-0.1-1.4-0.2-2-0.6c-0.6-0.3-1.1-0.7-1.4-1.3c-0.4-0.5-0.7-1.1-0.8-1.8
			c-0.2-0.7-0.2-1.4-0.2-2.1c0-0.3,0.1-0.7,0.1-1c0-0.4,0.1-0.7,0.2-1.1c0.1-0.3,0.2-0.7,0.4-1c0.2-0.3,0.4-0.6,0.6-0.9
			c-0.3-0.4-0.5-0.9-0.6-1.4c-0.1-0.6-0.2-1.1-0.2-1.6c0-0.6,0.2-1.2,0.5-1.7s0.7-0.9,1.2-1.3c0.5-0.4,1-0.6,1.6-0.9
			c0.6-0.2,1.2-0.4,1.8-0.5c0.6-0.1,1.2-0.2,1.8-0.2c0.6,0,1.2,0,1.7,0c0.4,0,0.9,0.1,1.4,0.2s1.1,0.3,1.6,0.5
			c0.6,0.2,1.1,0.5,1.6,0.8s1,0.7,1.4,1c0.4,0.4,0.7,0.8,0.9,1.3c0.2,0.5,0.3,1,0.3,1.5l-0.8,10c0,0.3-0.1,0.6-0.1,0.8
			s-0.1,0.4-0.2,0.6c-0.1,0.2-0.2,0.4-0.3,0.5c-0.1,0.2-0.2,0.3-0.3,0.5l-2.3-0.2c0.1-0.2,0.3-0.4,0.4-0.5c0.1-0.2,0.3-0.4,0.4-0.6
			c0.1-0.2,0.2-0.4,0.3-0.6c0.1-0.2,0.1-0.4,0.1-0.6l0.7-9.2c0-0.4,0-0.8-0.2-1.1s-0.4-0.7-0.7-1c-0.3-0.3-0.6-0.5-1-0.8
			c-0.4-0.2-0.8-0.4-1.2-0.6c-0.4-0.2-0.8-0.3-1.2-0.4c-0.4-0.1-0.7-0.2-1-0.2c-0.4,0-0.9,0-1.3,0c-0.5,0-0.9,0.1-1.4,0.1
			c-0.5,0.1-0.9,0.2-1.3,0.4s-0.8,0.4-1.2,0.6c-0.3,0.3-0.6,0.6-0.9,1c-0.2,0.4-0.4,0.8-0.4,1.4c0,0.2,0,0.3,0.1,0.5
			c0,0.2,0.1,0.3,0.1,0.4c0.3-0.5,0.7-0.8,1.2-1c0.4-0.2,0.9-0.3,1.5-0.3c0.4,0,0.8,0.1,1.1,0.3s0.7,0.4,0.9,0.6
			c0.3,0.3,0.5,0.6,0.6,0.9s0.2,0.7,0.2,1.2c0,0.4-0.1,0.8-0.3,1.1c-0.2,0.3-0.4,0.6-0.7,0.8c-0.3,0.2-0.6,0.3-1,0.4
			c-0.4,0.1-0.8,0.1-1.2,0.1c-0.3,0-0.6-0.1-0.8-0.1s-0.3-0.2-0.5-0.3c-0.1-0.1-0.3-0.2-0.4-0.4s-0.3-0.3-0.6-0.5
			c-0.2,0.3-0.3,0.7-0.4,1.1c-0.1,0.4-0.1,0.8-0.2,1.2c0,0.2,0,0.4,0,0.6c0,0.2,0,0.4,0,0.6c0,0.2,0,0.4,0.1,0.5
			C92.6,231,92.6,231.1,92.7,231.2z M96.6,232.5c0-0.4-0.1-0.7-0.3-1s-0.5-0.4-0.9-0.5c-0.4,0-0.7,0.1-1,0.3s-0.4,0.5-0.5,0.9
			c0,0.4,0.1,0.7,0.3,1c0.2,0.3,0.5,0.4,0.9,0.5c0.4,0,0.7-0.1,1-0.3S96.5,232.9,96.6,232.5z M97.1,225.8c0-0.4-0.1-0.7-0.2-0.9
			c-0.2-0.3-0.5-0.4-0.8-0.4c-0.5,0-0.8,0.1-1.1,0.3c-0.3,0.2-0.5,0.5-0.8,0.9c0.2,0.3,0.5,0.6,0.7,0.8s0.5,0.3,0.9,0.3
			c0.2,0,0.3,0,0.5,0s0.3-0.1,0.4-0.1c0.1-0.1,0.3-0.2,0.3-0.3C97,226.2,97.1,226,97.1,225.8z"/>
		<path class="st12" d="M104.8,250.9c-0.1,1.1-0.4,2-0.9,2.8c-0.5,0.7-1.2,1.3-2,1.7s-1.7,0.7-2.7,0.8c-1,0.1-1.9,0.2-2.9,0.1
			c-0.5,0-1-0.1-1.5-0.2s-1.1-0.3-1.6-0.5s-1-0.5-1.5-0.8s-0.9-0.7-1.3-1.1c-0.4-0.4-0.6-0.9-0.8-1.4c-0.2-0.5-0.3-1-0.2-1.6
			c0-0.5,0.2-0.9,0.3-1.3c0.2-0.4,0.4-0.7,0.8-0.9c0.3-0.2,0.7-0.4,1.1-0.5s0.8-0.2,1.3-0.1c0.8,0.1,1.5,0.4,1.9,1s0.6,1.3,0.5,2.1
			s-0.3,1.4-0.7,1.8c-0.4,0.5-0.9,0.7-1.7,0.7c0.2,0.1,0.5,0.3,0.7,0.4c0.3,0.1,0.6,0.2,0.9,0.3s0.6,0.1,0.9,0.2
			c0.3,0,0.6,0.1,0.8,0.1c0.7,0.1,1.4,0.1,2.1,0s1.4-0.2,2-0.5s1.1-0.6,1.5-1.2c0.4-0.5,0.7-1.2,0.7-2.1l0.4-4.8
			c0.1-0.8-0.1-1.6-0.4-2.2c-0.3-0.6-0.7-1.1-1.3-1.5c-0.5-0.4-1.2-0.7-1.9-0.9c-0.7-0.2-1.4-0.3-2.1-0.4c-0.3,0-0.6,0-1,0
			s-0.8,0-1.2,0.1c-0.4,0.1-0.8,0.1-1.2,0.3c-0.4,0.1-0.7,0.3-1,0.5s-0.6,0.4-0.8,0.7s-0.3,0.6-0.4,1l-2-0.2c0-0.6,0.2-1.2,0.5-1.6
			c0.3-0.5,0.6-0.9,1-1.2s0.9-0.6,1.4-0.8s1-0.4,1.6-0.5s1.1-0.2,1.7-0.2s1.1,0,1.6,0c1,0.1,2,0.3,2.9,0.6s1.8,0.8,2.5,1.3
			c0.7,0.6,1.3,1.3,1.6,2.1c0.4,0.8,0.5,1.8,0.5,3L104.8,250.9z M93.9,250.7c0-0.4-0.1-0.7-0.3-1c-0.2-0.3-0.5-0.4-0.9-0.5
			c-0.4,0-0.7,0.1-1,0.3s-0.4,0.5-0.5,0.9c0,0.4,0.1,0.7,0.3,1c0.2,0.3,0.5,0.4,0.9,0.5c0.4,0,0.7-0.1,1-0.3
			C93.7,251.4,93.8,251.1,93.9,250.7z"/>
		<path class="st12" d="M104.1,260.5c-0.2,0.4-0.4,0.9-0.7,1.4c-0.2,0.5-0.5,0.9-0.8,1.2c0.3,0.4,0.5,0.9,0.7,1.4s0.3,1,0.4,1.5
			s0.1,1.1,0.1,1.6s0,1.1-0.1,1.6c-0.1,0.9-0.2,1.8-0.3,2.6c-0.1,0.8-0.3,1.6-0.5,2.3c-0.2,0.5-0.3,1-0.6,1.5
			c-0.2,0.4-0.5,0.8-0.8,1.1c-0.3,0.3-0.6,0.5-1,0.7s-0.8,0.2-1.3,0.2c-0.6,0-1.1-0.2-1.4-0.5s-0.6-0.6-0.8-1
			c-0.2-0.4-0.4-0.8-0.5-1.3s-0.3-0.9-0.5-1.4c-0.2-0.4-0.4-0.9-0.5-1.3s-0.3-0.8-0.5-1.1c-0.2-0.3-0.5-0.6-0.8-0.8
			c-0.3-0.2-0.8-0.3-1.3-0.4c-0.4,0-0.8,0-1.2,0.1c-0.4,0.1-0.8,0.2-1.1,0.4c-0.3,0.2-0.6,0.4-0.8,0.8c-0.2,0.3-0.3,0.7-0.4,1.1
			c0.1-0.2,0.3-0.3,0.5-0.4s0.4-0.2,0.6-0.3c0.2-0.1,0.4-0.2,0.7-0.2c0.2,0,0.4-0.1,0.6,0c0.4,0,0.7,0.1,1.1,0.3
			c0.3,0.2,0.6,0.4,0.9,0.6c0.2,0.3,0.4,0.6,0.6,0.9c0.1,0.4,0.2,0.7,0.1,1.1c0,0.4-0.1,0.8-0.3,1.1c-0.2,0.3-0.4,0.6-0.7,0.9
			c-0.3,0.2-0.6,0.4-0.9,0.5c-0.4,0.1-0.7,0.2-1.1,0.1c-0.6,0-1.1-0.2-1.7-0.4c-0.5-0.2-1-0.5-1.3-0.9c-0.4-0.4-0.7-0.9-0.8-1.5
			c-0.2-0.6-0.3-1.3-0.2-2.2c0.1-0.8,0.3-1.5,0.7-2c0.4-0.5,0.9-1,1.4-1.3c0.6-0.3,1.2-0.5,1.9-0.6c0.7-0.1,1.4-0.1,2.1-0.1
			s1.3,0.2,1.8,0.5s0.9,0.6,1.2,1c0.3,0.4,0.6,0.9,0.8,1.4c0.2,0.5,0.4,1,0.6,1.6c0.2,0.4,0.3,0.8,0.4,1.2c0.1,0.4,0.2,0.7,0.3,1
			c0.1,0.3,0.2,0.5,0.4,0.7c0.1,0.2,0.3,0.2,0.4,0.3c0.2,0,0.5-0.1,0.7-0.3c0.2-0.2,0.4-0.5,0.5-0.8s0.3-0.7,0.4-1.2
			c0.1-0.4,0.2-0.9,0.3-1.4c0.1-0.5,0.1-0.9,0.2-1.4c0-0.5,0.1-0.9,0.1-1.2c0-0.5,0.1-1,0.1-1.5s0-0.9,0-1.3s-0.1-0.8-0.2-1.1
			c-0.1-0.3-0.2-0.6-0.4-0.9c-0.9,0.7-1.9,1.3-3,1.6c-1.1,0.3-2.2,0.4-3.2,0.4c-0.7-0.1-1.4-0.1-2-0.2c-0.7-0.1-1.3-0.2-1.9-0.4
			c-1-0.3-1.7-0.7-2.2-1.3c-0.5-0.6-0.7-1.2-0.6-1.9c0-0.5,0.2-1,0.5-1.4s0.7-0.7,1.1-0.9c0.4-0.2,0.9-0.4,1.4-0.5s1-0.2,1.5-0.3
			c0.2,0,0.5,0,0.7,0s0.6,0,0.9,0s0.6,0,0.9,0s0.5,0,0.7,0c0.4,0,0.8,0.1,1.3,0.2s1,0.2,1.5,0.3c0.5,0.1,1,0.3,1.4,0.5
			c0.5,0.2,0.8,0.4,1.1,0.7c0.2-0.3,0.4-0.6,0.6-0.8c0.1-0.3,0.3-0.6,0.5-1L104.1,260.5z M99.9,263c-0.2-0.2-0.6-0.3-0.9-0.5
			c-0.4-0.1-0.7-0.3-1.1-0.4s-0.8-0.2-1.1-0.2c-0.4-0.1-0.7-0.1-1-0.1s-0.6,0-0.8-0.1c-0.2,0-0.5,0-0.7,0s-0.5,0-0.7,0
			s-0.5,0-0.7,0.1c-0.2,0-0.5,0.1-0.8,0.1c-0.3,0.1-0.6,0.1-0.9,0.2s-0.5,0.2-0.7,0.3c-0.2,0.1-0.3,0.3-0.3,0.5s0,0.3,0.1,0.4
			s0.2,0.2,0.4,0.3c0.2,0.1,0.3,0.2,0.5,0.3c0.2,0.1,0.4,0.1,0.5,0.2c0.2,0.1,0.5,0.1,1.1,0.2s1.3,0.2,2.2,0.2c0.4,0,0.9,0,1.3,0
			s0.9-0.1,1.3-0.2s0.8-0.3,1.2-0.5C99.2,263.6,99.6,263.3,99.9,263z M93,274.3c0-0.4-0.1-0.7-0.3-1c-0.2-0.3-0.5-0.4-0.9-0.5
			c-0.4,0-0.7,0.1-1,0.3c-0.3,0.2-0.4,0.5-0.5,0.9c0,0.4,0.1,0.7,0.3,1c0.2,0.3,0.5,0.4,0.9,0.5c0.4,0,0.7-0.1,1-0.3
			S93,274.7,93,274.3z"/>
	</g>
	<g>
		<path class="st13" d="M148.5,220.8l-9.2,1.2l0.7,5.1l8-1.1l0.2,1.5l-8,1.1l1,7.3l-1.9,0.3l-2-15.4l11.1-1.5L148.5,220.8z"/>
		<path class="st13" d="M153.7,255.5l-12.3,1.6l-2-15.4l11.9-1.6l0.2,1.5l-10,1.3l0.7,5.3l9.3-1.2l0.2,1.5l-9.3,1.2l0.7,5.6
			l10.4-1.4L153.7,255.5z"/>
		<path class="st13" d="M156.4,276.3l-2,0.3l-10.8-11.4l1.7,12.6l-1.9,0.3l-2-15.4l2-0.3l10.8,11.4l-1.7-12.6l1.9-0.3L156.4,276.3z"
			/>
	</g>
</g>
<g>
	<path d="M290.2,116.5c-2.4,0-4.7-0.3-6.9-0.9c-2.2-0.6-4.3-1.4-6.2-2.4l3-13.6c0.7,0.2,1.4,0.5,2.1,0.7c0.7,0.2,1.5,0.3,2.2,0.3
		c1.2,0,2.1-0.3,2.7-0.9c0.6-0.6,0.9-1.5,0.9-2.8V46.8h21.1v43.6c0,2.4,0.4,4.3,1.1,5.8c0.7,1.5,1.7,2.6,2.9,3.2
		c1.2,0.7,2.7,1,4.3,1c2.8,0,4.9-0.9,6.3-2.6c1.4-1.7,2-4.3,2-7.8V46.8h21.2v44.9c0,4.7-0.9,8.9-2.6,12.7c-1.7,3.8-4.4,6.7-7.9,8.9
		c-3.5,2.1-8,3.2-13.5,3.2c-4.4,0-8.1-0.7-11-2.2c-3-1.5-5.6-3.7-7.9-6.7h-4.5l4.3-3.8v2.4c0,3.3-1.2,5.9-3.7,7.7
		C297.8,115.6,294.4,116.5,290.2,116.5z"/>
	<path d="M370.8,76.8c-5,0-8.6-1.3-10.8-4c-2.2-2.6-3.3-5.6-3.3-8.8c0-1,0.1-2.2,0.2-3.7c0.2-1.4,0.4-2.9,0.7-4.3
		c0.3-1.4,0.7-2.6,1-3.5h14.9c-0.3,0.6-0.6,1.3-0.8,2c-0.2,0.8-0.3,1.6-0.3,2.5c0,1.3,0.4,2.3,1.1,3c0.7,0.7,1.8,1,3.3,1h15.6v15.7
		H370.8z M370.8,111.4c-5,0-8.6-1.3-10.8-4c-2.2-2.6-3.3-5.6-3.3-8.8c0-1,0.1-2.2,0.2-3.7c0.2-1.4,0.4-2.9,0.7-4.3
		c0.3-1.4,0.7-2.6,1-3.5h14.9c-0.3,0.7-0.6,1.4-0.8,2.2c-0.2,0.8-0.3,1.6-0.3,2.5c0,1.2,0.4,2.2,1.1,2.9c0.7,0.7,1.8,1,3.3,1h15.6
		v15.7H370.8z"/>
	<path d="M426.7,116.5c-7.7,0-13.6-2-17.7-6.1c-4.1-4.1-6.2-9.7-6.2-16.9V46.8h20.1v48.5c0,1.7,0.4,2.9,1.2,3.8
		c0.8,0.9,1.9,1.4,3.4,1.4c3.1,0,4.7-1.7,4.7-5.2V65.4c0-2.4-0.4-4.5-1.1-6.4c-0.7-1.9-1.9-3.5-3.5-4.8l13.9-8.8
		c1.7,0.8,3.1,2,4.4,3.7c1.3,1.6,2.3,3.4,2.9,5.4h0.2c2-2.9,4.3-5.1,7-6.6c2.7-1.5,5.8-2.2,9.2-2.2c3.1,0,5.8,0.7,7.9,2
		c2.1,1.3,3.8,3.3,4.8,5.9c1.1,2.6,1.6,5.9,1.6,10v51.8h-20.2V66.5c0-1.6-0.4-2.8-1.1-3.7c-0.7-0.9-1.9-1.3-3.3-1.3
		c-1,0-1.9,0.2-2.6,0.7c-0.7,0.5-1.3,1.1-1.6,1.8c-0.3,0.7-0.5,1.7-0.5,2.7v26.7c0,7.2-2,12.8-6.1,16.9
		C440.2,114.5,434.3,116.5,426.7,116.5z"/>
	<path d="M504.2,115.3V67.7c0-2.2-0.7-3.8-2.1-4.7c-1.4-0.9-3.2-1.4-5.3-1.4c-1.3,0-2.6,0.1-4,0.4c-1.3,0.2-2.6,0.6-3.7,1l-2.5-14.4
		c2.1-0.8,4.7-1.5,7.8-2.1c3-0.6,6.2-0.9,9.5-0.9c7.4,0,12.8,1.5,16.2,4.5c3.5,3,5.2,7.8,5.2,14.3v50.8H504.2z"/>
	<path d="M565.6,116.5c-6,0-11.3-0.9-15.9-2.7c-4.5-1.8-8.1-4.3-10.6-7.6c-2.5-3.3-3.8-7.3-3.8-11.9c0-2.4,0.4-4.7,1.1-7
		c0.7-2.3,1.7-4.3,2.9-6.1l15.4,5.3c-0.5,0.7-0.9,1.6-1.2,2.6c-0.3,1-0.4,2-0.4,3.1c0,2.6,1,4.6,3,6.2c2,1.6,4.7,2.4,8.1,2.4
		c4.6,0,8.1-1.6,10.5-4.8c2.4-3.2,3.6-8,3.6-14.3c0-4.8-0.7-8.7-2-11.6c-1.3-2.9-3.3-5.1-6-6.4c-2.6-1.4-5.9-2-9.8-2
		c-3.1,0-6.4,0.4-10.2,1.2c-3.7,0.8-7.6,2-11.7,3.5V50.8c4-1.7,8.2-2.9,12.6-3.8c4.5-0.9,9.1-1.4,13.8-1.4c5.5,0,10.5,0.7,14.8,2.1
		c4.3,1.4,7.9,3.6,10.8,6.4c2.9,2.9,5.1,6.5,6.5,10.9c1.4,4.4,2.2,9.5,2.2,15.5c0,8.2-1.3,14.9-4,20.3c-2.7,5.3-6.6,9.3-11.6,11.8
		C578.7,115.2,572.6,116.5,565.6,116.5z"/>
	<path d="M558.5,37.5c-3.9,0-7.5-0.5-10.7-1.6c-3.3-1.1-5.9-2.7-7.9-4.8c-2-2.1-3-4.9-3-8.2c0-3.7,1.2-6.9,3.7-9.5
		c2.5-2.6,6-4.6,10.5-6c4.5-1.4,9.8-2,15.8-2c6.1,0,11.4,0.7,15.9,2c4.5,1.4,8,3.4,10.5,6c2.5,2.6,3.8,5.8,3.8,9.5
		c0,3.3-1,6.1-2.9,8.2c-1.9,2.2-4.6,3.8-7.9,4.8c-3.3,1-6.9,1.5-10.9,1.5l-2.2-8.3c1.2-0.1,2.3-0.2,3.3-0.4c1-0.2,2-0.5,2.9-1
		c0.9-0.5,1.6-1,2.2-1.7c0.5-0.7,0.8-1.5,0.8-2.4c0-2.2-1.4-4-4.2-5.3c-2.8-1.3-6.6-1.9-11.4-1.9c-4.9,0-8.6,0.6-11.2,1.9
		c-2.6,1.3-3.9,3-3.9,5.3c0,0.9,0.3,1.7,0.8,2.4c0.5,0.7,1.2,1.3,2.1,1.7c0.9,0.5,1.8,0.8,2.9,1c1.1,0.2,2.2,0.4,3.2,0.4L558.5,37.5
		z"/>
	<path d="M634.8,116.5c-8.7,0-14.9-2.2-18.7-6.5c-3.8-4.3-5.7-9.9-5.7-16.8V46.8h20.3v48.2c0,1.8,0.4,3.2,1.2,4.1
		c0.8,0.9,1.8,1.4,3.2,1.4c1.4,0,2.5-0.5,3.3-1.4c0.8-0.9,1.2-2.3,1.2-4.1V68.9c0-4.6,0.7-8.7,2.1-12.2c1.4-3.5,3.8-6.2,7.2-8.2
		c3.4-1.9,8-2.9,13.8-2.9c8.7,0,14.9,2.2,18.8,6.4c3.8,4.3,5.8,9.9,5.8,16.9v46.4h-20.3V67c0-1.7-0.4-3.1-1.2-4
		c-0.8-0.9-1.9-1.4-3.2-1.4c-1.3,0-2.4,0.5-3.2,1.4c-0.8,1-1.2,2.3-1.2,4v26.2c0,4.6-0.7,8.7-2.2,12.2c-1.5,3.5-3.9,6.2-7.3,8.2
		C645.2,115.5,640.6,116.5,634.8,116.5z"/>
	<path d="M711.2,76.8c-5,0-8.6-1.3-10.8-4c-2.2-2.6-3.3-5.6-3.3-8.8c0-1,0.1-2.2,0.2-3.7c0.2-1.4,0.4-2.9,0.7-4.3
		c0.3-1.4,0.7-2.6,1-3.5h14.9c-0.3,0.6-0.6,1.3-0.8,2c-0.2,0.8-0.3,1.6-0.3,2.5c0,1.3,0.4,2.3,1.1,3c0.7,0.7,1.8,1,3.3,1h15.6v15.7
		H711.2z M711.2,111.4c-5,0-8.6-1.3-10.8-4c-2.2-2.6-3.3-5.6-3.3-8.8c0-1,0.1-2.2,0.2-3.7c0.2-1.4,0.4-2.9,0.7-4.3
		c0.3-1.4,0.7-2.6,1-3.5h14.9c-0.3,0.7-0.6,1.4-0.8,2.2c-0.2,0.8-0.3,1.6-0.3,2.5c0,1.2,0.4,2.2,1.1,2.9c0.7,0.7,1.8,1,3.3,1h15.6
		v15.7H711.2z"/>
	<path d="M773.1,116.5c-10.5,0-18.5-1.9-23.9-5.7c-5.5-3.8-8.2-8.8-8.2-15c0-2.7,0.5-5.1,1.4-7.1c0.9-2,2.2-3.7,3.8-5.1
		c1.6-1.4,3.5-2.4,5.8-3.2v-0.2c-2.4-1.1-4.4-2.4-6.1-4c-1.7-1.6-2.9-3.4-3.7-5.5c-0.8-2.1-1.2-4.4-1.2-6.8c0-3.1,0.7-6.1,2.2-8.9
		c1.4-2.8,3.8-5.1,7.1-6.8c3.3-1.7,7.5-2.6,12.8-2.6c2.6,0,5.1,0.2,7.5,0.6c2.4,0.4,4.7,1,6.6,1.6l-3.5,14.8
		c-0.8-0.2-1.8-0.5-2.9-0.7c-1.1-0.2-2.1-0.3-3.1-0.3c-2,0-3.5,0.5-4.5,1.5c-1,1-1.6,2.4-1.6,4.2c0,1.5,0.4,2.7,1.1,3.7
		c0.7,1,1.6,1.7,2.8,2.2c1.2,0.5,2.5,0.7,4,0.7h6.3v12.5h-6.3c-2.6,0-4.6,0.6-5.9,1.9c-1.3,1.2-1.9,2.9-1.9,4.8c0,1.7,0.5,3,1.4,4.2
		c0.9,1.1,2.3,1.9,3.9,2.5c1.7,0.5,3.5,0.8,5.6,0.8c2.4,0,4.4-0.4,6.1-1.1c1.7-0.7,3-1.8,3.8-3.1c0.9-1.3,1.3-2.9,1.3-4.8V46.8h21.1
		v43.4c0,6.1-1.2,11.1-3.7,15c-2.5,3.9-6.1,6.7-10.8,8.6S779.9,116.5,773.1,116.5z"/>
	<path d="M829.6,115.3V67.7c0-2.2-0.7-3.8-2.1-4.7c-1.4-0.9-3.2-1.4-5.3-1.4c-1.3,0-2.6,0.1-4,0.4c-1.3,0.2-2.6,0.6-3.7,1L812,48.6
		c2.1-0.8,4.7-1.5,7.8-2.1c3-0.6,6.2-0.9,9.5-0.9c7.4,0,12.8,1.5,16.2,4.5c3.5,3,5.2,7.8,5.2,14.3v50.8H829.6z"/>
	<path d="M886.6,116.5c-5.1,0-9.3-1.3-12.5-3.8c-3.2-2.6-4.8-6.9-4.8-13.1v-51c0-3.9,0.4-7.5,1.3-10.9c0.9-3.3,2.1-6.3,3.6-8.9
		c1.5-2.6,3.3-4.6,5.3-6l-0.1-0.5h-24.1l4.3-13.9h42.3v14.4c-4.1,1.7-7.1,4.3-8.9,8c-1.8,3.7-2.7,8.6-2.7,14.8v52.3
		c0,1.2,0.3,2.1,0.8,2.7c0.5,0.5,1.4,0.8,2.7,0.8c0.7,0,1.4-0.1,2.1-0.2c0.7-0.2,1.6-0.4,2.5-0.6l2.7,12.5c-2.5,1.2-4.9,2-7.3,2.6
		C891.4,116.2,889,116.5,886.6,116.5z"/>
	<path d="M924.8,116.5c-5.9,0-10.4-1.8-13.5-5.5c-3.1-3.6-4.7-8.6-4.7-14.9c0-4.6,0.8-8.6,2.5-11.9c1.7-3.3,4.2-5.8,7.5-7.6
		c3.3-1.8,7.3-2.7,12-2.7c5.5,0,10,1.2,13.3,3.7c3.3,2.4,5.6,5.8,6.6,10l2.7,10.8c0.2,0.7,0.6,1.3,1.1,1.8c0.5,0.5,1,0.7,1.7,0.7
		c0.7,0,1.3-0.2,1.7-0.7s0.6-1.2,0.6-2V75.3c0-3.3-0.9-6-2.7-8c-1.8-2-4.3-3.5-7.4-4.5c-3.1-0.9-6.7-1.4-10.7-1.4
		c-4,0-8.2,0.5-12.6,1.4c-4.5,0.9-8.6,2.1-12.4,3.5V50.9c2.9-1.2,6-2.1,9.2-2.9c3.3-0.8,6.6-1.4,10.1-1.9c3.5-0.5,6.9-0.7,10.4-0.7
		c6.9,0,13,0.9,18.5,2.8c5.5,1.9,9.9,4.8,13.1,8.7c3.2,3.9,4.8,9,4.8,15.3v25.9c0,5.9-2,10.4-5.9,13.6c-3.9,3.2-8.9,4.8-15.1,4.8
		c-5.3,0-9.5-1.2-12.6-3.5c-3.1-2.3-5.2-5.7-6.4-10.2l-2-7.3c-0.4-1.7-1.2-3.1-2.2-4.1c-1.1-1-2.4-1.5-4-1.5c-1.6,0-2.8,0.5-3.7,1.4
		c-0.9,1-1.4,2.4-1.4,4.4c0,1.8,0.4,3.2,1.2,4.2c0.8,1,2,1.4,3.5,1.4c0.5,0,1.1,0,1.7-0.1c0.6-0.1,1.3-0.2,1.9-0.4l3.2,13.5
		c-1.2,0.7-2.8,1.2-4.7,1.6C928.6,116.3,926.7,116.5,924.8,116.5z"/>
	<path d="M1006.7,116.5c-5,0-9-1.3-12.2-3.8c-3.1-2.5-4.7-6.9-4.7-13.2V46.8h20.7v51.1c0,1.2,0.3,2.1,0.8,2.7
		c0.5,0.5,1.4,0.8,2.7,0.8c0.7,0,1.4-0.1,2.1-0.2c0.7-0.2,1.6-0.4,2.5-0.6l2.6,12.5c-2.4,1.2-4.8,2-7.2,2.6
		C1011.6,116.2,1009.2,116.5,1006.7,116.5z M1041.9,116.5c-5,0-9-1.3-12.2-3.8c-3.1-2.5-4.7-6.9-4.7-13.2V46.8h20.7v51.1
		c0,1.2,0.3,2.1,0.8,2.7c0.5,0.5,1.4,0.8,2.5,0.8c0.7,0,1.5-0.1,2.2-0.2c0.7-0.2,1.5-0.4,2.4-0.6l2.7,12.5c-2.4,1.2-4.8,2-7.3,2.6
		C1046.7,116.2,1044.3,116.5,1041.9,116.5z"/>
	<path d="M1087.8,116.5c-7.7,0-13.6-2-17.7-6.1c-4.1-4.1-6.2-9.7-6.2-16.9V46.8h20.1v48.5c0,1.7,0.4,2.9,1.2,3.8
		c0.8,0.9,1.9,1.4,3.4,1.4c3.1,0,4.7-1.7,4.7-5.2V65.4c0-2.4-0.4-4.5-1.1-6.4c-0.7-1.9-1.9-3.5-3.5-4.8l13.9-8.8
		c1.7,0.8,3.1,2,4.4,3.7c1.3,1.6,2.3,3.4,2.9,5.4h0.2c2-2.9,4.3-5.1,7-6.6c2.7-1.5,5.8-2.2,9.2-2.2c3.1,0,5.8,0.7,7.9,2
		c2.1,1.3,3.8,3.3,4.8,5.9c1.1,2.6,1.6,5.9,1.6,10v51.8h-20.2V66.5c0-1.6-0.4-2.8-1.1-3.7c-0.7-0.9-1.9-1.3-3.3-1.3
		c-1,0-1.9,0.2-2.6,0.7c-0.7,0.5-1.3,1.1-1.6,1.8c-0.3,0.7-0.5,1.7-0.5,2.7v26.7c0,7.2-2,12.8-6.1,16.9
		C1101.2,114.5,1095.4,116.5,1087.8,116.5z"/>
	<path d="M1120.8,36.3v-25h18.7v25H1120.8z"/>
	<path d="M1165,138.5c-3.6,0-7.2-0.4-10.7-1.2c-3.5-0.8-6.6-1.8-9.4-3V119c2.8,1.1,5.5,1.9,8.1,2.6c2.6,0.7,4.9,1,6.9,1
		c3.1,0,5.5-0.7,7.2-2.1c1.7-1.4,2.6-3.4,2.6-6V68c0-2.1-0.9-3.8-2.6-4.8c-1.7-1.1-3.8-1.6-6.2-1.6c-1.4,0-2.8,0.2-4.3,0.6
		c-1.4,0.4-2.8,0.8-3.9,1.3l-3.2-13.1c2.8-1.6,5.8-2.7,9.1-3.5c3.3-0.8,6.5-1.2,9.6-1.2c4.1,0,7.9,0.7,11.3,2
		c3.4,1.3,6.1,3.3,8.2,5.9c2.1,2.6,3.1,5.9,3.1,9.9V116c0,7.2-2.3,12.7-7,16.6C1179.1,136.5,1172.9,138.5,1165,138.5z"/>
	<path d="M1248.2,138.5v-24.9c0-1.1-0.2-1.8-0.7-2.3c-0.5-0.5-1.3-0.7-2.4-0.7c-1.2,0-2.7,0.3-4.3,0.9c-1.6,0.6-3.4,1.3-5.5,2
		c-2,0.8-4.3,1.5-6.8,2.1c-2.5,0.6-5.3,0.9-8.2,0.9c-3.3,0-6.4-0.5-9.3-1.6c-2.9-1-5.2-2.7-6.9-5c-1.7-2.3-2.5-5.3-2.5-9
		c0-3.1,0.6-5.7,1.8-7.9c1.2-2.2,2.9-4.2,5.1-5.9c2.2-1.7,4.8-3.3,7.9-4.8c3.1-1.5,6.4-3,10.2-4.6c4.7-2,8.4-3.6,11.2-4.8
		c2.7-1.2,4.7-2.3,5.8-3.2c1.2-0.9,1.7-2.1,1.7-3.5c0-1.2-0.4-2.3-1.2-3.2c-0.8-0.9-2-1.5-3.5-2c-1.6-0.5-3.5-0.7-5.8-0.7
		c-2.4,0-4.5,0.2-6.2,0.7s-3.1,1.2-4,2.2c-0.9,1-1.4,2.2-1.4,3.7c0,0.8,0.1,1.6,0.4,2.2c0.3,0.7,0.7,1.4,1.3,2.1l-15.4,7.7
		c-1.9-1.2-3.5-3-4.8-5.4c-1.3-2.4-2-5.2-2-8.2c0-3.9,1.2-7.3,3.5-10.3c2.4-3,5.9-5.3,10.7-7.1c4.8-1.7,10.8-2.6,18.1-2.6
		c7.4,0,13.4,0.9,17.9,2.7c4.5,1.8,7.8,4.2,9.8,7.3c2,3.1,3,6.5,3,10.3c0,2.9-0.6,5.4-1.7,7.5c-1.1,2.1-2.8,4-5,5.8s-5,3.4-8.2,4.9
		c-3.2,1.5-7,3.2-11.3,4.9c-3.2,1.2-6.2,2.4-8.8,3.5c-2.6,1.1-4.8,2.1-6.3,3c-1.6,1-2.4,2-2.4,3.2c0,0.6,0.3,1.1,0.8,1.5
		c0.5,0.4,1.2,0.6,1.9,0.6c1.4,0,3.1-0.4,5-1.2c1.9-0.8,4-1.7,6.3-2.7c2.3-1,4.8-1.9,7.5-2.6c2.7-0.7,5.4-1.1,8.2-1.1
		c3.3,0,6,0.6,8.1,1.9c2.1,1.3,3.6,3.1,4.5,5.5c0.9,2.4,1.4,5.2,1.4,8.6v29.4H1248.2z"/>
	<path d="M1289.8,115.3V67.7c0-2.2-0.7-3.8-2.1-4.7c-1.4-0.9-3.2-1.4-5.3-1.4c-1.3,0-2.6,0.1-4,0.4c-1.3,0.2-2.6,0.6-3.7,1
		l-2.5-14.4c2.1-0.8,4.7-1.5,7.8-2.1c3-0.6,6.2-0.9,9.5-0.9c7.4,0,12.8,1.5,16.2,4.5c3.5,3,5.2,7.8,5.2,14.3v50.8H1289.8z"/>
	<path d="M1348.2,116.5c-6.5,0-11.8-1.5-15.7-4.4c-3.9-2.9-6.8-6.9-8.5-12c-1.7-5.1-2.6-10.9-2.6-17.3c0-9.3,1.5-16.6,4.5-22
		c3-5.4,7.1-9.3,12.3-11.7s11.2-3.5,17.9-3.5c10.2,0,18.1,2.4,23.7,7.1c5.5,4.7,8.3,11.6,8.3,20.7v41.9h-21.1V72.7
		c0-3.6-0.9-6.3-2.7-8.2c-1.8-1.9-4.6-2.9-8.6-2.9c-2.6,0-4.8,0.6-6.8,1.7c-1.9,1.1-3.5,3.1-4.6,6.1c-1.1,2.9-1.7,7.2-1.7,12.7
		c0,4.3,0.4,7.8,1.1,10.5c0.7,2.7,1.8,4.8,3.3,6.1c1.5,1.3,3.3,2,5.5,2c0.7,0,1.6-0.1,2.7-0.2c1-0.2,2-0.4,2.8-0.7l2.6,14.6
		c-2,0.8-4,1.4-6,1.7C1352.5,116.3,1350.4,116.5,1348.2,116.5z"/>
</g>
<g>
	<path d="M291.5,215.8c-3.2,0-5.8-1-7.7-3c-1.9-2-2.8-5-2.8-9.1v-28.1h6.3v28.2c0,2.4,0.5,4.1,1.4,5.1c0.9,1.1,2.3,1.6,4,1.6
		c1.9,0,3.4-0.6,4.3-1.7c1-1.2,1.4-2.9,1.4-5.3v-27.9h6.2v27.9c0,2.4,0.5,4.1,1.4,5.3c1,1.2,2.4,1.7,4.3,1.7c1.8,0,3.1-0.5,4-1.6
		c0.9-1.1,1.4-2.8,1.4-5.1v-28.2h6.3v28.1c0,4.1-0.9,7.1-2.8,9.1c-1.9,2-4.4,3-7.7,3c-2.4,0-4.5-0.5-6.2-1.5c-1.7-1-2.9-2.2-3.7-3.7
		h-0.4c-0.8,1.5-2,2.7-3.7,3.7C296,215.3,293.9,215.8,291.5,215.8z"/>
	<path d="M339.2,215.1v-30.6c0-1.7-0.4-2.9-1.1-3.5c-0.7-0.7-1.8-1-3.4-1c-1.2,0-2.2,0.1-3.1,0.4c-0.9,0.3-1.7,0.5-2.4,0.8l-1-4.7
		c1-0.4,2.2-0.8,3.6-1.1c1.4-0.3,2.9-0.5,4.3-0.5c2.7,0,5,0.7,6.8,2.1c1.8,1.4,2.7,3.6,2.7,6.6v31.5H339.2z"/>
	<path d="M358.1,215.5c-0.8,0-1.6-0.1-2.5-0.3c-0.9-0.2-1.8-0.4-2.7-0.8l0.9-4.5c0.4,0.1,0.9,0.3,1.3,0.3c0.4,0.1,0.8,0.1,1.2,0.1
		c0.8,0,1.5-0.2,2.1-0.7c0.6-0.5,0.8-1.2,0.8-2.3v-18.7c0-2.6-0.4-4.8-1.2-6.4c-0.8-1.6-1.7-2.9-2.7-3.9l4.6-3.5
		c0.7,0.6,1.4,1.4,2.1,2.5c0.7,1.1,1.3,2.2,1.7,3.3h0.2c1.1-1.5,2.3-2.7,3.6-3.5c1.3-0.8,2.7-1.4,4.2-1.8c1.5-0.4,3-0.5,4.5-0.5
		c2.9,0,5.4,0.6,7.4,1.7c2,1.1,3.6,2.7,4.6,4.9c1.1,2.2,1.6,4.9,1.6,8.2v25.4h-6.3v-25c0-2.1-0.3-3.9-0.9-5.4
		c-0.6-1.5-1.5-2.6-2.7-3.4c-1.2-0.8-2.9-1.2-4.9-1.2c-1.1,0-2.2,0.1-3.3,0.4c-1.1,0.3-2.1,0.8-3.1,1.4c-0.9,0.7-1.7,1.6-2.2,2.8
		c-0.6,1.2-0.8,2.7-0.8,4.5v17.8c0,2.6-0.6,4.7-1.9,6.2C362.2,214.8,360.4,215.5,358.1,215.5z"/>
	<path d="M414.9,215.8c-3.2,0-6-0.5-8.5-1.4c-2.5-0.9-4.4-2.3-5.8-4.1c-1.4-1.8-2.1-4-2.1-6.5c0-0.9,0.1-1.7,0.3-2.3
		c0.2-0.6,0.4-1.2,0.6-1.7l5.9,1.7c-0.1,0.3-0.3,0.7-0.4,1.1c-0.1,0.4-0.1,0.8-0.1,1.4c0,2,0.8,3.6,2.5,4.9c1.7,1.2,4.1,1.8,7.2,1.8
		c3.7,0,6.7-1.1,8.8-3.3c2.1-2.2,3.2-6.1,3.2-11.7c0-4.1-0.6-7.2-1.7-9.4c-1.1-2.2-2.6-3.7-4.6-4.6c-2-0.9-4.3-1.3-6.9-1.3
		c-2.5,0-4.8,0.3-7,0.9c-2.2,0.6-4.3,1.4-6.3,2.4v-5.6c1.6-0.8,3.6-1.5,5.9-2.1c2.4-0.6,5-0.9,7.9-0.9c2.7,0,5.2,0.3,7.5,1
		c2.3,0.6,4.3,1.7,6,3.2s3.1,3.6,4,6.2c1,2.6,1.4,6,1.4,10c0,5.2-0.8,9.3-2.4,12.2s-3.7,5.1-6.4,6.3
		C421.2,215.2,418.2,215.8,414.9,215.8z"/>
	<path d="M410.3,170c-1.7,0-3.3-0.3-4.8-0.9c-1.5-0.6-2.8-1.4-3.7-2.5c-1-1.1-1.4-2.5-1.4-4.1c0-2,0.7-3.7,2.2-5.1
		c1.5-1.4,3.4-2.4,5.8-3.1c2.4-0.7,4.9-1,7.7-1s5.3,0.3,7.7,1c2.4,0.7,4.3,1.7,5.8,3.1c1.5,1.4,2.2,3.1,2.2,5.1c0,1.6-0.5,3-1.5,4.1
		c-1,1.1-2.2,2-3.8,2.5c-1.5,0.6-3.1,0.8-4.8,0.8l-1-3.7c0.1,0,0.4-0.1,0.9-0.2c0.5-0.1,1.1-0.3,1.7-0.6c0.6-0.3,1.2-0.6,1.7-1.2
		c0.5-0.5,0.7-1.2,0.7-2.1c0-1.4-0.8-2.5-2.4-3.3c-1.6-0.8-4-1.3-7.2-1.3s-5.6,0.4-7.2,1.3c-1.7,0.8-2.5,2-2.5,3.3
		c0,0.9,0.2,1.5,0.7,2.1c0.5,0.5,1,0.9,1.7,1.2c0.6,0.3,1.2,0.5,1.8,0.6c0.5,0.1,0.8,0.2,0.9,0.2L410.3,170z"/>
	<path d="M470.6,227.6v-14.1c0-1-0.2-1.6-0.6-2.1c-0.4-0.4-1-0.6-1.8-0.6c-0.9,0-1.9,0.3-3,0.8c-1.1,0.5-2.3,1.1-3.6,1.7
		c-1.3,0.6-2.7,1.2-4.1,1.7c-1.5,0.5-3.1,0.8-4.8,0.8c-1.7,0-3.3-0.3-4.8-0.9c-1.5-0.6-2.7-1.5-3.7-2.8s-1.4-2.9-1.4-4.9
		c0-2,0.5-3.6,1.4-5c1-1.4,2.2-2.5,3.8-3.4c1.6-0.9,3.3-1.7,5.2-2.3c1.9-0.6,3.8-1.3,5.7-1.8c2.3-0.7,4.3-1.3,6-1.9
		c1.8-0.6,3.2-1.4,4.2-2.3c1-0.9,1.5-2.1,1.5-3.7c0-1.5-0.5-2.8-1.5-3.8c-1-1-2.3-1.7-3.9-2.2c-1.6-0.5-3.4-0.7-5.4-0.7
		c-2,0-3.8,0.2-5.4,0.7c-1.6,0.5-2.9,1.2-3.9,2.2c-1,1-1.5,2.2-1.5,3.8c0,0.8,0.1,1.4,0.4,1.9c0.2,0.5,0.5,0.9,0.9,1.4l-5,2.5
		c-0.8-0.7-1.3-1.5-1.7-2.6c-0.4-1.1-0.5-2.1-0.5-3.2c0-2,0.6-3.9,1.7-5.8c1.2-1.8,3-3.3,5.4-4.4c2.5-1.1,5.7-1.7,9.6-1.7
		c3.9,0,7.1,0.6,9.6,1.7c2.5,1.1,4.3,2.6,5.5,4.4c1.2,1.8,1.8,3.8,1.8,5.9c0,2-0.5,3.7-1.4,5.1c-1,1.4-2.2,2.5-3.8,3.5
		s-3.3,1.8-5.3,2.4c-1.9,0.7-3.8,1.3-5.8,1.9c-1.9,0.6-3.7,1.2-5.5,1.8c-1.8,0.6-3.3,1.3-4.4,2.2c-1.2,0.9-1.7,2-1.7,3.4
		c0,1,0.3,1.9,1,2.6c0.7,0.7,1.7,1.1,3,1.1c1.2,0,2.4-0.3,3.7-0.8c1.3-0.5,2.7-1.1,4.1-1.8c1.4-0.7,2.9-1.3,4.4-1.8
		c1.5-0.5,3-0.8,4.5-0.8c1.2,0,2.4,0.2,3.6,0.7c1.1,0.5,2,1.3,2.7,2.4c0.7,1.1,1,2.7,1,4.6v14.3H470.6z"/>
	<path d="M493.2,215.1v-30.6c0-1.7-0.4-2.9-1.1-3.5c-0.7-0.7-1.8-1-3.4-1c-1.2,0-2.2,0.1-3.1,0.4c-0.9,0.3-1.7,0.5-2.4,0.8l-1-4.7
		c1-0.4,2.2-0.8,3.6-1.1c1.4-0.3,2.9-0.5,4.3-0.5c2.7,0,5,0.7,6.8,2.1c1.8,1.4,2.7,3.6,2.7,6.6v31.5H493.2z"/>
	<path d="M543.4,215.8c-3.2,0-6-0.5-8.5-1.4c-2.5-0.9-4.4-2.3-5.8-4.1c-1.4-1.8-2.1-4-2.1-6.5c0-0.9,0.1-1.7,0.3-2.3
		c0.2-0.6,0.4-1.2,0.6-1.7l5.9,1.7c-0.1,0.3-0.3,0.7-0.4,1.1c-0.1,0.4-0.1,0.8-0.1,1.4c0,2,0.8,3.6,2.5,4.9c1.7,1.2,4.1,1.8,7.2,1.8
		c3.7,0,6.7-1.1,8.8-3.3c2.1-2.2,3.2-6.1,3.2-11.7c0-4.1-0.6-7.2-1.7-9.4c-1.1-2.2-2.6-3.7-4.6-4.6c-2-0.9-4.3-1.3-6.9-1.3
		c-2.5,0-4.8,0.3-7,0.9c-2.2,0.6-4.3,1.4-6.3,2.4v-5.6c1.6-0.8,3.6-1.5,5.9-2.1s5-0.9,7.9-0.9c2.7,0,5.2,0.3,7.5,1
		c2.3,0.6,4.3,1.7,6,3.2c1.7,1.5,3.1,3.6,4,6.2c1,2.6,1.4,6,1.4,10c0,5.2-0.8,9.3-2.4,12.2s-3.7,5.1-6.4,6.3
		C549.8,215.2,546.7,215.8,543.4,215.8z"/>
	<path d="M538.8,170c-1.7,0-3.3-0.3-4.8-0.9c-1.5-0.6-2.8-1.4-3.7-2.5c-1-1.1-1.4-2.5-1.4-4.1c0-2,0.7-3.7,2.2-5.1
		c1.5-1.4,3.4-2.4,5.8-3.1c2.4-0.7,4.9-1,7.7-1c2.7,0,5.3,0.3,7.7,1c2.4,0.7,4.3,1.7,5.8,3.1c1.5,1.4,2.2,3.1,2.2,5.1
		c0,1.6-0.5,3-1.5,4.1c-1,1.1-2.2,2-3.8,2.5c-1.5,0.6-3.1,0.8-4.8,0.8l-1-3.7c0.1,0,0.4-0.1,0.9-0.2c0.5-0.1,1.1-0.3,1.7-0.6
		c0.6-0.3,1.2-0.6,1.7-1.2c0.5-0.5,0.7-1.2,0.7-2.1c0-1.4-0.8-2.5-2.4-3.3c-1.6-0.8-4-1.3-7.2-1.3s-5.6,0.4-7.2,1.3
		c-1.7,0.8-2.5,2-2.5,3.3c0,0.9,0.2,1.5,0.7,2.1c0.5,0.5,1,0.9,1.7,1.2c0.6,0.3,1.2,0.5,1.8,0.6c0.5,0.1,0.8,0.2,0.9,0.2L538.8,170z
		"/>
	<path d="M580.2,215.8c-3.4,0-5.8-1-7.3-3c-1.5-2-2.2-4.4-2.2-7.3c0-1.9,0.3-3.6,1-5.3c0.7-1.6,1.8-3,3.4-4c1.6-1,3.7-1.5,6.5-1.5
		c3,0,5.3,0.6,7,1.9c1.7,1.2,2.9,2.9,3.5,5l2.3,7.4c0.3,0.9,0.7,1.5,1.2,1.9c0.5,0.4,1.1,0.5,1.8,0.5c0.8,0,1.4-0.2,1.8-0.7
		c0.4-0.5,0.6-1.2,0.6-2.2v-18.5c0-2.5-0.7-4.5-2.1-6c-1.4-1.5-3.2-2.7-5.4-3.4c-2.2-0.7-4.6-1.1-7.2-1.1c-2.4,0-4.4,0.3-6.1,0.9
		s-2.5,1.5-2.5,2.7c0,0.8,0.4,1.5,1.2,1.9c0.8,0.5,1.8,0.8,3.1,1s2.6,0.3,4,0.3c3.7,0,6.8-0.6,9.2-1.8c2.4-1.2,4.2-2.7,5.4-4.4
		c1.2-1.8,1.8-3.6,1.8-5.3v-0.5h5.6v0.5c0,2.7-0.9,5.3-2.7,7.8c-1.8,2.5-4.3,4.5-7.6,6c-3.3,1.6-7.1,2.3-11.4,2.3
		c-2.5,0-4.9-0.3-7-0.9c-2.1-0.6-3.8-1.5-5-2.7c-1.2-1.2-1.9-2.7-1.9-4.5c0-2.3,1.2-4.2,3.5-5.8s6-2.4,11.1-2.4
		c4.7,0,8.5,0.7,11.5,2.1c3,1.4,5.2,3.2,6.7,5.5c1.4,2.3,2.2,4.8,2.2,7.6v17.3c0,2.9-0.8,5.1-2.4,6.4c-1.6,1.3-3.8,2-6.4,2
		c-2.4,0-4.2-0.5-5.5-1.5c-1.3-1-2.3-2.5-2.9-4.5l-2.1-6.8c-0.3-1.2-1-2.2-1.9-2.7c-0.9-0.6-2.1-0.9-3.4-0.9c-1.6,0-2.9,0.5-3.8,1.4
		c-0.9,0.9-1.4,2.5-1.4,4.6c0,1.8,0.4,3.2,1.1,4.2c0.7,1,1.9,1.5,3.6,1.5c0.4,0,0.8,0,1.2-0.1c0.4-0.1,0.7-0.2,1.1-0.3l1,4.3
		c-0.5,0.2-1.1,0.4-1.8,0.5C581.7,215.7,581,215.8,580.2,215.8z"/>
	<path d="M622.7,189.3c-3,0-5.1-0.6-6.3-1.9c-1.2-1.3-1.9-2.7-1.9-4.3c0-0.5,0-1,0.1-1.5c0.1-0.5,0.2-1,0.4-1.4
		c0.2-0.5,0.4-0.9,0.6-1.2h5.5c-0.2,0.3-0.3,0.8-0.5,1.3s-0.2,1-0.2,1.5c0,0.6,0.2,1.2,0.5,1.7c0.3,0.5,0.9,0.7,1.8,0.7h11.7v5.1
		H622.7z M622.7,211.9c-3,0-5.1-0.6-6.3-1.9c-1.2-1.3-1.9-2.7-1.9-4.3c0-0.5,0-1,0.1-1.5c0.1-0.5,0.2-1,0.4-1.5
		c0.2-0.5,0.4-0.9,0.6-1.2h5.5c-0.2,0.4-0.3,0.8-0.5,1.3c-0.1,0.5-0.2,1-0.2,1.5c0,0.7,0.2,1.2,0.5,1.7c0.3,0.5,0.9,0.7,1.8,0.7
		h11.7v5.2H622.7z"/>
	<path d="M658.1,215.8c-3.2,0-6-0.5-8.5-1.4c-2.5-0.9-4.4-2.3-5.8-4.1c-1.4-1.8-2.1-4-2.1-6.5c0-0.9,0.1-1.7,0.3-2.3
		c0.2-0.6,0.4-1.2,0.6-1.7l5.9,1.7c-0.1,0.3-0.3,0.7-0.4,1.1c-0.1,0.4-0.1,0.8-0.1,1.4c0,2,0.8,3.6,2.5,4.9c1.7,1.2,4.1,1.8,7.2,1.8
		c3.7,0,6.7-1.1,8.8-3.3c2.1-2.2,3.2-6.1,3.2-11.7c0-4.1-0.6-7.2-1.7-9.4c-1.1-2.2-2.6-3.7-4.6-4.6c-2-0.9-4.3-1.3-6.9-1.3
		c-2.5,0-4.8,0.3-7,0.9c-2.2,0.6-4.3,1.4-6.3,2.4v-5.6c1.6-0.8,3.6-1.5,5.9-2.1s5-0.9,7.9-0.9c2.7,0,5.2,0.3,7.5,1
		c2.3,0.6,4.3,1.7,6,3.2c1.7,1.5,3.1,3.6,4,6.2c1,2.6,1.4,6,1.4,10c0,5.2-0.8,9.3-2.4,12.2s-3.7,5.1-6.4,6.3
		C664.5,215.2,661.4,215.8,658.1,215.8z"/>
	<path d="M691.7,189.3c-3,0-5.1-0.6-6.3-1.9c-1.2-1.3-1.9-2.7-1.9-4.3c0-0.5,0-1,0.1-1.5c0.1-0.5,0.2-1,0.4-1.4
		c0.2-0.5,0.4-0.9,0.6-1.2h5.5c-0.2,0.3-0.3,0.8-0.5,1.3c-0.1,0.5-0.2,1-0.2,1.5c0,0.6,0.2,1.2,0.5,1.7c0.3,0.5,0.9,0.7,1.8,0.7
		h11.7v5.1H691.7z M691.7,211.9c-3,0-5.1-0.6-6.3-1.9c-1.2-1.3-1.9-2.7-1.9-4.3c0-0.5,0-1,0.1-1.5c0.1-0.5,0.2-1,0.4-1.5
		c0.2-0.5,0.4-0.9,0.6-1.2h5.5c-0.2,0.4-0.3,0.8-0.5,1.3c-0.1,0.5-0.2,1-0.2,1.5c0,0.7,0.2,1.2,0.5,1.7c0.3,0.5,0.9,0.7,1.8,0.7
		h11.7v5.2H691.7z"/>
	<path d="M714.4,215.5c-0.8,0-1.6-0.1-2.5-0.3c-0.9-0.2-1.8-0.4-2.7-0.8l0.9-4.5c0.4,0.1,0.9,0.3,1.3,0.3c0.4,0.1,0.8,0.1,1.2,0.1
		c0.8,0,1.5-0.2,2.1-0.7c0.6-0.5,0.8-1.2,0.8-2.3v-18.7c0-2.6-0.4-4.8-1.2-6.4c-0.8-1.6-1.7-2.9-2.7-3.9l4.6-3.5
		c0.7,0.6,1.4,1.4,2.1,2.5s1.3,2.2,1.7,3.3h0.2c1.1-1.5,2.3-2.7,3.6-3.5c1.3-0.8,2.7-1.4,4.2-1.8c1.5-0.4,3-0.5,4.5-0.5
		c2.9,0,5.4,0.6,7.4,1.7c2,1.1,3.6,2.7,4.6,4.9c1.1,2.2,1.6,4.9,1.6,8.2v25.4h-6.3v-25c0-2.1-0.3-3.9-0.9-5.4
		c-0.6-1.5-1.5-2.6-2.7-3.4s-2.9-1.2-4.9-1.2c-1.1,0-2.2,0.1-3.3,0.4c-1.1,0.3-2.1,0.8-3.1,1.4c-0.9,0.7-1.7,1.6-2.2,2.8
		c-0.6,1.2-0.8,2.7-0.8,4.5v17.8c0,2.6-0.6,4.7-1.9,6.2C718.6,214.8,716.8,215.5,714.4,215.5z"/>
	<path d="M729.9,170.4c-2.3,0-4.2-0.7-5.5-2c-1.4-1.3-2.1-3.1-2.1-5.2c0-2.2,0.7-3.9,2.1-5.2c1.4-1.3,3.2-2,5.5-2
		c2.4,0,4.2,0.7,5.7,2c1.4,1.3,2.1,3.1,2.1,5.2c0,2.2-0.7,3.9-2.1,5.2C734.1,169.7,732.2,170.4,729.9,170.4z M729.9,166.5
		c1.1,0,1.9-0.3,2.5-0.9c0.6-0.6,0.9-1.4,0.9-2.4c0-1-0.3-1.7-0.9-2.3c-0.6-0.6-1.4-0.9-2.4-0.9c-1.1,0-1.9,0.3-2.5,0.9
		c-0.6,0.6-0.9,1.4-0.9,2.4c0,1,0.3,1.8,0.9,2.4C728,166.2,728.8,166.5,729.9,166.5z"/>
	<path d="M763.1,215.1v-30.6c0-1.7-0.4-2.9-1.1-3.5c-0.7-0.7-1.8-1-3.4-1c-1.2,0-2.2,0.1-3.1,0.4c-0.9,0.3-1.7,0.5-2.4,0.8l-1-4.7
		c1-0.4,2.2-0.8,3.6-1.1c1.4-0.3,2.9-0.5,4.3-0.5c2.7,0,5,0.7,6.8,2.1c1.8,1.4,2.7,3.6,2.7,6.6v31.5H763.1z"/>
	<path d="M791.9,215.8c-2.8,0-5-0.5-6.8-1.6c-1.7-1.1-3-2.4-3.7-4.1c-0.8-1.7-1.2-3.4-1.2-5.3c0-1.5,0.2-2.9,0.7-4.1
		c0.5-1.2,1.2-2.3,2.2-3.2c1-0.9,2.3-1.5,3.8-1.9v-0.2c-1.4-0.5-2.6-1.1-3.6-1.9s-1.8-1.8-2.3-3c-0.6-1.2-0.8-2.5-0.8-4.1
		c0-3.6,1.5-6.4,4.4-8.5s7.2-3.1,12.7-3.1c5.4,0,9.4,1.1,12.2,3.3c2.8,2.2,4.1,5.8,4.1,10.8v26h-6.3v-26.6c0-1.8-0.3-3.3-1-4.6
		c-0.7-1.2-1.8-2.2-3.3-2.8c-1.5-0.6-3.6-1-6.1-1c-2.3,0-4.2,0.3-5.7,0.8s-2.7,1.2-3.5,2.2c-0.8,1-1.2,2.2-1.2,3.6
		c0,2.1,0.8,3.7,2.4,4.8c1.6,1.1,3.7,1.6,6.2,1.6h1.4v4.7h-1.4c-1.7,0-3.2,0.2-4.5,0.6c-1.3,0.4-2.3,1.1-3,2.1
		c-0.7,1-1.1,2.2-1.1,3.8c0,1.9,0.5,3.4,1.6,4.6s2.7,1.7,4.7,1.7c0.9,0,1.7-0.1,2.5-0.3c0.8-0.2,1.5-0.3,2-0.5l1.1,5
		c-0.7,0.3-1.6,0.5-2.8,0.8C794.4,215.7,793.2,215.8,791.9,215.8z"/>
	<path d="M841.6,215.8c-3.3,0-6.2-0.5-8.8-1.5s-4.6-2.4-6.1-4.2c-1.5-1.8-2.2-3.9-2.2-6.4c0-1,0.1-1.8,0.4-2.4
		c0.2-0.6,0.5-1.1,0.9-1.6l5.2,1.5c-0.2,0.4-0.3,0.8-0.4,1.2c-0.1,0.4-0.1,0.8-0.1,1.2c0,1.4,0.5,2.6,1.6,3.7
		c1.1,1.1,2.4,1.9,4.2,2.4c1.7,0.6,3.6,0.8,5.5,0.8c4,0,7-1.2,9-3.7c2-2.4,3.1-6.2,3.1-11.2c0-5.1-1.1-9-3.2-11.6
		c-2.2-2.6-5.4-3.9-9.9-3.9c-2.9,0-5.4,0.6-7.4,1.7c-2,1.2-3,2.8-3,4.9c0,1.9,0.9,3.4,2.6,4.5c1.8,1.1,4.2,1.7,7.2,1.7
		c1.4,0,2.9-0.1,4.4-0.4c1.6-0.2,3.1-0.7,4.7-1.3c1.6-0.6,3-1.4,4.4-2.3l2.4,4.2c-1.5,1.1-3.1,1.9-4.9,2.7c-1.8,0.7-3.6,1.2-5.5,1.6
		c-1.9,0.3-3.8,0.5-5.7,0.5c-4.8,0-8.6-1-11.4-3.1c-2.7-2.1-4.1-4.8-4.1-8.2c0-2.2,0.6-4.2,1.8-6c1.2-1.8,3-3.2,5.4-4.2
		c2.4-1,5.4-1.5,8.9-1.5c3.6,0,6.9,0.7,9.9,2c2.9,1.3,5.3,3.5,7,6.6c1.8,3,2.6,7.1,2.6,12.3c0,4.9-0.8,8.9-2.4,11.8
		c-1.6,3-3.8,5.1-6.6,6.3C848.2,215.2,845.1,215.8,841.6,215.8z"/>
	<path d="M871,215.9c-1,0-1.9-0.1-2.8-0.3c-0.9-0.2-1.8-0.4-2.6-0.7l0.9-4.5c0.4,0.1,0.9,0.3,1.3,0.3c0.4,0.1,0.8,0.1,1.2,0.1
		c0.8,0,1.5-0.2,2.1-0.7c0.6-0.5,0.8-1.2,0.8-2.3v-32.2h6.3v25.7c0,2.4,0.5,4.3,1.4,5.7c0.9,1.3,2.1,2.2,3.4,2.8
		c1.4,0.5,2.8,0.8,4.2,0.8c3.1,0,5.3-0.9,6.8-2.6c1.4-1.8,2.2-4.2,2.2-7.3v-25h6.3v25.4c0,3.3-0.6,6-1.7,8.2
		c-1.1,2.2-2.7,3.8-4.8,4.9c-2.1,1.1-4.7,1.7-7.7,1.7c-2.2,0-4.1-0.3-5.9-1c-1.8-0.6-3.4-1.7-4.9-3.3h-2.7l2.5-2.3v1.4
		c0,1.7-0.6,3-1.7,3.9S873.1,215.9,871,215.9z"/>
	<path d="M924.5,215.8c-3.2,0-5.8-1-7.7-3c-1.9-2-2.8-5-2.8-9.1v-28.1h6.3v28.2c0,2.4,0.5,4.1,1.4,5.1c0.9,1.1,2.3,1.6,4,1.6
		c1.9,0,3.4-0.6,4.3-1.7c1-1.2,1.4-2.9,1.4-5.3v-27.9h6.2v27.9c0,2.4,0.5,4.1,1.4,5.3c1,1.2,2.4,1.7,4.3,1.7c1.8,0,3.1-0.5,4-1.6
		c0.9-1.1,1.4-2.8,1.4-5.1v-28.2h6.3v28.1c0,4.1-0.9,7.1-2.8,9.1c-1.9,2-4.4,3-7.7,3c-2.4,0-4.5-0.5-6.2-1.5c-1.7-1-2.9-2.2-3.7-3.7
		h-0.4c-0.8,1.5-2,2.7-3.7,3.7C929,215.3,926.9,215.8,924.5,215.8z"/>
	<path d="M933.5,170c-1.7,0-3.3-0.3-4.8-0.9c-1.5-0.6-2.8-1.4-3.7-2.5c-1-1.1-1.4-2.5-1.4-4.1c0-2,0.7-3.7,2.2-5.1
		c1.5-1.4,3.4-2.4,5.8-3.1c2.4-0.7,4.9-1,7.7-1s5.3,0.3,7.7,1c2.4,0.7,4.3,1.7,5.8,3.1c1.5,1.4,2.2,3.1,2.2,5.1c0,1.6-0.5,3-1.5,4.1
		c-1,1.1-2.2,2-3.8,2.5c-1.5,0.6-3.1,0.8-4.8,0.8l-1-3.7c0.1,0,0.4-0.1,0.9-0.2c0.5-0.1,1.1-0.3,1.7-0.6c0.6-0.3,1.2-0.6,1.7-1.2
		c0.5-0.5,0.7-1.2,0.7-2.1c0-1.4-0.8-2.5-2.4-3.3c-1.6-0.8-4-1.3-7.2-1.3s-5.6,0.4-7.2,1.3c-1.7,0.8-2.5,2-2.5,3.3
		c0,0.9,0.2,1.5,0.7,2.1c0.5,0.5,1,0.9,1.7,1.2c0.6,0.3,1.2,0.5,1.8,0.6c0.5,0.1,0.8,0.2,0.9,0.2L933.5,170z"/>
	<path d="M980.3,215.8c-3.2,0-6-0.5-8.5-1.4c-2.5-0.9-4.4-2.3-5.8-4.1c-1.4-1.8-2.1-4-2.1-6.5c0-0.9,0.1-1.7,0.3-2.3
		s0.4-1.2,0.6-1.7l5.9,1.7c-0.1,0.3-0.3,0.7-0.4,1.1c-0.1,0.4-0.1,0.8-0.1,1.4c0,2,0.8,3.6,2.5,4.9c1.7,1.2,4.1,1.8,7.2,1.8
		c3.7,0,6.7-1.1,8.8-3.3c2.1-2.2,3.2-6.1,3.2-11.7c0-4.1-0.6-7.2-1.7-9.4c-1.1-2.2-2.6-3.7-4.6-4.6c-2-0.9-4.3-1.3-6.9-1.3
		c-2.5,0-4.8,0.3-7,0.9c-2.2,0.6-4.3,1.4-6.3,2.4v-5.6c1.6-0.8,3.6-1.5,5.9-2.1c2.4-0.6,5-0.9,7.9-0.9c2.7,0,5.2,0.3,7.5,1
		c2.3,0.6,4.3,1.7,6,3.2c1.7,1.5,3.1,3.6,4,6.2s1.4,6,1.4,10c0,5.2-0.8,9.3-2.4,12.2s-3.7,5.1-6.4,6.3
		C986.7,215.2,983.7,215.8,980.3,215.8z"/>
	<path d="M1017.1,215.8c-2.2,0-4.1-0.6-5.7-1.8c-1.6-1.2-2.4-3.2-2.4-6.2v-32.3h6.3v31.9c0,1.1,0.2,1.8,0.7,2.3
		c0.5,0.5,1.3,0.8,2.5,0.8c0.5,0,0.9,0,1.4-0.1c0.5-0.1,0.9-0.2,1.3-0.3l0.9,4.6c-0.9,0.4-1.8,0.6-2.7,0.8
		C1018.5,215.7,1017.7,215.8,1017.1,215.8z"/>
	<path d="M1042.9,215.8c-3.5,0-6.4-0.8-8.6-2.5c-2.2-1.7-3.9-4-4.9-7.2c-1-3.1-1.5-6.8-1.5-11.2c0-4.8,0.5-8.6,1.6-11.6
		c1.1-3,2.5-5.1,4.4-6.5c1.8-1.4,3.8-2.1,6-2.1c2,0,3.6,0.5,4.6,1.4c1.1,0.9,1.9,2.1,2.3,3.4h0.3c0.5-1.4,1.4-2.5,2.7-3.5
		c1.3-0.9,2.9-1.4,5-1.4c3.1,0,5.4,1.1,6.9,3.2s2.3,5.1,2.3,8.9v28.1h-6.3v-27.6c0-2.3-0.3-4-1-5.4c-0.6-1.3-1.7-2-3.2-2
		c-1.4,0-2.4,0.6-3.2,1.7c-0.7,1.1-1.2,2.4-1.4,4h-4.2c-0.2-1.7-0.6-3-1.3-4.1c-0.6-1-1.6-1.5-2.8-1.5c-1.8,0-3.3,1.2-4.6,3.6
		s-2,6.2-2,11.5c0,3.4,0.3,6.3,1,8.6c0.7,2.3,1.7,4,3.1,5.2c1.4,1.2,3.3,1.7,5.5,1.7c0.7,0,1.3,0,1.9-0.1c0.6-0.1,1.2-0.2,1.8-0.4
		l0.8,4.8c-0.8,0.3-1.6,0.5-2.6,0.6C1044.9,215.7,1043.9,215.8,1042.9,215.8z"/>
	<path d="M1042.5,170c-1.7,0-3.3-0.3-4.8-0.9c-1.5-0.6-2.8-1.4-3.7-2.5c-1-1.1-1.4-2.5-1.4-4.1c0-2,0.7-3.7,2.2-5.1
		c1.5-1.4,3.4-2.4,5.8-3.1c2.4-0.7,4.9-1,7.6-1c2.8,0,5.4,0.4,7.8,1.1c2.4,0.7,4.3,1.8,5.7,3.1c1.4,1.3,2.2,2.9,2.2,4.8
		c0,0.8-0.2,1.4-0.5,2c-0.3,0.6-0.9,1.1-1.6,1.6v0.1c0.4-0.1,1-0.2,1.7-0.3c0.7,0,1.3-0.1,1.7-0.1h2.4v4.4h-13.8l-1-3.7
		c0.1,0,0.4-0.1,0.9-0.2c0.5-0.1,1.1-0.3,1.7-0.6c0.6-0.3,1.2-0.6,1.7-1.2c0.5-0.5,0.7-1.2,0.7-2.1c0-1.4-0.8-2.5-2.4-3.3
		c-1.6-0.8-4-1.3-7.2-1.3s-5.6,0.4-7.2,1.3c-1.7,0.8-2.5,2-2.5,3.3c0,0.9,0.2,1.5,0.7,2.1c0.5,0.5,1,0.9,1.7,1.2
		c0.6,0.3,1.2,0.5,1.8,0.6c0.5,0.1,0.8,0.2,0.9,0.2L1042.5,170z"/>
	<path d="M1102.5,215.8c-2.2,0-4.1-0.6-5.7-1.8c-1.6-1.2-2.4-3.2-2.4-6.2v-32.3h6.3v31.9c0,1.1,0.2,1.8,0.7,2.3
		c0.5,0.5,1.3,0.8,2.5,0.8c0.5,0,0.9,0,1.4-0.1c0.5-0.1,0.9-0.2,1.3-0.3l0.9,4.6c-0.9,0.4-1.8,0.6-2.7,0.8
		C1104,215.7,1103.2,215.8,1102.5,215.8z M1119.4,215.8c-2.2,0-4.1-0.6-5.7-1.8c-1.6-1.2-2.4-3.2-2.4-6.2v-32.3h6.3v31.9
		c0,1.1,0.2,1.8,0.7,2.3s1.3,0.8,2.5,0.8c0.5,0,0.9,0,1.4-0.1c0.5-0.1,0.9-0.2,1.3-0.3l0.9,4.6c-0.9,0.4-1.8,0.6-2.7,0.8
		C1120.8,215.7,1120,215.8,1119.4,215.8z"/>
	<path d="M1138.9,215.8c-3.2,0-5.5-0.9-7-2.8c-1.5-1.9-2.2-4.5-2.2-7.7c0-2.3,0.4-4.4,1.2-6.2c0.8-1.8,2-3.3,3.6-4.3
		c1.6-1,3.7-1.5,6.3-1.5c2.8,0,5,0.6,6.5,1.9s2.6,2.9,3.3,5l2.8,8.9c0.3,0.9,0.7,1.5,1.2,1.9c0.5,0.4,1.1,0.5,1.7,0.5
		c0.8,0,1.4-0.2,1.8-0.7c0.4-0.5,0.6-1.2,0.6-2.2v-19.1c0-2.1-0.5-3.9-1.5-5.2c-1-1.4-2.4-2.4-4.3-3.1c-1.8-0.7-4-1-6.6-1
		c-2.2,0-4.7,0.3-7.4,0.8c-2.7,0.5-5.1,1.3-7,2.3v-5.4c0.9-0.5,2.2-0.9,3.8-1.4c1.6-0.5,3.4-0.8,5.4-1.1c2-0.3,4-0.4,6-0.4
		c3.4,0,6.5,0.5,9.1,1.5c2.7,1,4.8,2.6,6.4,4.6c1.6,2.1,2.3,4.8,2.3,8v18.3c0,2.9-0.8,5.1-2.4,6.4c-1.6,1.3-3.8,2-6.4,2
		c-2.4,0-4.2-0.5-5.4-1.5c-1.2-1-2.2-2.5-2.9-4.5l-2.7-8.3c-0.3-1.1-0.9-1.9-1.7-2.5s-1.8-0.8-3-0.8c-1.6,0-2.8,0.5-3.8,1.6
		c-0.9,1.1-1.4,2.8-1.4,5.2c0,2.1,0.4,3.6,1.1,4.6c0.7,1,1.9,1.5,3.5,1.5c0.4,0,0.9,0,1.3-0.1c0.4-0.1,0.8-0.2,1.1-0.3l0.9,4.3
		c-0.5,0.2-1.1,0.4-1.8,0.5C1140.7,215.7,1139.8,215.8,1138.9,215.8z"/>
	<path d="M1181.6,189.3c-3,0-5.1-0.6-6.3-1.9c-1.2-1.3-1.9-2.7-1.9-4.3c0-0.5,0-1,0.1-1.5c0.1-0.5,0.2-1,0.4-1.4
		c0.2-0.5,0.4-0.9,0.6-1.2h5.5c-0.2,0.3-0.3,0.8-0.5,1.3c-0.1,0.5-0.2,1-0.2,1.5c0,0.6,0.2,1.2,0.5,1.7c0.3,0.5,0.9,0.7,1.8,0.7
		h11.7v5.1H1181.6z M1181.6,211.9c-3,0-5.1-0.6-6.3-1.9c-1.2-1.3-1.9-2.7-1.9-4.3c0-0.5,0-1,0.1-1.5c0.1-0.5,0.2-1,0.4-1.5
		c0.2-0.5,0.4-0.9,0.6-1.2h5.5c-0.2,0.4-0.3,0.8-0.5,1.3c-0.1,0.5-0.2,1-0.2,1.5c0,0.7,0.2,1.2,0.5,1.7c0.3,0.5,0.9,0.7,1.8,0.7
		h11.7v5.2H1181.6z"/>
	<path d="M1230.2,215.8c-2.2,0-4.1-0.6-5.7-1.8c-1.6-1.2-2.4-3.2-2.4-6.2v-32.3h6.3v31.9c0,1.1,0.2,1.8,0.7,2.3
		c0.5,0.5,1.3,0.8,2.5,0.8c0.5,0,0.9,0,1.4-0.1c0.5-0.1,0.9-0.2,1.3-0.3l0.9,4.6c-0.9,0.4-1.8,0.6-2.7,0.8
		C1231.6,215.7,1230.9,215.8,1230.2,215.8z"/>
	<path d="M1256,215.8c-3.5,0-6.4-0.8-8.6-2.5c-2.2-1.7-3.9-4-4.9-7.2c-1-3.1-1.5-6.8-1.5-11.2c0-4.8,0.5-8.6,1.6-11.6
		c1.1-3,2.5-5.1,4.4-6.5c1.8-1.4,3.8-2.1,6-2.1c2,0,3.6,0.5,4.6,1.4c1.1,0.9,1.9,2.1,2.3,3.4h0.3c0.5-1.4,1.4-2.5,2.7-3.5
		c1.3-0.9,2.9-1.4,5-1.4c3.1,0,5.4,1.1,6.9,3.2s2.3,5.1,2.3,8.9v28.1h-6.3v-27.6c0-2.3-0.3-4-1-5.4c-0.6-1.3-1.7-2-3.2-2
		c-1.4,0-2.4,0.6-3.2,1.7c-0.7,1.1-1.2,2.4-1.4,4h-4.2c-0.2-1.7-0.6-3-1.3-4.1c-0.6-1-1.6-1.5-2.8-1.5c-1.8,0-3.3,1.2-4.6,3.6
		s-2,6.2-2,11.5c0,3.4,0.3,6.3,1,8.6c0.7,2.3,1.7,4,3.1,5.2c1.4,1.2,3.3,1.7,5.5,1.7c0.7,0,1.3,0,1.9-0.1c0.6-0.1,1.2-0.2,1.8-0.4
		l0.8,4.8c-0.8,0.3-1.6,0.5-2.6,0.6C1258,215.7,1257,215.8,1256,215.8z"/>
	<path d="M1266,169.2c-2.6,0-4.5-0.5-5.7-1.4c-1.2-1-1.8-2.4-1.8-4.5c0-0.9,0.1-1.8,0.3-2.6c0.2-0.8,0.5-1.5,0.8-2h5.5
		c-0.2,0.5-0.4,0.9-0.5,1.4c-0.1,0.5-0.2,0.9-0.2,1.3c0,0.8,0.3,1.4,0.8,1.9c0.5,0.5,1.4,0.8,2.5,0.8h18.9v5H1266z"/>
	<path d="M1289.8,215.5c-0.8,0-1.6-0.1-2.5-0.3c-0.9-0.2-1.8-0.4-2.7-0.8l0.9-4.5c0.4,0.1,0.9,0.3,1.3,0.3s0.8,0.1,1.2,0.1
		c0.8,0,1.5-0.2,2.1-0.7c0.6-0.5,0.8-1.2,0.8-2.3v-18.7c0-2.6-0.4-4.8-1.2-6.4c-0.8-1.6-1.7-2.9-2.7-3.9l4.6-3.5
		c0.7,0.6,1.4,1.4,2.1,2.5c0.7,1.1,1.3,2.2,1.7,3.3h0.2c1.1-1.5,2.3-2.7,3.6-3.5c1.3-0.8,2.7-1.4,4.2-1.8c1.5-0.4,3-0.5,4.5-0.5
		c2.9,0,5.4,0.6,7.4,1.7c2,1.1,3.6,2.7,4.6,4.9c1.1,2.2,1.6,4.9,1.6,8.2v25.4h-6.3v-25c0-2.1-0.3-3.9-0.9-5.4
		c-0.6-1.5-1.5-2.6-2.7-3.4c-1.2-0.8-2.9-1.2-4.9-1.2c-1.1,0-2.2,0.1-3.3,0.4c-1.1,0.3-2.1,0.8-3.1,1.4c-0.9,0.7-1.7,1.6-2.2,2.8
		c-0.6,1.2-0.8,2.7-0.8,4.5v17.8c0,2.6-0.6,4.7-1.9,6.2C1294,214.8,1292.1,215.5,1289.8,215.5z"/>
	<path d="M1341.1,215.8c-2.2,0-4.1-0.6-5.7-1.8c-1.6-1.2-2.4-3.2-2.4-6.2v-31.1c0-1.4-0.3-2.6-0.8-3.5c-0.6-0.9-1.2-1.8-2-2.5
		c-0.8-0.7-1.6-1.5-2.4-2.2c-0.8-0.7-1.5-1.6-2-2.6c-0.6-1-0.8-2.2-0.8-3.6c0-2.3,0.8-4.1,2.4-5.6c1.6-1.5,4.1-2.2,7.5-2.2h11.2v4.9
		H1335c-1.2,0-2,0.2-2.6,0.7c-0.6,0.5-1,1-1.2,1.5c-0.2,0.6-0.3,1-0.3,1.3c0,0.8,0.3,1.5,0.8,2.1s1.2,1.3,2.1,2.1
		c0.8,0.7,1.7,1.5,2.5,2.4c0.8,0.9,1.5,2,2.1,3.2c0.6,1.2,0.8,2.7,0.8,4.5v30.2c0,1.1,0.2,1.8,0.7,2.3c0.5,0.5,1.3,0.8,2.5,0.8
		c0.5,0,0.9,0,1.4-0.1c0.5-0.1,0.9-0.2,1.3-0.3l0.9,4.6c-0.9,0.4-1.8,0.6-2.7,0.8C1342.6,215.7,1341.8,215.8,1341.1,215.8z"/>
	<path d="M1355.9,215.8l-4.6-3.5c1-1,1.9-2.3,2.7-3.9c0.8-1.6,1.2-3.8,1.2-6.4v-18.9c0-1.1-0.2-1.9-0.7-2.4
		c-0.5-0.5-1.2-0.7-2.1-0.7c-0.4,0-0.9,0-1.3,0.1c-0.4,0.1-0.8,0.2-1.2,0.3l-0.9-4.5c0.9-0.3,1.8-0.6,2.7-0.8c1-0.2,1.9-0.3,2.7-0.3
		c2.4,0,4.2,0.7,5.4,2.2c1.2,1.4,1.8,3.5,1.8,6.2v18.1c0,1.9,0.4,3.6,1.1,4.9c0.7,1.4,1.8,2.4,3.1,3.2s3,1.1,4.8,1.1
		c2.9,0,5.1-0.9,6.6-2.6c1.5-1.8,2.3-4.2,2.3-7.3v-25h6.3v25.1c0,3.2-0.6,5.9-1.7,8.1c-1.1,2.3-2.7,4-4.8,5.2
		c-2.1,1.2-4.7,1.8-7.6,1.8c-2.5,0-4.7-0.5-6.7-1.4c-1.9-0.9-3.7-2.4-5.1-4.5h-0.2c-0.4,1.1-1,2.2-1.7,3.3
		C1357.3,214.5,1356.6,215.3,1355.9,215.8z"/>
	<path d="M289.1,309.8c-2.2,0-4.1-0.6-5.7-1.8c-1.6-1.2-2.4-3.2-2.4-6.2v-31.1c0-1.4-0.3-2.6-0.8-3.5c-0.6-0.9-1.2-1.8-2-2.5
		s-1.6-1.5-2.4-2.2c-0.8-0.7-1.5-1.6-2-2.6c-0.6-1-0.8-2.2-0.8-3.6c0-2.3,0.8-4.1,2.4-5.6c1.6-1.5,4.1-2.2,7.5-2.2h11.2v4.9H283
		c-1.2,0-2,0.2-2.6,0.7c-0.6,0.5-1,1-1.2,1.5c-0.2,0.6-0.3,1-0.3,1.3c0,0.8,0.3,1.5,0.8,2.1c0.6,0.6,1.2,1.3,2.1,2.1
		c0.8,0.7,1.7,1.5,2.5,2.4c0.8,0.9,1.5,2,2.1,3.2c0.6,1.2,0.8,2.7,0.8,4.5v30.2c0,1.1,0.2,1.8,0.7,2.3c0.5,0.5,1.3,0.8,2.5,0.8
		c0.5,0,0.9,0,1.4-0.1c0.5-0.1,0.9-0.2,1.3-0.3l0.9,4.6c-0.9,0.4-1.8,0.6-2.7,0.8C290.6,309.7,289.8,309.8,289.1,309.8z"/>
	<path d="M308.6,309.8c-3.2,0-5.5-0.9-7-2.8c-1.5-1.9-2.2-4.5-2.2-7.7c0-2.3,0.4-4.4,1.2-6.2c0.8-1.8,2-3.3,3.6-4.3
		c1.6-1,3.7-1.5,6.3-1.5c2.8,0,5,0.6,6.5,1.9c1.5,1.2,2.6,2.9,3.3,5l2.8,8.9c0.3,0.9,0.7,1.5,1.2,1.9c0.5,0.4,1.1,0.5,1.7,0.5
		c0.8,0,1.4-0.2,1.8-0.7c0.4-0.5,0.6-1.2,0.6-2.2v-19.1c0-2.1-0.5-3.9-1.5-5.2c-1-1.4-2.4-2.4-4.3-3.1c-1.8-0.7-4-1-6.6-1
		c-2.2,0-4.7,0.3-7.4,0.8c-2.7,0.5-5.1,1.3-7,2.3v-5.4c0.9-0.5,2.2-0.9,3.8-1.4c1.6-0.5,3.4-0.8,5.4-1.1c2-0.3,4-0.4,6-0.4
		c3.4,0,6.5,0.5,9.1,1.5c2.7,1,4.8,2.6,6.4,4.6c1.6,2.1,2.3,4.8,2.3,8v18.3c0,2.9-0.8,5.1-2.4,6.4c-1.6,1.3-3.8,2-6.4,2
		c-2.4,0-4.2-0.5-5.4-1.5c-1.2-1-2.2-2.5-2.9-4.5l-2.7-8.3c-0.3-1.1-0.9-1.9-1.7-2.5s-1.8-0.8-3-0.8c-1.6,0-2.8,0.5-3.8,1.6
		s-1.4,2.8-1.4,5.2c0,2.1,0.4,3.6,1.1,4.6c0.7,1,1.9,1.5,3.5,1.5c0.4,0,0.9,0,1.3-0.1c0.4-0.1,0.8-0.2,1.1-0.3l0.9,4.3
		c-0.5,0.2-1.1,0.4-1.8,0.5C310.4,309.7,309.5,309.8,308.6,309.8z"/>
	<path d="M373.4,321.6v-14.1c0-1-0.2-1.6-0.6-2.1c-0.4-0.4-1-0.6-1.8-0.6c-0.9,0-1.9,0.3-3,0.8c-1.1,0.5-2.3,1.1-3.6,1.7
		c-1.3,0.6-2.7,1.2-4.1,1.7c-1.5,0.5-3.1,0.8-4.8,0.8c-1.7,0-3.3-0.3-4.8-0.9c-1.5-0.6-2.7-1.5-3.7-2.8s-1.4-2.9-1.4-4.9
		c0-2,0.5-3.6,1.4-5c1-1.4,2.2-2.5,3.8-3.4c1.6-0.9,3.3-1.7,5.2-2.3c1.9-0.6,3.8-1.3,5.7-1.8c2.3-0.7,4.3-1.3,6-1.9
		c1.8-0.6,3.2-1.4,4.2-2.3c1-0.9,1.5-2.1,1.5-3.7c0-1.5-0.5-2.8-1.5-3.8c-1-1-2.3-1.7-3.9-2.2c-1.6-0.5-3.4-0.7-5.4-0.7
		c-2,0-3.8,0.2-5.4,0.7c-1.6,0.5-2.9,1.2-3.9,2.2c-1,1-1.5,2.2-1.5,3.8c0,0.8,0.1,1.4,0.4,1.9c0.2,0.5,0.5,0.9,0.9,1.4l-5,2.5
		c-0.8-0.7-1.3-1.5-1.7-2.6c-0.4-1.1-0.5-2.1-0.5-3.2c0-2,0.6-3.9,1.7-5.8c1.2-1.8,3-3.3,5.4-4.4c2.5-1.1,5.7-1.7,9.6-1.7
		c3.9,0,7.1,0.6,9.6,1.7c2.5,1.1,4.3,2.6,5.5,4.4c1.2,1.8,1.8,3.8,1.8,5.9c0,2-0.5,3.7-1.4,5.1c-1,1.4-2.2,2.5-3.8,3.5
		s-3.3,1.8-5.3,2.4c-1.9,0.7-3.8,1.3-5.8,1.9c-1.9,0.6-3.7,1.2-5.5,1.8c-1.8,0.6-3.3,1.3-4.4,2.2c-1.2,0.9-1.7,2-1.7,3.4
		c0,1,0.3,1.9,1,2.6c0.7,0.7,1.7,1.1,3,1.1c1.2,0,2.4-0.3,3.7-0.8c1.3-0.5,2.7-1.1,4.1-1.8c1.4-0.7,2.9-1.3,4.4-1.8
		c1.5-0.5,3-0.8,4.5-0.8c1.2,0,2.4,0.2,3.6,0.7c1.1,0.5,2,1.3,2.7,2.4c0.7,1.1,1,2.7,1,4.6v14.3H373.4z"/>
	<path d="M357.3,264c-1.7,0-3.3-0.3-4.8-0.9c-1.5-0.6-2.8-1.4-3.7-2.5c-1-1.1-1.4-2.5-1.4-4.1c0-2,0.7-3.7,2.2-5.1
		c1.5-1.4,3.4-2.4,5.8-3.1c2.4-0.7,4.9-1,7.6-1c2.8,0,5.4,0.4,7.8,1.1s4.3,1.8,5.7,3.1c1.4,1.3,2.2,2.9,2.2,4.8c0,0.8-0.2,1.4-0.5,2
		c-0.3,0.6-0.9,1.1-1.6,1.6v0.1c0.4-0.1,1-0.2,1.7-0.3c0.7,0,1.3-0.1,1.7-0.1h2.4v4.4h-13.8l-1-3.7c0.1,0,0.4-0.1,0.9-0.2
		c0.5-0.1,1.1-0.3,1.7-0.6c0.6-0.3,1.2-0.6,1.7-1.2c0.5-0.5,0.7-1.2,0.7-2.1c0-1.4-0.8-2.5-2.4-3.3c-1.6-0.8-4-1.3-7.2-1.3
		s-5.6,0.4-7.2,1.3c-1.7,0.8-2.5,2-2.5,3.3c0,0.9,0.2,1.5,0.7,2.1c0.5,0.5,1,0.9,1.7,1.2s1.2,0.5,1.8,0.6c0.5,0.1,0.8,0.2,0.9,0.2
		L357.3,264z"/>
	<path d="M399.7,309.8c-1.7,0-3.3-0.3-4.8-0.9c-1.5-0.6-2.7-1.5-3.7-2.8s-1.4-2.9-1.4-4.9c0-2,0.5-3.6,1.4-5c1-1.4,2.2-2.5,3.8-3.4
		c1.6-0.9,3.3-1.7,5.2-2.3c1.9-0.6,3.8-1.3,5.7-1.8c2.3-0.7,4.3-1.3,6-1.9c1.8-0.6,3.2-1.4,4.2-2.3c1-0.9,1.5-2.1,1.5-3.7
		c0-1.5-0.5-2.8-1.5-3.8c-1-1-2.3-1.7-3.9-2.2c-1.6-0.5-3.4-0.7-5.4-0.7c-2,0-3.8,0.2-5.4,0.7c-1.6,0.5-2.9,1.2-3.9,2.2
		c-1,1-1.5,2.2-1.5,3.8c0,0.8,0.1,1.4,0.4,1.9c0.2,0.5,0.5,0.9,0.9,1.4l-5,2.5c-0.8-0.7-1.3-1.5-1.7-2.6c-0.4-1.1-0.5-2.1-0.5-3.2
		c0-2,0.6-3.9,1.7-5.8c1.2-1.8,3-3.3,5.4-4.4c2.5-1.1,5.7-1.7,9.6-1.7c3.9,0,7.1,0.6,9.6,1.7c2.5,1.1,4.3,2.6,5.5,4.4
		c1.2,1.8,1.8,3.8,1.8,5.9c0,2-0.5,3.7-1.4,5.1c-1,1.4-2.2,2.5-3.8,3.5s-3.3,1.8-5.3,2.4c-1.9,0.7-3.8,1.3-5.8,1.9
		c-1.9,0.6-3.7,1.2-5.5,1.8c-1.8,0.6-3.3,1.3-4.4,2.2c-1.2,0.9-1.7,2-1.7,3.4c0,1,0.3,1.9,1,2.6c0.7,0.7,1.7,1.1,3,1.1
		c1.2,0,2.4-0.3,3.7-0.8c1.3-0.5,2.7-1.1,4.1-1.8c1.4-0.7,2.9-1.3,4.4-1.8c1.5-0.5,3-0.8,4.5-0.8c1.2,0,2.4,0.2,3.6,0.7
		c1.1,0.5,2,1.3,2.7,2.4c0.7,1.1,1,2.7,1,4.6v1.7h-6.3v-1.6c0-1.8-0.8-2.7-2.4-2.7c-0.9,0-1.9,0.3-3,0.8c-1.1,0.5-2.3,1.1-3.6,1.7
		c-1.3,0.6-2.7,1.2-4.1,1.7C403,309.6,401.4,309.8,399.7,309.8z"/>
	<path d="M407,264.4c-2.3,0-4.2-0.7-5.5-2c-1.4-1.3-2.1-3.1-2.1-5.2c0-2.2,0.7-3.9,2.1-5.2c1.4-1.3,3.2-2,5.5-2c2.4,0,4.2,0.7,5.7,2
		c1.4,1.3,2.1,3.1,2.1,5.2c0,2.2-0.7,3.9-2.1,5.2C411.2,263.7,409.4,264.4,407,264.4z M407,260.5c1.1,0,1.9-0.3,2.5-0.9
		c0.6-0.6,0.9-1.4,0.9-2.4c0-1-0.3-1.7-0.9-2.3c-0.6-0.6-1.4-0.9-2.4-0.9c-1.1,0-1.9,0.3-2.5,0.9c-0.6,0.6-0.9,1.4-0.9,2.4
		c0,1,0.3,1.8,0.9,2.4C405.2,260.2,406,260.5,407,260.5z"/>
	<path d="M399.3,245.2v-3c1.3-0.2,2.4-0.5,3.3-0.9c0.9-0.4,1.6-1,2.1-1.7c0.5-0.7,0.7-1.5,0.7-2.3c0-0.9-0.3-1.5-0.8-2
		c-0.5-0.5-1.2-0.7-2.1-0.7c-0.5,0-0.9,0.1-1.4,0.2c-0.4,0.1-0.8,0.3-1.2,0.5l-1.3-3.3c0.7-0.5,1.5-0.8,2.5-1.1c1-0.2,2-0.4,3.1-0.4
		c2.1,0,3.7,0.5,4.9,1.4c1.2,1,1.7,2.3,1.7,4c0,0.9-0.2,1.8-0.5,2.6c-0.3,0.8-0.8,1.4-1.4,1.8h13.8v4.8H399.3z"/>
	<path d="M436,309.9c-1,0-1.9-0.1-2.8-0.3c-0.9-0.2-1.8-0.4-2.6-0.7l0.9-4.5c0.4,0.1,0.9,0.3,1.3,0.3c0.4,0.1,0.8,0.1,1.2,0.1
		c0.8,0,1.5-0.2,2.1-0.7c0.6-0.5,0.8-1.2,0.8-2.3v-32.2h6.3v25.7c0,2.4,0.5,4.3,1.4,5.7c0.9,1.3,2.1,2.2,3.4,2.8
		c1.4,0.5,2.8,0.8,4.2,0.8c3.1,0,5.3-0.9,6.8-2.6c1.4-1.8,2.2-4.2,2.2-7.3v-25h6.3v25.4c0,3.3-0.6,6-1.7,8.2
		c-1.1,2.2-2.7,3.8-4.8,4.9c-2.1,1.1-4.7,1.7-7.7,1.7c-2.2,0-4.1-0.3-5.9-1c-1.8-0.6-3.4-1.7-4.9-3.3h-2.7l2.5-2.3v1.4
		c0,1.7-0.6,3-1.7,3.9C439.6,309.4,438,309.9,436,309.9z"/>
	<path d="M458,329.3c-3.1,0-5.4-0.6-6.9-1.8c-1.6-1.2-2.3-3-2.3-5.2v-1.2c0-0.6-0.1-1-0.3-1.2c-0.2-0.2-0.5-0.4-1-0.4
		c-0.2,0-0.4,0-0.5,0c-0.2,0-0.3,0.1-0.5,0.1l-0.4-4.3c0.6-0.1,1.2-0.3,1.9-0.3c0.6-0.1,1.2-0.1,1.7-0.1c1.7,0,2.9,0.4,3.6,1.2
		c0.7,0.8,1.1,1.8,1.1,3.2v2.4c0,0.9,0.3,1.7,0.8,2.3c0.5,0.6,1.5,0.9,3,0.9c1.4,0,2.4-0.3,3-0.9c0.6-0.6,0.8-1.4,0.8-2.3v-6.6h5.6
		v6.8c0,2.4-0.8,4.2-2.3,5.5C463.7,328.7,461.3,329.3,458,329.3z"/>
	<path d="M481.7,309.8l-4.6-3.5c1-1,1.9-2.3,2.7-3.9c0.8-1.6,1.2-3.8,1.2-6.4v-18.9c0-1.1-0.2-1.9-0.7-2.4c-0.5-0.5-1.2-0.7-2.1-0.7
		c-0.4,0-0.9,0-1.3,0.1c-0.4,0.1-0.8,0.2-1.2,0.3l-0.9-4.5c0.9-0.3,1.8-0.6,2.7-0.8c1-0.2,1.9-0.3,2.7-0.3c2.4,0,4.2,0.7,5.4,2.2
		c1.2,1.4,1.8,3.5,1.8,6.2v18.1c0,1.9,0.4,3.6,1.1,4.9c0.7,1.4,1.8,2.4,3.1,3.2s3,1.1,4.8,1.1c2.9,0,5.1-0.9,6.6-2.6
		c1.5-1.8,2.3-4.2,2.3-7.3v-25h6.3v25.1c0,3.2-0.6,5.9-1.7,8.1c-1.1,2.3-2.7,4-4.8,5.2c-2.1,1.2-4.7,1.8-7.6,1.8
		c-2.5,0-4.7-0.5-6.7-1.4c-1.9-0.9-3.7-2.4-5.1-4.5h-0.2c-0.4,1.1-1,2.2-1.7,3.3C483.1,308.5,482.4,309.3,481.7,309.8z"/>
	<path d="M532.4,309.8c-1.7,0-3.3-0.3-4.8-0.9c-1.5-0.6-2.7-1.5-3.7-2.8c-0.9-1.3-1.4-2.9-1.4-4.9c0-2,0.5-3.6,1.4-5
		s2.2-2.5,3.8-3.4c1.6-0.9,3.3-1.7,5.2-2.3c1.9-0.6,3.8-1.3,5.7-1.8c2.3-0.7,4.3-1.3,6-1.9c1.8-0.6,3.2-1.4,4.2-2.3
		c1-0.9,1.5-2.1,1.5-3.7c0-1.5-0.5-2.8-1.5-3.8c-1-1-2.3-1.7-3.9-2.2s-3.4-0.7-5.4-0.7c-2,0-3.8,0.2-5.4,0.7
		c-1.6,0.5-2.9,1.2-3.9,2.2c-1,1-1.5,2.2-1.5,3.8c0,0.8,0.1,1.4,0.4,1.9c0.2,0.5,0.5,0.9,0.9,1.4l-5,2.5c-0.8-0.7-1.3-1.5-1.7-2.6
		c-0.4-1.1-0.5-2.1-0.5-3.2c0-2,0.6-3.9,1.7-5.8c1.2-1.8,3-3.3,5.4-4.4c2.5-1.1,5.7-1.7,9.6-1.7c3.9,0,7.1,0.6,9.6,1.7
		c2.5,1.1,4.3,2.6,5.5,4.4c1.2,1.8,1.8,3.8,1.8,5.9c0,2-0.5,3.7-1.4,5.1c-1,1.4-2.2,2.5-3.8,3.5s-3.3,1.8-5.3,2.4
		c-1.9,0.7-3.8,1.3-5.8,1.9c-1.9,0.6-3.7,1.2-5.5,1.8c-1.8,0.6-3.3,1.3-4.4,2.2s-1.7,2-1.7,3.4c0,1,0.3,1.9,1,2.6
		c0.7,0.7,1.7,1.1,3,1.1c1.2,0,2.4-0.3,3.7-0.8c1.3-0.5,2.7-1.1,4.1-1.8c1.4-0.7,2.9-1.3,4.4-1.8c1.5-0.5,3-0.8,4.5-0.8
		c1.2,0,2.4,0.2,3.6,0.7c1.1,0.5,2,1.3,2.7,2.4c0.7,1.1,1,2.7,1,4.6v1.7h-6.3v-1.6c0-1.8-0.8-2.7-2.4-2.7c-0.9,0-1.9,0.3-3,0.8
		c-1.1,0.5-2.3,1.1-3.6,1.7c-1.3,0.6-2.7,1.2-4.1,1.7C535.7,309.6,534.1,309.8,532.4,309.8z"/>
	<path d="M549.6,263.2v-12.5h6.3v12.5H549.6z"/>
	<path d="M573,309.1v-30.6c0-1.7-0.4-2.9-1.1-3.5c-0.7-0.7-1.8-1-3.4-1c-1.2,0-2.2,0.1-3.1,0.4c-0.9,0.3-1.7,0.5-2.4,0.8l-1-4.7
		c1-0.4,2.2-0.8,3.6-1.1c1.4-0.3,2.9-0.5,4.3-0.5c2.7,0,5,0.7,6.8,2.1c1.8,1.4,2.7,3.6,2.7,6.6v31.5H573z"/>
	<path d="M604.4,309.8c-3.2,0-6-0.5-8.5-1.4c-2.5-0.9-4.4-2.3-5.8-4.1c-1.4-1.8-2.1-4-2.1-6.5c0-0.9,0.1-1.7,0.3-2.3
		c0.2-0.6,0.4-1.2,0.6-1.7l5.9,1.7c-0.1,0.3-0.3,0.7-0.4,1.1c-0.1,0.4-0.1,0.8-0.1,1.4c0,2,0.8,3.6,2.5,4.9c1.7,1.2,4.1,1.8,7.2,1.8
		c3.7,0,6.7-1.1,8.8-3.3c2.1-2.2,3.2-6.1,3.2-11.7c0-4.1-0.6-7.2-1.7-9.4c-1.1-2.2-2.6-3.7-4.6-4.6c-2-0.9-4.3-1.3-6.9-1.3
		c-2.5,0-4.8,0.3-7,0.9c-2.2,0.6-4.3,1.4-6.3,2.4v-5.6c1.6-0.8,3.6-1.5,5.9-2.1s5-0.9,7.9-0.9c2.7,0,5.2,0.3,7.5,1
		c2.3,0.6,4.3,1.7,6,3.2c1.7,1.5,3.1,3.6,4,6.2c1,2.6,1.4,6,1.4,10c0,5.2-0.8,9.3-2.4,12.2s-3.7,5.1-6.4,6.3
		C610.8,309.2,607.8,309.8,604.4,309.8z"/>
	<path d="M641.2,309.8c-3.4,0-5.8-1-7.3-3c-1.5-2-2.2-4.4-2.2-7.3c0-1.9,0.3-3.6,1-5.3c0.7-1.6,1.8-3,3.4-4c1.6-1,3.7-1.5,6.5-1.5
		c3,0,5.3,0.6,7,1.9c1.7,1.2,2.9,2.9,3.5,5l2.3,7.4c0.3,0.9,0.7,1.5,1.2,1.9s1.1,0.5,1.8,0.5c0.8,0,1.4-0.2,1.8-0.7
		c0.4-0.5,0.6-1.2,0.6-2.2v-18.5c0-2.5-0.7-4.5-2.1-6c-1.4-1.5-3.2-2.7-5.4-3.4c-2.2-0.7-4.6-1.1-7.2-1.1c-2.4,0-4.4,0.3-6.1,0.9
		c-1.7,0.6-2.5,1.5-2.5,2.7c0,0.8,0.4,1.5,1.2,1.9c0.8,0.5,1.8,0.8,3.1,1c1.3,0.2,2.6,0.3,4,0.3c3.7,0,6.8-0.6,9.2-1.8
		c2.4-1.2,4.2-2.7,5.4-4.4c1.2-1.8,1.8-3.6,1.8-5.3v-0.5h5.6v0.5c0,2.7-0.9,5.3-2.7,7.8c-1.8,2.5-4.3,4.5-7.6,6
		c-3.3,1.6-7.1,2.3-11.4,2.3c-2.5,0-4.9-0.3-7-0.9c-2.1-0.6-3.8-1.5-5-2.7c-1.2-1.2-1.9-2.7-1.9-4.5c0-2.3,1.2-4.2,3.5-5.8
		c2.4-1.6,6-2.4,11.1-2.4c4.7,0,8.5,0.7,11.5,2.1c3,1.4,5.2,3.2,6.7,5.5c1.4,2.3,2.2,4.8,2.2,7.6v17.3c0,2.9-0.8,5.1-2.4,6.4
		c-1.6,1.3-3.8,2-6.4,2c-2.4,0-4.2-0.5-5.5-1.5c-1.3-1-2.3-2.5-2.9-4.5l-2.1-6.8c-0.3-1.2-1-2.2-1.9-2.7c-0.9-0.6-2.1-0.9-3.4-0.9
		c-1.6,0-2.9,0.5-3.8,1.4c-0.9,0.9-1.4,2.5-1.4,4.6c0,1.8,0.4,3.2,1.1,4.2c0.7,1,1.9,1.5,3.6,1.5c0.4,0,0.8,0,1.2-0.1
		c0.4-0.1,0.7-0.2,1.1-0.3l1,4.3c-0.5,0.2-1.1,0.4-1.8,0.5C642.8,309.7,642,309.8,641.2,309.8z"/>
	<path d="M684.2,309.1v-30.6c0-1.7-0.4-2.9-1.1-3.5c-0.7-0.7-1.8-1-3.4-1c-1.2,0-2.2,0.1-3.1,0.4c-0.9,0.3-1.7,0.5-2.4,0.8l-1-4.7
		c1-0.4,2.2-0.8,3.6-1.1c1.4-0.3,2.9-0.5,4.3-0.5c2.7,0,5,0.7,6.8,2.1c1.8,1.4,2.7,3.6,2.7,6.6v31.5H684.2z"/>
	<path d="M704.8,309.8l-4.6-3.5c1-1,1.9-2.3,2.7-3.9c0.8-1.6,1.2-3.8,1.2-6.4v-18.9c0-1.1-0.2-1.9-0.7-2.4c-0.5-0.5-1.2-0.7-2.1-0.7
		c-0.4,0-0.9,0-1.3,0.1c-0.4,0.1-0.8,0.2-1.2,0.3l-0.9-4.5c0.9-0.3,1.8-0.6,2.7-0.8c1-0.2,1.9-0.3,2.7-0.3c2.4,0,4.2,0.7,5.4,2.2
		c1.2,1.4,1.8,3.5,1.8,6.2v18.1c0,1.9,0.4,3.6,1.1,4.9c0.7,1.4,1.8,2.4,3.1,3.2s3,1.1,4.8,1.1c2.9,0,5.1-0.9,6.6-2.6
		c1.5-1.8,2.3-4.2,2.3-7.3v-25h6.3v25.1c0,3.2-0.6,5.9-1.7,8.1c-1.1,2.3-2.7,4-4.8,5.2c-2.1,1.2-4.7,1.8-7.6,1.8
		c-2.5,0-4.7-0.5-6.7-1.4c-1.9-0.9-3.7-2.4-5.1-4.5h-0.2c-0.4,1.1-1,2.2-1.7,3.3C706.2,308.5,705.5,309.3,704.8,309.8z"/>
</g>
</svg>
