<?xml version="1.0" encoding="utf-8"?>
<!-- Generator: Adobe Illustrator 25.0.0, SVG Export Plug-In . SVG Version: 6.00 Build 0)  -->
<svg version="1.1" id="Layer_1" xmlns="http://www.w3.org/2000/svg" xmlns:xlink="http://www.w3.org/1999/xlink" x="0px" y="0px"
	 viewBox="0 0 36.2 50" style="enable-background:new 0 0 36.2 50;" xml:space="preserve">
<g>
	<path d="M32.7,44.8c1.8,0.2,2.7,1.2,2.6,2.9c-0.1,1.2-1.1,2.2-2.3,2.3c-0.1,0-0.2,0-0.3,0c-9.7,0-19.5,0-29.2,0
		c-1.9,0-3.1-1.6-2.5-3.5c0.4-1.1,1.2-1.7,2.5-1.7c0.2-7.7,2.9-14.4,8.8-19.7c-2.6-2.8-5.1-5.5-6.5-9C4.3,12.6,3.6,9,3.5,5.2
		c-0.3,0-0.6,0-0.9,0C1.1,5.2,0,4.1,0,2.6C0,1.1,1.1,0,2.6,0c8.2,0,16.4,0,24.7,0c2,0,4.1,0,6.1,0c1.7,0,2.8,1,2.8,2.6
		c0,1.6-1.1,2.6-2.8,2.6c-0.2,0-0.4,0-0.7,0C32.5,13,29.8,19.6,24,24.9c2.6,2.8,5.1,5.6,6.5,9.1C31.9,37.4,32.6,41,32.7,44.8z
		 M5.2,44.8c8.7,0,17.3,0,26,0c-0.3-1.8-0.4-3.5-0.8-5.2c-0.8-4.1-2.5-7.7-5.3-10.8c-0.9-1-1.7-2-2.6-2.9c-0.6-0.6-0.6-1,0-1.6
		c0.5-0.5,0.9-1,1.4-1.6c1.2-1.4,2.4-2.8,3.4-4.3c2.2-3.4,3.2-7.3,3.6-11.3C31,6.4,31,5.8,31,5.2c-8.7,0-17.2,0-25.9,0
		C5.3,6.6,5.4,8,5.6,9.3c0.7,3.9,2,7.5,4.4,10.6c1.1,1.4,2.3,2.7,3.5,4c0.9,1,0.9,1.1,0,2.1c-0.8,1-1.7,1.9-2.5,2.9
		C7,33.4,5.5,38.9,5.2,44.8z"/>
	<path d="M18.1,6.9c2.8,0,5.5,0,8.3,0c0.9,0,1.2,0.3,1.2,1.2c0,1.6,0.1,3.2-0.3,4.8c-1.2,4.3-5.3,7.3-9.8,7C13,19.5,9.2,16,8.7,11.6
		C8.6,10.3,8.6,9,8.6,7.8c0-0.6,0.4-0.9,1.1-0.9C12.5,6.9,15.3,6.9,18.1,6.9z"/>
	<path d="M18.1,43.1c-2.8,0-5.5,0-8.3,0c-1,0-1.4-0.5-1-1.4c0.5-1.4,0.9-2.7,1.4-4.1c0.8-2.4,2.9-3.9,5.5-3.9c1.7,0,3.4,0,5.1,0
		c2.5,0,4.6,1.5,5.4,3.8c0.5,1.4,1,2.9,1.4,4.3c0.3,0.8-0.1,1.3-1,1.3C23.7,43.1,20.9,43.1,18.1,43.1z"/>
	<path d="M19,23.3c0,0.3,0,0.6,0,0.9c0,0.5-0.4,0.8-0.9,0.8c-0.4,0-0.8-0.3-0.8-0.8c0-0.6,0-1.2,0-1.8c0-0.5,0.4-0.8,0.9-0.8
		c0.4,0,0.8,0.3,0.8,0.8C19,22.7,19,23,19,23.3z"/>
	<path d="M17.2,29.3c0-0.3,0-0.6,0-0.9c0-0.5,0.4-0.8,0.8-0.8c0.4,0,0.8,0.3,0.9,0.8c0,0.6,0,1.2,0,1.8c0,0.5-0.4,0.8-0.8,0.8
		c-0.4,0-0.8-0.3-0.9-0.8C17.2,29.9,17.2,29.6,17.2,29.3z"/>
</g>
</svg>
