<?xml version="1.0" encoding="utf-8"?>
<!-- Generator: Adobe Illustrator 25.0.0, SVG Export Plug-In . SVG Version: 6.00 Build 0)  -->
<svg version="1.1" id="Layer_1" xmlns="http://www.w3.org/2000/svg" xmlns:xlink="http://www.w3.org/1999/xlink" x="0px" y="0px"
	 viewBox="0 0 512 512" style="enable-background:new 0 0 512 512;" xml:space="preserve">
<style type="text/css">
	.st0{fill:#155353;}
	.st1{fill:#FFBEAC;}
	.st2{fill:#D57535;}
	.st3{fill:#FFFFFF;}
	.st4{fill:#563D2F;}
	.st5{fill:#C4C4C4;}
	.st6{fill:#BF7442;}
	.st7{fill:#EED8B5;}
	.st8{fill:#7F8B88;}
	.st9{fill:#F1533D;}
</style>
<g>
	<g>
		<path class="st0" d="M58.8,352.7c0,0-21,5.5-21,58.1h107.1v-58.1H58.8z"/>
		<rect x="93" y="255" class="st1" width="16.1" height="20"/>
		<path class="st2" d="M203.5,114.1c-7.9-33.3-27-58.8-71.5-52.7c-28.1,3.9-37.8,24.1-41.2,38.4c-2.8,12.1-6,24.1-9.8,35.9
			c-9.1,28.2-17.9,74.6,23,75.3h26.8v-96.6L203.5,114.1z"/>
		<polygon class="st3" points="225.4,198.8 221.3,239.7 179.8,239.7 181.3,204.8 		"/>
		<polygon class="st3" points="100.6,216.8 90.3,255 122.4,255 		"/>
		<g>
			<path class="st3" d="M208.7,209.7c14.7,19.2,18.5,65.2,18.5,65.2H104c0,0-22.6-82.5,25.8-84.3
				C184.5,188.6,194.1,190.6,208.7,209.7z"/>
		</g>
		<g>
			<g>
				<path class="st1" d="M159.9,166.2l3.8,24.8c0,0-14.7,20.2-32.7,35.4l-13.1-52.5L159.9,166.2z"/>
			</g>
			<g>
				<path class="st1" d="M182.6,135.1c0,0-1,19.1-6.6,34.5c0,0-21.1,34.3-54.4,27.9c-39.7-7.6-40.7-79-18.5-108.5
					c22.2-29.5,61.9-12.3,70.9,3.1C179.6,101.6,185.3,114.4,182.6,135.1z"/>
			</g>
			<g>
				<g>
					<g>
						<g>
							<g>
								<g>
									<g>
										<g>
											<path class="st4" d="M110.5,139.6c0,3.4-2.1,6.1-4.8,6.1c-2.6,0-4.7-2.7-4.7-6.1c0-3.4,2.1-6.1,4.8-6.1
												C108.4,133.6,110.5,136.3,110.5,139.6z"/>
										</g>
									</g>
								</g>
							</g>
						</g>
					</g>
				</g>
			</g>
			<g>
				<g>
					<g>
						<g>
							<g>
								<g>
									<g>
										<g>
											<path class="st4" d="M151.3,137.2c0,3.4-2.1,6.1-4.8,6.1c-2.6,0-4.7-2.7-4.7-6.1c0-3.4,2.1-6.1,4.8-6.1
												C149.2,131.1,151.3,133.9,151.3,137.2z"/>
										</g>
									</g>
								</g>
							</g>
						</g>
					</g>
				</g>
			</g>
			<g>
				<g>
					<g>
						<g>
							<g>
								<g>
									<g>
										<g>
											<path class="st4" d="M152.7,122.3c-0.2,0-0.4,0-0.7-0.2c-0.2-0.2-5.8-4.4-10.3-0.4c-0.4,0.4-1,0.2-1.3-0.3
												c-0.3-0.5-0.3-1.3,0.2-1.7c5.4-4.8,12.1,0.2,12.4,0.4c0.5,0.4,0.6,1.1,0.4,1.7C153.2,122,153,122.2,152.7,122.3z"/>
										</g>
									</g>
								</g>
							</g>
						</g>
					</g>
				</g>
			</g>
			<g>
				<g>
					<g>
						<g>
							<g>
								<g>
									<g>
										<g>
											<path class="st4" d="M108.7,122.3c-0.2,0-0.4,0-0.5-0.2c-0.2-0.2-4.8-4.5-8.3-0.7c-0.3,0.4-0.8,0.2-1.1-0.4
												c-0.3-0.6-0.3-1.3,0.1-1.6c4.2-4.6,9.8,0.6,10,0.8c0.4,0.4,0.6,1.1,0.4,1.7C109.1,122.1,108.9,122.2,108.7,122.3z"/>
										</g>
									</g>
								</g>
							</g>
						</g>
					</g>
				</g>
			</g>
			<g>
				<path class="st2" d="M130.9,73.1c0,0-3.5,21.2,22.5,32.3c8.5,3.6,8.4,25.8,10.2,55.2c1,16-7.5,40.4-9.5,42.2l49-10.2
					c0,0,3.3-33.6,1.1-71.4C202.1,83.4,168.1,52.6,130.9,73.1z"/>
			</g>
			<g>
				
					<ellipse transform="matrix(0.5164 -0.8564 0.8564 0.5164 -35.5664 227.7639)" class="st1" cx="183.9" cy="145.4" rx="15.1" ry="10.2"/>
			</g>
			<path class="st4" d="M116.2,152.7c0,0,0-0.1,0.1-0.1c1.4-2.8,3.1-4.2,5-4.2c2.9-0.1,4.8,3,5,3.4c0.4,0.7,0.2,1.5-0.5,1.9
				c-0.7,0.4-1.5,0.2-1.9-0.5c-0.4-0.7-1.5-2-2.5-2c-0.8,0-1.7,1-2.6,2.7c-0.3,0.7-1.2,1-1.9,0.6C116.3,154.1,116,153.4,116.2,152.7
				z"/>
			<path class="st3" d="M109.3,164.1c0,0,3,12.4,17.5,10c14.4-2.4,15.7-13.2,15.7-13.2L109.3,164.1z"/>
		</g>
		<g>
			<path class="st5" d="M223.8,188.5c0,0,7.5,38.6-15,38.6s-27.4-22.3-27.4-22.3L223.8,188.5z"/>
			<g>
				<path class="st1" d="M193,93.5c0,0-1.1,9.8,2.8,21.4c3.3,10,18,47.2,27.9,71.8c5,12.4-1.1,26.4-13.5,31.3l0,0
					c-14.7,5.8-30.8-3.9-32.7-19.5l-12.3-99c0,0-6-3.2-7.3-15.5C156.6,71.5,193,93.5,193,93.5z"/>
			</g>
			<g>
				<g>
					<path class="st1" d="M179.4,102.3c3.8-0.2,10.7,0.9,15.6-12.5c4.8-13.4,10.3-24.5,11.2-25.9c0.9-1.4,2.6-17,2.6-18.9
						c0-2-5.7-4-6.4,0c-0.4,2.1-1.1,6.3-1.7,9.8c-0.7,3.8-2.8,7.2-5.9,9.6l0,0l-22.4-5.9l-2.4,5.6c0,0,0.3-9.5-2.3-13.6
						c-2.7-4-7.6-4.4-8.2,0.5c-0.7,5-1.6,21.6-1.6,21.6s-2.1,7.7-0.3,14.5C160.4,98.6,167,102.8,179.4,102.3z"/>
				</g>
				<g>
					<path class="st1" d="M196,66l1.1-5.6c1.2-6.3,2-12.8,2.4-19.2l0.3-4.8c0-1.9-1.5-3.5-3.4-3.4l0,0c-1.8,0-3.3,1.4-3.4,3.2
						l-0.6,11.7l-3.5,15.7L196,66z"/>
				</g>
				<g>
					<path class="st1" d="M188.6,65l1.3-16.4c0-0.3,0-0.7,0-1l-0.2-14.3c-0.1-1.9-1.8-3.3-3.6-3.2l-0.8,0.1
						c-1.9,0.1-3.3,1.9-3.1,3.8l0.5,11.7c0,0.9,0,1.9-0.2,2.8l-2.8,13.1L188.6,65z"/>
				</g>
				<g>
					<path class="st1" d="M169.7,64.5l3.1-10.9c0.2-0.8,0.4-1.6,0.4-2.4l0.8-13.4c-0.1-1.9,1.5-3.6,3.4-3.6l0.7,0
						c1.8,0,3.3,1.4,3.4,3.2L181,50.2c0,0.2,0,0.5-0.1,0.7l-1.2,10.6L169.7,64.5z"/>
				</g>
			</g>
		</g>
	</g>
	<g>
		<g>
			<polygon class="st2" points="191.2,312.1 2.2,312.1 59.5,275 248.5,275 			"/>
			<rect x="2.2" y="312.1" class="st6" width="188.9" height="40.6"/>
			<polygon class="st6" points="191.1,351.5 191.1,312.1 248.5,275 248.5,314 			"/>
		</g>
		<g>
			<g>
				<polygon class="st7" points="156.8,308.1 156.9,311 195.8,285.6 195.8,282.6 				"/>
			</g>
			<g>
				<path class="st7" d="M105.5,311.3c0.5-0.1,15.5-5,27.2-5c13.6,0,24.2,4.8,24.2,4.8l0-2.9c0,0-9.6-4.9-24.2-4.8
					c-14.6,0.1-27.2,5-27.2,5L105.5,311.3z"/>
			</g>
			<g>
				<path class="st7" d="M58.9,307.2c0,0,10.8-0.7,22.5-0.7c13.6,0,24.1,4.8,24.1,4.8l0-2.9c0,0-9.3-4.9-24.1-4.8
					c-14.8,0.1-22.5,0.7-22.5,0.7L58.9,307.2z"/>
			</g>
			<g>
				<path class="st3" d="M156.8,308.1c0,0-10.6-4.8-24.2-4.8c-11.7,0-26.6,4.9-27.2,5l40.2-26.2c0.5-0.1,15.5-5,27.2-5
					c13.6,0,24.2,4.8,24.2,4.8L156.8,308.1z"/>
			</g>
			<g>
				<path class="st3" d="M105.5,308.3c0,0-10.5-4.8-24.1-4.8c-11.7,0-22.5,0.7-22.5,0.7L99,278c0,0,10.8-0.7,22.5-0.7
					c13.6,0,24.1,4.8,24.1,4.8L105.5,308.3z"/>
			</g>
			<g>
				<path class="st8" d="M156.2,302.7c-0.1,0-0.1,0-0.2,0c-4.4-1.4-11.2-3-19-2.9c0,0,0,0-0.1,0c-4.3,0-9.5,0.7-15.5,2
					c-0.3,0.1-0.6-0.1-0.7-0.4c-0.1-0.3,0.1-0.6,0.4-0.7c6.1-1.3,11.5-2,15.8-2c8,0,14.9,1.6,19.4,3c0.3,0.1,0.4,0.4,0.4,0.7
					C156.7,302.6,156.5,302.7,156.2,302.7z"/>
			</g>
			<g>
				<path class="st8" d="M162.2,297.9c-0.1,0-0.1,0-0.2,0c-4.4-1.4-11.2-3-19-2.9c-3.7,0-7.5,0.4-11.8,1.2c-0.3,0.1-0.6-0.1-0.6-0.4
					c-0.1-0.3,0.1-0.6,0.4-0.6c4.3-0.8,8.1-1.2,11.9-1.2c0,0,0.1,0,0.1,0c8,0,14.9,1.6,19.4,3c0.3,0.1,0.4,0.4,0.4,0.7
					C162.6,297.7,162.4,297.9,162.2,297.9z"/>
			</g>
			<g>
				<path class="st8" d="M171.4,292.4c-0.1,0-0.1,0-0.2,0c0,0-3-1-8.5-1.7c-5-0.6-13.3-1-23.9,0.4c-0.3,0-0.6-0.2-0.6-0.5
					c0-0.3,0.2-0.6,0.5-0.6c10.8-1.5,19.1-1,24.2-0.4c5.6,0.7,8.5,1.7,8.6,1.7c0.3,0.1,0.4,0.4,0.3,0.7
					C171.8,292.3,171.6,292.4,171.4,292.4z"/>
			</g>
			<g>
				<path class="st8" d="M180.8,287.6c-0.1,0-0.1,0-0.2,0c-0.3-0.1-0.6-0.2-1-0.3c-4.7-1.5-13.4-4.3-31.9-1.5
					c-0.3,0-0.6-0.2-0.6-0.5c0-0.3,0.2-0.6,0.5-0.6c18.8-2.9,27.7-0.1,32.4,1.5c0.4,0.1,0.7,0.2,1,0.3c0.3,0.1,0.4,0.4,0.4,0.7
					C181.2,287.4,181,287.6,180.8,287.6z"/>
			</g>
			<g>
				<path class="st7" d="M108,307.2c-0.2,0-0.4-0.1-0.5-0.2c-0.2-0.3-0.1-0.6,0.2-0.8l36.4-23.8c0.3-0.2,0.6-0.1,0.8,0.2
					c0.2,0.3,0.1,0.6-0.2,0.8l-36.4,23.8C108.2,307.2,108.1,307.2,108,307.2z"/>
			</g>
			<g>
				<path class="st8" d="M109.2,302.3c-0.1,0-0.2,0-0.2,0c-0.1,0-10.6-4.8-23.9-4.7c-2.7,0-5.6,0.1-8.6,0.1c0,0,0,0,0,0
					c-0.3,0-0.5-0.2-0.5-0.5c0-0.3,0.2-0.6,0.5-0.6c3-0.1,5.9-0.1,8.6-0.1c13.5,0,24.2,4.8,24.4,4.8c0.3,0.1,0.4,0.5,0.3,0.7
					C109.6,302.2,109.5,302.3,109.2,302.3z"/>
			</g>
			<g>
				<path class="st8" d="M115.9,297.1c-0.1,0-0.2,0-0.2,0c-0.1,0-10.6-4.8-23.9-4.7c-2.8,0-5.7,0.1-8.7,0.1c0,0,0,0,0,0
					c-0.3,0-0.5-0.2-0.5-0.5c0-0.3,0.2-0.6,0.5-0.6c3-0.1,6-0.1,8.7-0.1c13.5,0,24.2,4.8,24.4,4.8c0.3,0.1,0.4,0.5,0.3,0.7
					C116.3,297,116.1,297.1,115.9,297.1z"/>
			</g>
			<g>
				<path class="st8" d="M123.1,292.2c-0.1,0-0.2,0-0.2,0c-0.1,0-10.6-4.8-23.9-4.7c-3,0-6.3,0.1-9.7,0.2c0,0,0,0,0,0
					c-0.3,0-0.5-0.2-0.5-0.5c0-0.3,0.2-0.6,0.5-0.6c3.4-0.1,6.7-0.2,9.7-0.2c13.5,0,24.2,4.8,24.4,4.8c0.3,0.1,0.4,0.5,0.3,0.7
					C123.5,292.1,123.3,292.2,123.1,292.2z"/>
			</g>
		</g>
	</g>
	<g>
		<g>
			<polygon class="st2" points="401.5,386.8 54.5,386.8 159.8,318.7 506.8,318.7 			"/>
			<rect x="54.5" y="386.8" class="st6" width="346.8" height="24"/>
			<polygon class="st6" points="401.3,410.8 401.3,386.8 506.8,318.7 506.8,386.8 506.8,411.9 			"/>
		</g>
		<g>
			<g>
				<polygon class="st7" points="349,381.3 348.7,386.8 424.5,343.4 424.8,337.9 				"/>
			</g>
			<g>
				<path class="st7" d="M252.3,381.8c1-0.1,29.6-7.7,51.6-6.5c25.5,1.4,44.8,11.6,44.8,11.6l0.3-5.5c0,0-17.5-10.1-44.8-11.6
					c-27.3-1.4-51.6,6.5-51.6,6.5L252.3,381.8z"/>
			</g>
			<g>
				<path class="st7" d="M165.3,369c0,0,20.3-0.1,42.3,1.1c25.5,1.4,44.7,11.6,44.7,11.6l0.3-5.5c0,0-17-10.1-44.7-11.6
					c-27.7-1.5-42.3-1.1-42.3-1.1L165.3,369z"/>
			</g>
			<g>
				<path class="st3" d="M349,381.3c0,0-19.4-10.2-44.8-11.6c-22-1.2-50.5,6.4-51.6,6.5l78.2-44.9c1-0.1,29.6-7.7,51.6-6.5
					c25.5,1.4,44.8,11.6,44.8,11.6L349,381.3z"/>
			</g>
			<g>
				<path class="st3" d="M252.6,376.2c0,0-19.2-10.2-44.7-11.6c-22-1.2-42.3-1.1-42.3-1.1l78.2-44.9c0,0,20.3-0.1,42.3,1.1
					c25.5,1.4,44.7,11.6,44.7,11.6L252.6,376.2z"/>
			</g>
			<g>
				<path class="st8" d="M348.4,371.2c-0.1,0-0.2,0-0.3-0.1c-8-3-20.7-6.8-35.4-7.6c0,0-0.1,0-0.1,0c-8.1-0.4-17.9,0.3-29.4,2.1
					c-0.6,0.1-1.1-0.3-1.2-0.9c-0.1-0.6,0.3-1.1,0.9-1.2c11.6-1.8,21.7-2.5,29.9-2.1c15,0.8,27.8,4.6,36,7.7
					c0.5,0.2,0.8,0.8,0.6,1.3C349.3,371,348.9,371.3,348.4,371.2z"/>
			</g>
			<g>
				<path class="st8" d="M360.1,362.9c-0.1,0-0.2,0-0.3-0.1c-8-3-20.7-6.8-35.4-7.6c-7-0.4-14.1-0.1-22.3,1
					c-0.6,0.1-1.1-0.3-1.2-0.9c-0.1-0.6,0.3-1.1,0.9-1.2c8.2-1.1,15.4-1.4,22.5-1c0.1,0,0.1,0,0.2,0c15,0.8,27.8,4.6,36,7.7
					c0.5,0.2,0.8,0.8,0.6,1.3C360.9,362.6,360.5,362.9,360.1,362.9z"/>
			</g>
			<g>
				<path class="st8" d="M377.9,353.6c-0.1,0-0.2,0-0.3-0.1c-0.1,0-5.5-2.2-15.7-4c-9.4-1.7-24.8-3.3-44.9-1.8
					c-0.6,0-1.1-0.4-1.1-0.9c0-0.6,0.4-1.1,0.9-1.1c20.4-1.6,36,0.1,45.5,1.8c10.3,1.8,15.8,4,16,4.1c0.5,0.2,0.8,0.8,0.6,1.3
					C378.7,353.4,378.3,353.6,377.9,353.6z"/>
			</g>
			<g>
				<path class="st8" d="M396.1,345.5c-0.1,0-0.2,0-0.3-0.1c-0.6-0.2-1.2-0.5-1.8-0.7c-8.6-3.4-24.7-9.6-59.8-6.2
					c-0.6,0.1-1.1-0.4-1.1-0.9c-0.1-0.6,0.4-1.1,0.9-1.1c35.5-3.5,51.9,2.9,60.7,6.3c0.7,0.3,1.3,0.5,1.8,0.7
					c0.5,0.2,0.8,0.8,0.6,1.3C397,345.3,396.6,345.5,396.1,345.5z"/>
			</g>
			<g>
				<path class="st7" d="M257.4,374.5c-0.3,0-0.7-0.2-0.8-0.5c-0.3-0.5-0.1-1.1,0.4-1.4l70.9-40.7c0.5-0.3,1.1-0.1,1.4,0.4
					c0.3,0.5,0.1,1.1-0.4,1.4l-70.9,40.7C257.8,374.5,257.6,374.5,257.4,374.5z"/>
			</g>
			<g>
				<path class="st8" d="M260.3,365.4c-0.1,0-0.3,0-0.4-0.1c-0.2-0.1-19.4-10.1-44.3-11.5c-5.1-0.3-10.5-0.5-16.1-0.7c0,0,0,0,0,0
					c-0.6,0-1-0.5-1-1.1c0-0.6,0.5-1,1.1-1c5.6,0.2,11,0.4,16.1,0.7c25.4,1.4,45,11.6,45.2,11.7c0.5,0.3,0.7,0.9,0.4,1.4
					C261.1,365.3,260.7,365.5,260.3,365.4z"/>
			</g>
			<g>
				<path class="st8" d="M273.3,356.3c-0.1,0-0.3,0-0.4-0.1c-0.2-0.1-19.4-10.1-44.3-11.5c-5.2-0.3-10.7-0.5-16.3-0.7c0,0,0,0,0,0
					c-0.6,0-1-0.5-1-1.1c0-0.6,0.5-1,1.1-1c5.7,0.2,11.2,0.4,16.4,0.7c25.4,1.4,45,11.6,45.2,11.7c0.5,0.3,0.7,0.9,0.4,1.4
					C274.1,356.2,273.7,356.4,273.3,356.3z"/>
			</g>
			<g>
				<path class="st8" d="M287.4,347.9c-0.1,0-0.3,0-0.4-0.1c-0.2-0.1-19.4-10.1-44.3-11.5c-5.7-0.3-11.8-0.6-18.2-0.8c0,0,0,0,0,0
					c-0.6,0-1-0.5-1-1.1c0-0.6,0.5-1,1.1-1c6.4,0.2,12.6,0.4,18.3,0.8c25.4,1.4,45,11.6,45.2,11.7c0.5,0.3,0.7,0.9,0.4,1.4
					C288.2,347.7,287.8,347.9,287.4,347.9z"/>
			</g>
		</g>
	</g>
	<g>
		<g>
			<g>
				<path class="st3" d="M434.3,239.5c19.3,25.2,18.5,79.2,18.5,79.2H229.9c0,0,20.9-108.7,84.7-111
					C386.7,205,415.1,214.3,434.3,239.5z"/>
			</g>
		</g>
		<g>
			<g>
				<g>
					<path class="st0" d="M261,107.5c0,0-1.9-62,56.6-70.1c58.6-8.1,83.8,25.5,94.2,69.4L261,107.5z"/>
				</g>
			</g>
			<g>
				<g>
					<path class="st1" d="M354.3,175.4l4.9,32.6c0,0-19.4,26.6-43.1,46.7l-17.3-69.1L354.3,175.4z"/>
				</g>
			</g>
			<g>
				<g>
					<path class="st1" d="M384.3,134.5c0,0-1.3,25.2-8.8,45.4c0,0-27.9,45.2-71.6,36.8c-52.2-10-53.6-104.1-24.3-142.9
						c29.3-38.8,81.6-16.2,93.4,4.1C380.4,90.4,387.8,107.3,384.3,134.5z"/>
				</g>
			</g>
			<g>
				<g>
					<g>
						<g>
							<g>
								<g>
									<g>
										<g>
											<g>
												<path class="st0" d="M289.3,140.5c0,4.4-2.8,8-6.3,8c-3.5,0-6.3-3.6-6.3-8c0-4.4,2.8-8,6.3-8
													C286.5,132.5,289.3,136.1,289.3,140.5z"/>
											</g>
										</g>
									</g>
								</g>
							</g>
						</g>
					</g>
				</g>
			</g>
			<g>
				<g>
					<g>
						<g>
							<g>
								<g>
									<g>
										<g>
											<g>
												<path class="st0" d="M343,137.3c0,4.4-2.8,8-6.3,8c-3.5,0-6.3-3.6-6.3-8c0-4.4,2.8-8,6.3-8
													C340.2,129.3,343,132.9,343,137.3z"/>
											</g>
										</g>
									</g>
								</g>
							</g>
						</g>
					</g>
				</g>
			</g>
			<g>
				<g>
					<g>
						<g>
							<g>
								<g>
									<g>
										<g>
											<g>
												<path class="st0" d="M344.9,117.6c-0.3,0-0.6,0-0.9-0.2c-0.3-0.2-7.7-5.7-13.5-0.5c-0.5,0.5-1.3,0.3-1.8-0.4
													c-0.4-0.7-0.3-1.7,0.2-2.2c7.2-6.4,15.9,0.2,16.3,0.5c0.6,0.5,0.8,1.4,0.5,2.2C345.5,117.3,345.2,117.5,344.9,117.6z"/>
											</g>
										</g>
									</g>
								</g>
							</g>
						</g>
					</g>
				</g>
			</g>
			<g>
				<g>
					<g>
						<g>
							<g>
								<g>
									<g>
										<g>
											<g>
												<path class="st0" d="M286.6,118.7c-0.2,0.1-0.5,0.1-0.7,0c-0.3-0.2-7.9-3.7-10.7,2.5c-0.3,0.6-0.9,0.6-1.5,0
													c-0.6-0.6-0.9-1.5-0.6-2.1c3.4-7.5,12.4-3.4,12.8-3.2c0.6,0.3,1.2,1.2,1.2,1.9C287,118.2,286.9,118.5,286.6,118.7z"/>
											</g>
										</g>
									</g>
								</g>
							</g>
						</g>
					</g>
				</g>
			</g>
			<g>
				<g>
					<path class="st0" d="M316.1,52.8c0,0-4.6,27.9,29.6,42.5c11.2,4.8,20.7,12.9,27.1,23.2c5,8.1,7.7,16.8,1.6,22.5l1.1,38.8
						c0,0,40.1-13.8,37.3-63.7C410,66.4,365.1,25.9,316.1,52.8z"/>
				</g>
			</g>
			<g>
				<g>
					
						<ellipse transform="matrix(0.5164 -0.8564 0.8564 0.5164 59.8726 402.078)" class="st1" cx="385.9" cy="148" rx="19.9" ry="13.4"/>
				</g>
			</g>
			<g>
				<g>
					<path class="st0" d="M316.1,52.8c0,0-10.6,14.6-21,34.5c-5,9.6-9.2,19.6-19.9,21.6c-5.5,1-10.6,0.9-14.3-1.5
						c-15.9-10.3,4.3-53.4,30.1-60.9C316.9,39.1,316.1,52.8,316.1,52.8z"/>
				</g>
			</g>
			<g>
				<path class="st0" d="M303.1,158.6c0-0.1,0-0.1,0.1-0.2c1.7-3.3,3.7-5,6-5.1c3.4-0.1,5.7,3.6,6,4c0.5,0.8,0.2,1.8-0.6,2.3
					c-0.8,0.5-1.8,0.2-2.3-0.6c-0.5-0.8-1.8-2.4-3-2.4c-1,0-2,1.2-3.1,3.2c-0.4,0.8-1.4,1.1-2.2,0.7
					C303.2,160.3,302.8,159.4,303.1,158.6z"/>
			</g>
			<g>
				<path class="st0" d="M312.2,182.2c-13.7,0-20.4-8-20.7-8.4c-0.6-0.8-0.5-1.9,0.3-2.5c0.8-0.6,1.9-0.5,2.5,0.2l0,0
					c0.3,0.4,7.9,9.2,23.8,6.6c15.6-2.6,17.3-13.8,17.3-14.3c0.1-1,1-1.7,2-1.5c1,0.1,1.7,1,1.5,2c0,0.1-1.9,14.3-20.3,17.4
					C316.4,182,314.2,182.2,312.2,182.2z"/>
			</g>
		</g>
		<g>
			<path class="st1" d="M492.3,277c-13-32.3-32.4-81.4-36.7-94.5c-4.2-12.7-3.9-23.9-3.7-27.1c0.9-1.7,1.8-3.7,2.6-6
				c6.4-17.7,13.5-32.2,14.7-34.1c1.2-1.9,3.5-22.3,3.5-24.9c0-2.6-7.5-5.3-8.4,0c-0.5,2.7-1.5,8.3-2.3,13
				c-0.7,3.9-2.5,7.5-5.2,10.3l0.6-2.9c1.6-8.4,2.7-16.8,3.1-25.3l0.3-6.3c0-2.5-2-4.6-4.5-4.5c-2.4,0-4.3,1.9-4.4,4.2L451,94.2
				l-4.4,19.7l-0.3-0.1l1.5-18.7c0-0.4,0-0.9,0-1.3l-0.2-18.9c-0.2-2.5-2.3-4.3-4.8-4.2l-1.1,0.1c-2.5,0.2-4.4,2.5-4.1,5l0.6,15.5
				c0.1,1.2-0.1,2.5-0.3,3.7l-3.4,15.7l1.4-12.3c0-0.3,0.1-0.6,0.1-1l0.7-16.7c-0.1-2.4-2-4.2-4.4-4.3l-0.9,0
				c-2.6,0-4.6,2.1-4.5,4.7l-1.1,17.6c-0.1,1-0.2,2.1-0.5,3.1l-3.8,13.4c0-1.8,1.6-9.4-1.6-14.3c-3.5-5.3-7.3-0.7-8.2,5.9
				c-0.9,6.6-3.7,21.2-3.6,30.5c0.2,20.4,7.2,24.8,7.2,24.8l16.2,130.4c2.4,20.6,23.7,33.4,43,25.7
				C490.9,311.8,498.8,293.3,492.3,277z"/>
		</g>
		<g>
			<g>
				<g>
					<g>
						<path class="st9" d="M221.8,255.2l-1.8,0.9c-2.6,1.3-3.3,5.2-1.5,8.6l37.4,72.1L267,331l-37.4-72.1
							C227.9,255.5,224.4,253.8,221.8,255.2z"/>
					</g>
				</g>
				<g>
					<g>
						<path class="st1" d="M267,331C267,331,267,331,267,331L267,331l1.9,16.5c0,0.4-0.3,0.6-0.6,0.3l-12.4-11.1l0,0c0,0,0,0,0,0
							l0,0l0,0c0,0,0.1-3.5,4.2-5.6C264.1,329.1,267,331,267,331L267,331L267,331z"/>
					</g>
				</g>
				<g>
					<g>
						<path class="st0" d="M268.5,343.4l0.5,4c0.1,0.5-0.4,0.8-0.8,0.4l-3-2.7l-3.8-3.4c0,0,0.1-1.8,2.5-3.1c2.5-1.3,4-0.3,4-0.3
							L268.5,343.4z"/>
					</g>
				</g>
			</g>
			<g>
				<g>
					<path class="st1" d="M227.8,276.7c0,0,17,3.8,21.5,10.4c4.5,6.6,11.4,15,7.1,19.6c-4.3,4.6-4.3,4.6-4.3,4.6s5.1,8.5-0.1,12.2
						c-5.2,3.8,2.9,14.3-10.4,11.6c-13.2-2.7-31.1-9.6-29.2-26C214.4,292.6,219.9,274.4,227.8,276.7z"/>
				</g>
			</g>
		</g>
	</g>
	<rect x="2.2" y="327.7" class="st6" width="18.9" height="83.1"/>
</g>
</svg>
